<svg version="1.1" xmlns="http://www.w3.org/2000/svg" viewBox="0 0 3675.4386855161683 1925.6676895330274" width="3675.4386855161683" height="1925.6676895330274">
  <!-- svg-source:excalidraw -->
  
  <defs>
    <style class="style-fonts">
      @font-face {
        font-family: "Virgil";
        src: url("https://excalidraw.com/Virgil.woff2");
      }
      @font-face {
        font-family: "Cascadia";
        src: url("https://excalidraw.com/Cascadia.woff2");
      }
      @font-face {
        font-family: "Assistant";
        src: url("https://excalidraw.com/Assistant-Regular.woff2");
      }
    </style>
    
  </defs>
  <rect x="0" y="0" width="3675.4386855161683" height="1925.6676895330274" fill="#ffffff"></rect><g stroke-linecap="round" transform="translate(10 10) rotate(0 744.5776075344002 946.28592261897)"><path d="M32 0 C331.82 -0.52, 631.88 -0.29, 1457.16 0 M32 0 C435.15 -2.1, 837.37 -2.24, 1457.16 0 M1457.16 0 C1477.87 0.87, 1488.95 11.3, 1489.16 32 M1457.16 0 C1477.02 1.64, 1490.59 12.43, 1489.16 32 M1489.16 32 C1486.93 479.91, 1486.88 929.39, 1489.16 1860.57 M1489.16 32 C1488.1 651.16, 1488.15 1270.61, 1489.16 1860.57 M1489.16 1860.57 C1489.47 1881.79, 1479.17 1891.27, 1457.16 1892.57 M1489.16 1860.57 C1489.75 1884.1, 1476.93 1894.35, 1457.16 1892.57 M1457.16 1892.57 C966.27 1891.98, 475.42 1891.56, 32 1892.57 M1457.16 1892.57 C1170.84 1892.05, 884.01 1891.59, 32 1892.57 M32 1892.57 C11.52 1893.32, -0.21 1881.28, 0 1860.57 M32 1892.57 C9.7 1891.36, -0.36 1881.93, 0 1860.57 M0 1860.57 C-7.13 1340.19, -7.98 820.61, 0 32 M0 1860.57 C6.9 1370.37, 7.29 879.92, 0 32 M0 32 C0.51 10.59, 11.58 0.62, 32 0 M0 32 C-1.44 11.69, 9.35 -1.54, 32 0" stroke="#1e1e1e" stroke-width="2" fill="none"></path></g><g stroke-linecap="round" transform="translate(116.45716629463436 53.0255733822371) rotate(0 627.2257019990869 127.62408824795318)"><path d="M32 0 C438.59 2.84, 846.31 3.37, 1222.45 0 M32 0 C407.66 -2.92, 784.01 -2.85, 1222.45 0 M1222.45 0 C1242.06 -1.63, 1254.62 8.77, 1254.45 32 M1222.45 0 C1241.51 0.24, 1255.7 8.96, 1254.45 32 M1254.45 32 C1255.77 91.37, 1256.42 146.23, 1254.45 223.25 M1254.45 32 C1255.07 107.65, 1256.03 183.96, 1254.45 223.25 M1254.45 223.25 C1255.04 245.14, 1243.56 253.77, 1222.45 255.25 M1254.45 223.25 C1255.93 244.94, 1244.48 257.03, 1222.45 255.25 M1222.45 255.25 C920.76 252.86, 618.75 253.17, 32 255.25 M1222.45 255.25 C818.06 256.61, 413.06 256.62, 32 255.25 M32 255.25 C10.81 256.35, 1.73 243.41, 0 223.25 M32 255.25 C9.13 255.86, -0.63 246.65, 0 223.25 M0 223.25 C1.95 157.72, 1.59 90.89, 0 32 M0 223.25 C0.54 169.07, 0.41 114.41, 0 32 M0 32 C-0.48 12.08, 9.24 0.27, 32 0 M0 32 C1.84 10.65, 9.47 0.36, 32 0" stroke="#1e1e1e" stroke-width="2" fill="none"></path></g><g transform="translate(690.8699715652057 149.52183522825044) rotate(0 52.812896728515625 31.127826401939785)"><text x="52.812896728515625" y="43.62876148495883" font-family="Virgil, Segoe UI Emoji" font-size="49.80452224310368px" fill="#1e1e1e" text-anchor="middle" style="white-space: pre;" direction="ltr" dominant-baseline="alphabetic">ATP</text></g><g stroke-opacity="0.5" fill-opacity="0.5" stroke-linecap="round" transform="translate(2430.2884074111544 746.3339693516208) rotate(0 617.575139052507 584.6668600907034)"><path d="M32 0 C353.92 7.74, 671.61 6.77, 1203.15 0 C1224.9 -0.81, 1232.25 12.77, 1235.15 32 C1238.78 360.08, 1239.25 688.2, 1235.15 1137.33 C1233.79 1155.21, 1227.17 1169.45, 1203.15 1169.33 C750.25 1171.19, 295.67 1171.24, 32 1169.33 C8.62 1171.42, 3.49 1157.05, 0 1137.33 C1.55 852.55, 1.62 570.21, 0 32 C-0.38 10.9, 12.96 -2.72, 32 0" stroke="none" stroke-width="0" fill="#99e9f2"></path><path d="M32 0 C282.99 0.58, 534.84 1.09, 1203.15 0 M32 0 C356.79 -1.17, 681.38 -1.67, 1203.15 0 M1203.15 0 C1224.59 -0.17, 1235.13 10.97, 1235.15 32 M1203.15 0 C1226.6 -1.48, 1234.12 9.01, 1235.15 32 M1235.15 32 C1236.72 423.21, 1236.23 815.28, 1235.15 1137.33 M1235.15 32 C1236.11 285.31, 1236.04 538.81, 1235.15 1137.33 M1235.15 1137.33 C1234.32 1157.3, 1225.07 1169.39, 1203.15 1169.33 M1235.15 1137.33 C1237.05 1158.61, 1223.69 1167.86, 1203.15 1169.33 M1203.15 1169.33 C793.81 1164.48, 385.42 1164.45, 32 1169.33 M1203.15 1169.33 C929.34 1169.84, 655.18 1169.85, 32 1169.33 M32 1169.33 C11.28 1170.78, -0.47 1157.23, 0 1137.33 M32 1169.33 C12.58 1170.37, 1.98 1157.04, 0 1137.33 M0 1137.33 C4.8 729.31, 4.45 319.92, 0 32 M0 1137.33 C4.28 854.42, 3.94 571.8, 0 32 M0 32 C-0.99 9.49, 9.58 1.54, 32 0 M0 32 C1.87 12.24, 10.38 1.17, 32 0" stroke="#1e1e1e" stroke-width="2" fill="none"></path></g><g stroke-linecap="round" transform="translate(2646.4373998806263 779.1611141917208) rotate(0 387.53411943512083 78.85309626223302)"><path d="M32 0 C181.33 -1.77, 333.58 -1.44, 743.07 0 C761.5 2.1, 774.96 12.47, 775.07 32 C774.91 63.4, 773.28 93.94, 775.07 125.71 C777.76 147.15, 767.56 158.69, 743.07 157.71 C505.43 152.86, 266.19 154.72, 32 157.71 C14.15 156.09, -1.56 146.15, 0 125.71 C-0.4 93.41, 0.11 60.72, 0 32 C2.29 7.94, 13.68 2.12, 32 0" stroke="none" stroke-width="0" fill="#a5d8ff"></path><path d="M32 0 C240.32 -0.01, 446.88 -1.06, 743.07 0 M32 0 C264.46 -1.15, 497.33 -0.79, 743.07 0 M743.07 0 C764.38 0.3, 776.91 9.38, 775.07 32 M743.07 0 C763.37 -1.66, 776.31 11.62, 775.07 32 M775.07 32 C772.9 65, 773.35 94.61, 775.07 125.71 M775.07 32 C774.46 64.46, 774.44 96.33, 775.07 125.71 M775.07 125.71 C775.66 147.1, 766.05 157.66, 743.07 157.71 M775.07 125.71 C774.28 145.56, 765.54 158.53, 743.07 157.71 M743.07 157.71 C593.94 154.67, 443.07 155.38, 32 157.71 M743.07 157.71 C517.15 155.12, 291.53 155.71, 32 157.71 M32 157.71 C10.19 156.27, 1.66 147.94, 0 125.71 M32 157.71 C12.64 156.08, 1.6 144.93, 0 125.71 M0 125.71 C0.11 92.23, -1.77 57.45, 0 32 M0 125.71 C-0.83 89.69, -0.92 55.01, 0 32 M0 32 C-1.09 12.2, 12.29 1.37, 32 0 M0 32 C-0.29 11.83, 10.06 2.29, 32 0" stroke="#1e1e1e" stroke-width="2" fill="none"></path></g><g transform="translate(2974.9700697307862 838.7817479509702) rotate(0 59.00144958496094 19.232462502983662)"><text x="59.00144958496094" y="26.9562194441819" font-family="Virgil, Segoe UI Emoji" font-size="30.77194000477386px" fill="#1e1e1e" text-anchor="middle" style="white-space: pre;" direction="ltr" dominant-baseline="alphabetic">Typhoon</text></g><g stroke-linecap="round" transform="translate(3293.229212591645 1608.188197103119) rotate(0 119.79076644715542 130.7807450202888)"><path d="M32 0 C82.55 -0.37, 124.83 2.79, 207.58 0 C232.4 0.54, 237.42 11.23, 239.58 32 C235.64 84.21, 235.66 136.68, 239.58 229.56 C239.01 250.04, 230.56 261.99, 207.58 261.56 C153.83 261.57, 96.74 257.87, 32 261.56 C12.25 264.72, -1.68 254.22, 0 229.56 C-0.84 161.28, -3.66 93.74, 0 32 C-0.68 13.32, 11.44 -2.94, 32 0" stroke="none" stroke-width="0" fill="#ffec99"></path><path d="M32 0 C69.4 0.84, 106.34 0.41, 207.58 0 M32 0 C97.96 -1.66, 165.24 -1.01, 207.58 0 M207.58 0 C227.58 0.06, 238.44 12.41, 239.58 32 M207.58 0 C231.06 0.34, 241.82 11.72, 239.58 32 M239.58 32 C240.2 105.66, 236.94 181.19, 239.58 229.56 M239.58 32 C237.52 82.86, 237.87 133.9, 239.58 229.56 M239.58 229.56 C239.51 251.72, 230.67 261.64, 207.58 261.56 M239.58 229.56 C240.45 250.37, 229.12 260.31, 207.58 261.56 M207.58 261.56 C155.21 263.41, 100.42 263.65, 32 261.56 M207.58 261.56 C141.68 259.63, 74.55 260.56, 32 261.56 M32 261.56 C11.2 263.14, 0.77 251.06, 0 229.56 M32 261.56 C10.98 261.23, -0.61 252.32, 0 229.56 M0 229.56 C2.06 190.46, 2.84 147.91, 0 32 M0 229.56 C-1.2 187.3, -0.78 144.2, 0 32 M0 32 C1.74 10.12, 9.31 -0.65, 32 0 M0 32 C0.82 9.9, 10.37 -1.73, 32 0" stroke="#1e1e1e" stroke-width="2" fill="none"></path></g><g stroke-linecap="round" transform="translate(3340.6750801593566 1630.4485209704421) rotate(0 74.50477706381298 34.23192459688704)"><path d="M17.12 0 C53.02 -0.54, 87.8 -1.36, 131.89 0 C139.85 0.95, 151.65 5.87, 149.01 17.12 C148.87 24.65, 149.91 36.93, 149.01 51.35 C151.48 65.63, 146.4 67.72, 131.89 68.46 C87.69 67.79, 44.9 65.59, 17.12 68.46 C2.66 70.59, 1.46 65.38, 0 51.35 C2.23 38.47, -3.21 26.48, 0 17.12 C1.13 4.27, 9.15 -1.92, 17.12 0" stroke="none" stroke-width="0" fill="#ffec99"></path><path d="M17.12 0 C51.44 0.1, 88.21 -1.96, 131.89 0 M17.12 0 C59.68 0.69, 99.88 0.49, 131.89 0 M131.89 0 C141.44 1.7, 148.26 4.88, 149.01 17.12 M131.89 0 C144.17 -1.17, 147.97 7.44, 149.01 17.12 M149.01 17.12 C150.44 30.88, 148.88 42.96, 149.01 51.35 M149.01 17.12 C148.89 28.22, 148.69 39.1, 149.01 51.35 M149.01 51.35 C148.76 62.84, 141.9 68.98, 131.89 68.46 M149.01 51.35 C150.36 63.16, 141.58 66.67, 131.89 68.46 M131.89 68.46 C105.57 67.09, 79.5 69.75, 17.12 68.46 M131.89 68.46 C105.89 66.66, 80.64 67.05, 17.12 68.46 M17.12 68.46 C7.11 69, 1.16 63.69, 0 51.35 M17.12 68.46 C5.82 66.19, 0.68 64.31, 0 51.35 M0 51.35 C1.63 43.96, 1.57 38.09, 0 17.12 M0 51.35 C1.03 43.09, -0.15 34.33, 0 17.12 M0 17.12 C1.62 4.08, 6.96 -1.28, 17.12 0 M0 17.12 C-1.66 7.29, 3.48 0.85, 17.12 0" stroke="#1e1e1e" stroke-width="2" fill="none"></path></g><g transform="translate(3396.9753055263923 1649.5781258922318) rotate(0 18.204551696777344 15.102319675097249)"><text x="18.204551696777344" y="21.16741125661627" font-family="Virgil, Segoe UI Emoji" font-size="24.163711480155555px" fill="#1e1e1e" text-anchor="middle" style="white-space: pre;" direction="ltr" dominant-baseline="alphabetic">DB</text></g><g stroke-linecap="round" transform="translate(3321.0339411081977 1723.0760816443717) rotate(0 89.59084979184604 60)"><path d="M61.78 3.5 C73.26 0.23, 88.87 -0.17, 101.6 0.8 C114.33 1.77, 127.29 4.73, 138.14 9.32 C148.99 13.92, 160.08 21.01, 166.7 28.38 C173.32 35.75, 176.6 44.9, 177.83 53.54 C179.05 62.18, 178.18 72.05, 174.04 80.21 C169.91 88.37, 162.19 96.35, 153 102.48 C143.82 108.62, 131.36 114.14, 118.95 117.02 C106.54 119.9, 91.51 120.7, 78.54 119.75 C65.56 118.8, 51.9 116.11, 41.12 111.3 C30.35 106.49, 20.74 98.63, 13.89 90.9 C7.04 83.16, 1.3 73.4, 0.03 64.89 C-1.23 56.37, 1.94 47.91, 6.3 39.81 C10.67 31.7, 16.11 22.47, 26.2 16.25 C36.29 10.02, 58.86 4.83, 66.85 2.45 C74.83 0.07, 73.59 0.94, 74.12 1.95 M88.83 -0.04 C100.77 -1.11, 115.59 1.78, 127.27 5.32 C138.94 8.86, 150.45 14.17, 158.89 21.18 C167.33 28.18, 175.07 38.74, 177.9 47.36 C180.73 55.98, 179.07 64.8, 175.87 72.91 C172.66 81.03, 166.6 89.42, 158.67 96.04 C150.74 102.65, 139.83 108.43, 128.26 112.6 C116.69 116.78, 102.22 120.9, 89.26 121.09 C76.29 121.28, 62.24 117.47, 50.48 113.74 C38.71 110.01, 26.63 105.61, 18.69 98.74 C10.75 91.86, 5.6 81.12, 2.84 72.49 C0.08 63.85, -0.75 55.5, 2.12 46.94 C4.98 38.39, 11.93 28.12, 20.02 21.16 C28.1 14.2, 38.79 8.6, 50.62 5.19 C62.46 1.77, 84.47 1.13, 91.03 0.67 C97.59 0.2, 90.41 1.73, 89.98 2.39" stroke="#1e1e1e" stroke-width="2" fill="none"></path></g><g transform="translate(3383.0145218613116 1745.6496747731787) rotate(0 27.759971618652344 37.5)"><text x="27.759971618652344" y="17.52" font-family="Virgil, Segoe UI Emoji" font-size="20px" fill="#1e1e1e" text-anchor="middle" style="white-space: pre;" direction="ltr" dominant-baseline="alphabetic">user</text><text x="27.759971618652344" y="42.519999999999996" font-family="Virgil, Segoe UI Emoji" font-size="20px" fill="#1e1e1e" text-anchor="middle" style="white-space: pre;" direction="ltr" dominant-baseline="alphabetic">queue</text><text x="27.759971618652344" y="67.52" font-family="Virgil, Segoe UI Emoji" font-size="20px" fill="#1e1e1e" text-anchor="middle" style="white-space: pre;" direction="ltr" dominant-baseline="alphabetic">model</text></g><g stroke-linecap="round" transform="translate(2491.4576304496877 1000.7581651355941) rotate(0 127.84324698759337 213.8663659242124)"><path d="M32 0 C91.77 -2.94, 156.95 0.29, 223.69 0 C244.27 -1.93, 252.89 12.73, 255.69 32 C257.22 117.07, 255 201.83, 255.69 395.73 C254.44 414.91, 241.86 428.55, 223.69 427.73 C167.14 430.2, 117.87 431.52, 32 427.73 C10.8 427.46, -2.37 417.29, 0 395.73 C-0.25 291.85, 1.07 183.92, 0 32 C-1.7 12.1, 10.69 0.17, 32 0" stroke="none" stroke-width="0" fill="#b2f2bb"></path><path d="M32 0 C86.58 2.24, 138.14 3.48, 223.69 0 M32 0 C87.96 -0.18, 144.8 0.02, 223.69 0 M223.69 0 C246.55 -1.26, 254.73 11.44, 255.69 32 M223.69 0 C246.31 -1.85, 253.7 12.05, 255.69 32 M255.69 32 C256.89 176.27, 256.37 320.04, 255.69 395.73 M255.69 32 C254.69 161.01, 253.74 290.59, 255.69 395.73 M255.69 395.73 C254.59 416.32, 246.64 426.69, 223.69 427.73 M255.69 395.73 C254.52 417.9, 243.6 428.19, 223.69 427.73 M223.69 427.73 C185.22 428.09, 143.1 428.36, 32 427.73 M223.69 427.73 C156.48 426.98, 89.62 427.65, 32 427.73 M32 427.73 C12.47 427.69, 1.39 416.87, 0 395.73 M32 427.73 C10.93 426.43, -0.6 414.8, 0 395.73 M0 395.73 C1.19 280.17, 1.64 163.83, 0 32 M0 395.73 C1.71 309.15, 2.1 221.87, 0 32 M0 32 C-1.21 9.24, 9.33 -0.98, 32 0 M0 32 C1.09 9.99, 8.83 -1.72, 32 0" stroke="#1e1e1e" stroke-width="2" fill="none"></path></g><g stroke-linecap="round" transform="translate(2511.7700951065926 1026.8571447253414) rotate(0 106.51489591906488 49.22957374410561)"><path d="M24.61 0 C75.55 0.8, 135.91 -3.27, 188.42 0 C203.05 -3.01, 211.76 5.05, 213.03 24.61 C215.92 41.04, 214.56 65.44, 213.03 73.84 C216.02 92.61, 202.06 97.48, 188.42 98.46 C147.65 98.39, 100.19 101.52, 24.61 98.46 C9.13 98.66, 3.37 88.58, 0 73.84 C-0.64 63.95, 0.78 52.62, 0 24.61 C1.87 10.58, 8.39 -2.38, 24.61 0" stroke="none" stroke-width="0" fill="#b2f2bb"></path><path d="M24.61 0 C67.82 0.79, 113.48 1.26, 188.42 0 M24.61 0 C82.79 0.81, 141.56 1.37, 188.42 0 M188.42 0 C204.84 1.49, 214.08 6.49, 213.03 24.61 M188.42 0 C203.42 0.76, 212.85 7.04, 213.03 24.61 M213.03 24.61 C213.46 38.13, 213.33 51.71, 213.03 73.84 M213.03 24.61 C212.87 37.04, 213.17 49.77, 213.03 73.84 M213.03 73.84 C212.71 91.23, 203.61 97.58, 188.42 98.46 M213.03 73.84 C213.33 90.61, 204.06 98.84, 188.42 98.46 M188.42 98.46 C135.06 98.03, 86.03 98.1, 24.61 98.46 M188.42 98.46 C135.94 98.29, 84 98.52, 24.61 98.46 M24.61 98.46 C6.79 98.33, -0.2 90.66, 0 73.84 M24.61 98.46 C10.31 98.48, -0.77 88.05, 0 73.84 M0 73.84 C-1.63 64.05, -1.04 52.1, 0 24.61 M0 73.84 C-0.03 58.29, 0.2 42.48, 0 24.61 M0 24.61 C0.44 7.46, 9.37 1.67, 24.61 0 M0 24.61 C-1.32 7.98, 8.68 0.96, 24.61 0" stroke="#1e1e1e" stroke-width="2" fill="none"></path></g><g transform="translate(2576.1750209328843 1063.586718469447) rotate(0 42.10997009277344 12.5)"><text x="42.10997009277344" y="17.52" font-family="Virgil, Segoe UI Emoji" font-size="20px" fill="#1e1e1e" text-anchor="middle" style="white-space: pre;" direction="ltr" dominant-baseline="alphabetic">FastAPI</text></g><g stroke-linecap="round" transform="translate(2540.4127561940727 1159.329452254935) rotate(0 76.97715167260151 29.537744246463376)"><path d="M14.77 0 C61.08 0.61, 111.56 0.94, 139.19 0 M14.77 0 C52.43 -0.29, 90.03 0.16, 139.19 0 M139.19 0 C147.48 -1.22, 153.73 5.2, 153.95 14.77 M139.19 0 C149.27 0.07, 155.21 3.16, 153.95 14.77 M153.95 14.77 C155.89 25.25, 155.58 36.85, 153.95 44.31 M153.95 14.77 C152.82 22.81, 152.94 28.71, 153.95 44.31 M153.95 44.31 C153.37 54.25, 150.93 60.9, 139.19 59.08 M153.95 44.31 C154.19 56.22, 146.92 61.26, 139.19 59.08 M139.19 59.08 C110.84 61.34, 87.26 58.72, 14.77 59.08 M139.19 59.08 C109.56 59.78, 81.33 59.95, 14.77 59.08 M14.77 59.08 C4.33 57.51, -0.08 53.93, 0 44.31 M14.77 59.08 C3.08 58.21, -0.04 52.42, 0 44.31 M0 44.31 C-0.51 37.69, -1.67 29.03, 0 14.77 M0 44.31 C-0.41 34.82, 1.05 25.63, 0 14.77 M0 14.77 C1.92 5.1, 6.5 -1.93, 14.77 0 M0 14.77 C-0.35 4.9, 4.33 -0.61, 14.77 0" stroke="#1e1e1e" stroke-width="2" fill="none"></path></g><g transform="translate(2564.5299530326897 1176.3671965013982) rotate(0 52.859954833984375 12.5)"><text x="52.859954833984375" y="17.52" font-family="Virgil, Segoe UI Emoji" font-size="20px" fill="#1e1e1e" text-anchor="middle" style="white-space: pre;" direction="ltr" dominant-baseline="alphabetic">TrainModel</text></g><g stroke-linecap="round" transform="translate(2540.4127561940722 1233.6213544505852) rotate(0 76.97715167260151 29.537744246463376)"><path d="M14.77 0 C60.1 -0.19, 105.43 -2.16, 139.19 0 M14.77 0 C44.33 -0.18, 72.4 -0.76, 139.19 0 M139.19 0 C150.08 0.7, 153.28 6.85, 153.95 14.77 M139.19 0 C151 1.82, 153.77 4.11, 153.95 14.77 M153.95 14.77 C155.1 20.43, 154.19 27.17, 153.95 44.31 M153.95 14.77 C153.91 22.87, 154.62 32.47, 153.95 44.31 M153.95 44.31 C152.02 54.91, 150.6 61, 139.19 59.08 M153.95 44.31 C156.23 53.78, 150.67 57.47, 139.19 59.08 M139.19 59.08 C106.61 57.26, 71.65 58.58, 14.77 59.08 M139.19 59.08 C98.9 59.28, 57.86 57.89, 14.77 59.08 M14.77 59.08 C5.16 60.39, -0.8 54.61, 0 44.31 M14.77 59.08 C5.08 58.21, -0.2 51.93, 0 44.31 M0 44.31 C1.29 37.92, 0.92 31.09, 0 14.77 M0 44.31 C-0.97 36.46, 0.46 28.68, 0 14.77 M0 14.77 C0.63 3.87, 5.23 0.82, 14.77 0 M0 14.77 C-0.79 4.05, 4.11 -0.9, 14.77 0" stroke="#1e1e1e" stroke-width="2" fill="none"></path></g><g transform="translate(2549.0499649345447 1250.6590986970486) rotate(0 68.3399429321289 12.5)"><text x="68.3399429321289" y="17.52" font-family="Virgil, Segoe UI Emoji" font-size="20px" fill="#1e1e1e" text-anchor="middle" style="white-space: pre;" direction="ltr" dominant-baseline="alphabetic">GetUserModel</text></g><g stroke-linecap="round" transform="translate(2538.6225898761054 1308.8083398052192) rotate(0 76.97715167260151 29.537744246463376)"><path d="M14.77 0 C54.78 2.81, 93.82 -0.05, 139.19 0 M14.77 0 C41.44 0.93, 68.59 0.95, 139.19 0 M139.19 0 C148.95 0.96, 154.9 3.16, 153.95 14.77 M139.19 0 C148.48 1.36, 153.25 6.13, 153.95 14.77 M153.95 14.77 C153.47 24, 155.05 36.23, 153.95 44.31 M153.95 14.77 C153.68 21.6, 154.02 28.78, 153.95 44.31 M153.95 44.31 C153.33 53.56, 150.62 58.3, 139.19 59.08 M153.95 44.31 C153.25 53.93, 150.32 61.17, 139.19 59.08 M139.19 59.08 C99.45 56.94, 62.3 56.28, 14.77 59.08 M139.19 59.08 C94.36 58.28, 48.38 58.85, 14.77 59.08 M14.77 59.08 C5.85 58.9, 0.5 55.26, 0 44.31 M14.77 59.08 C3.16 60, -1.59 53.23, 0 44.31 M0 44.31 C-0.22 35.03, -1.4 25.57, 0 14.77 M0 44.31 C-0.52 38.26, 0.29 30.79, 0 14.77 M0 14.77 C1.69 4.85, 5.05 0.03, 14.77 0 M0 14.77 C1.71 5.88, 7.01 -1.87, 14.77 0" stroke="#1e1e1e" stroke-width="2" fill="none"></path></g><g transform="translate(2556.1197992269294 1325.8460840516827) rotate(0 59.479942321777344 12.5)"><text x="59.479942321777344" y="17.52" font-family="Virgil, Segoe UI Emoji" font-size="20px" fill="#1e1e1e" text-anchor="middle" style="white-space: pre;" direction="ltr" dominant-baseline="alphabetic">DeleteModel</text></g><g stroke-linecap="round" transform="translate(3206.082815601048 963.9952313041634) rotate(0 201.33554652274256 269.4200308541054)"><path d="M32 0 C109.9 -0.21, 192.5 -3.06, 370.67 0 C391.31 -3.15, 401.9 8.58, 402.67 32 C404.39 209.97, 404.52 390.3, 402.67 506.84 C400.84 528.12, 388.81 540.42, 370.67 538.84 C254.72 533.71, 139.37 534.3, 32 538.84 C9.5 538.25, -2.47 526.35, 0 506.84 C1.03 360.96, 0.24 217.84, 0 32 C-1.11 12.83, 7.7 -0.96, 32 0" stroke="none" stroke-width="0" fill="#ffd8a8"></path><path d="M32 0 C158.11 -2.25, 285.46 -2.52, 370.67 0 M32 0 C166.32 -1.88, 302.18 -1.81, 370.67 0 M370.67 0 C392.84 1.85, 403.24 9.71, 402.67 32 M370.67 0 C392.95 0.59, 404.86 12.25, 402.67 32 M402.67 32 C404.84 160.56, 405.36 289.16, 402.67 506.84 M402.67 32 C403.72 191.21, 404.41 350.83, 402.67 506.84 M402.67 506.84 C403.55 529.18, 392.21 539.62, 370.67 538.84 M402.67 506.84 C403.32 527.39, 393.9 540.97, 370.67 538.84 M370.67 538.84 C285.39 538.64, 200.74 539.69, 32 538.84 M370.67 538.84 C245.51 540.18, 122.1 540.89, 32 538.84 M32 538.84 C11.83 536.84, -0.61 528.18, 0 506.84 M32 538.84 C11.88 539.47, 1.59 530.22, 0 506.84 M0 506.84 C-1.89 410.95, -1.72 315.98, 0 32 M0 506.84 C-1.09 345.26, -1.32 183.63, 0 32 M0 32 C-0.05 10.44, 11.94 -1.51, 32 0 M0 32 C-1.88 12.68, 10.88 1.64, 32 0" stroke="#1e1e1e" stroke-width="2" fill="none"></path></g><g stroke-linecap="round" transform="translate(3274.16729993241 994.265735918792) rotate(0 134.22369768182875 38.90541961792137)"><path d="M19.45 0 C77.43 2.65, 132.58 0.76, 248.99 0 C263.79 2.88, 266.73 3.39, 268.45 19.45 C267.25 36.94, 265.97 50.04, 268.45 58.36 C269.46 72.11, 265 78.53, 248.99 77.81 C178.29 74.18, 112.74 79.2, 19.45 77.81 C5.77 74.67, 1.4 68.62, 0 58.36 C3.3 51.98, 1.97 43.61, 0 19.45 C2.39 3.94, 7.37 2.13, 19.45 0" stroke="none" stroke-width="0" fill="#ffd8a8"></path><path d="M19.45 0 C83.67 1.2, 145.31 1.56, 248.99 0 M19.45 0 C97.27 0.33, 172.95 0.27, 248.99 0 M248.99 0 C262.88 -1.84, 268.05 6.55, 268.45 19.45 M248.99 0 C260.44 0.14, 269.26 6.09, 268.45 19.45 M268.45 19.45 C266.36 29.94, 269.79 38.5, 268.45 58.36 M268.45 19.45 C269 35.36, 268.49 49.69, 268.45 58.36 M268.45 58.36 C268.89 71.37, 263.66 77.93, 248.99 77.81 M268.45 58.36 C270.72 71.59, 262.19 76.46, 248.99 77.81 M248.99 77.81 C201.75 77.72, 153.93 78.15, 19.45 77.81 M248.99 77.81 C192.6 78.18, 136.92 78.92, 19.45 77.81 M19.45 77.81 C7.8 79.32, -1.49 73.18, 0 58.36 M19.45 77.81 C4.42 76, -0.12 73.15, 0 58.36 M0 58.36 C-0.47 47.34, -1.16 33.48, 0 19.45 M0 58.36 C-0.89 50.22, 0.89 39.91, 0 19.45 M0 19.45 C1.17 6.11, 8 0.22, 19.45 0 M0 19.45 C0.91 6.97, 7.89 -0.74, 19.45 0" stroke="#1e1e1e" stroke-width="2" fill="none"></path></g><g transform="translate(3376.6652209418753 1019.5881230457386) rotate(0 31.72577667236328 13.58303249097473)"><text x="31.72577667236328" y="19.037978339350182" font-family="Virgil, Segoe UI Emoji" font-size="21.73285198555957px" fill="#1e1e1e" text-anchor="middle" style="white-space: pre;" direction="ltr" dominant-baseline="alphabetic">Kafka</text></g><g stroke-linecap="round" transform="translate(2452.194274130155 1461.0831784943375) rotate(0 196.85571644760228 218.6220602558679)"><path d="M32 0 C134.36 0.42, 241.68 2, 361.71 0 C384.72 -1.87, 392.51 10.86, 393.71 32 C392.59 151.77, 394.95 269.82, 393.71 405.24 C393.44 428.92, 381.38 436.67, 361.71 437.24 C277.98 433.74, 198.82 433.54, 32 437.24 C8.19 434.78, -2.05 428.09, 0 405.24 C3.03 278.52, 1.59 151.47, 0 32 C0.96 7.88, 12.25 1.26, 32 0" stroke="none" stroke-width="0" fill="#ffc9c9"></path><path d="M32 0 C130.92 2.18, 229.18 0.55, 361.71 0 M32 0 C132.94 -0.54, 233.65 -1.29, 361.71 0 M361.71 0 C381.86 -0.03, 394.83 10.88, 393.71 32 M361.71 0 C384.21 -1.13, 393.42 9.18, 393.71 32 M393.71 32 C392.82 134.22, 393.33 234.88, 393.71 405.24 M393.71 32 C393.56 137.12, 393.02 242.36, 393.71 405.24 M393.71 405.24 C393.46 424.82, 384.3 436.04, 361.71 437.24 M393.71 405.24 C395.95 425.36, 384.36 437.26, 361.71 437.24 M361.71 437.24 C238.39 434.23, 115.15 434.59, 32 437.24 M361.71 437.24 C261.9 438.73, 163.31 439.09, 32 437.24 M32 437.24 C9.56 436.25, 0.2 426.76, 0 405.24 M32 437.24 C11.71 436.96, -0.94 424.51, 0 405.24 M0 405.24 C-2.75 275.13, -1.71 144.9, 0 32 M0 405.24 C0.74 323.43, 0.7 241.58, 0 32 M0 32 C-0.07 11.36, 11.57 -1.67, 32 0 M0 32 C-1.1 9.46, 8.57 0.45, 32 0" stroke="#1e1e1e" stroke-width="2" fill="none"></path></g><g stroke-linecap="round" transform="translate(2536.19316420606 1472.9536039955774) rotate(0 111.75663069160737 37.935737023756644)"><path d="M18.97 0 C75.14 -1.25, 127.68 -2.2, 204.55 0 C220.67 -1.31, 224.23 7.21, 223.51 18.97 C222.59 32.79, 219.82 42.91, 223.51 56.9 C223.98 70.79, 214.76 73.02, 204.55 75.87 C128.51 71.07, 54.27 72.04, 18.97 75.87 C8.26 75.64, -0.93 72.2, 0 56.9 C-0.47 49.03, -0.64 38.03, 0 18.97 C-0.54 4.81, 8.84 -3.22, 18.97 0" stroke="none" stroke-width="0" fill="#ffc9c9"></path><path d="M18.97 0 C76.06 -0.31, 137.18 0.97, 204.55 0 M18.97 0 C83.34 0.78, 147.82 -0.2, 204.55 0 M204.55 0 C215.37 1.66, 223.84 8.08, 223.51 18.97 M204.55 0 C217.02 1.5, 222.45 5.96, 223.51 18.97 M223.51 18.97 C222.13 28.1, 224.32 37.35, 223.51 56.9 M223.51 18.97 C223.67 28.12, 222.55 36.67, 223.51 56.9 M223.51 56.9 C223.63 69.28, 216.01 75.04, 204.55 75.87 M223.51 56.9 C224.12 67.77, 218.2 76.68, 204.55 75.87 M204.55 75.87 C143.02 74.68, 82.6 75.11, 18.97 75.87 M204.55 75.87 C141.68 74.84, 79.65 74.87, 18.97 75.87 M18.97 75.87 C7.08 77.65, -0.38 68.55, 0 56.9 M18.97 75.87 C8.03 74.1, 0.08 68.61, 0 56.9 M0 56.9 C0.25 46.31, 1.27 40.43, 0 18.97 M0 56.9 C0.34 48.64, -1 40.33, 0 18.97 M0 18.97 C-0.9 5.59, 4.59 -1.03, 18.97 0 M0 18.97 C1.96 7.87, 6.4 -0.52, 18.97 0" stroke="#1e1e1e" stroke-width="2" fill="none"></path></g><g transform="translate(2607.1420174928826 1496.5709760224527) rotate(0 40.807777404785156 14.318364996881371)"><text x="40.807777404785156" y="20.068620379628932" font-family="Virgil, Segoe UI Emoji" font-size="22.909383995010195px" fill="#1e1e1e" text-anchor="middle" style="white-space: pre;" direction="ltr" dominant-baseline="alphabetic">Trainer</text></g><g stroke-linecap="round" transform="translate(1648.6005853890047 643.8076214156972) rotate(0 278.4143984637558 146.94093252253788)"><path d="M32 0 C224.73 -0.79, 418.32 -0.09, 524.83 0 M32 0 C156.53 1.71, 281.71 1.21, 524.83 0 M524.83 0 C548.1 1.22, 555 10.46, 556.83 32 M524.83 0 C544.91 -1.17, 557.44 12.58, 556.83 32 M556.83 32 C557.36 107.01, 557.2 181.43, 556.83 261.88 M556.83 32 C558.42 81.88, 557.68 131.55, 556.83 261.88 M556.83 261.88 C557.3 283.48, 545.2 292.45, 524.83 293.88 M556.83 261.88 C558.08 281.85, 546.5 292.78, 524.83 293.88 M524.83 293.88 C425.48 295.34, 326.82 295.24, 32 293.88 M524.83 293.88 C335.04 293.35, 145.56 293.98, 32 293.88 M32 293.88 C10.09 295.21, -0.96 281.92, 0 261.88 M32 293.88 C8.71 291.93, -1.91 281.14, 0 261.88 M0 261.88 C-1.2 185.19, 1.43 112.31, 0 32 M0 261.88 C1.05 200.1, 1.16 138.6, 0 32 M0 32 C-1.41 9.48, 11.96 -2, 32 0 M0 32 C-1.12 12.55, 11.37 -1.64, 32 0" stroke="#1e1e1e" stroke-width="2" fill="none"></path></g><g stroke-linecap="round" transform="translate(1743.9019684299628 679.8024435776653) rotate(0 175.67962892167134 27.88565538439235)"><path d="M13.94 0 C117.35 1.05, 221.04 1.62, 337.42 0 M13.94 0 C139.27 -1.7, 264.64 -2.18, 337.42 0 M337.42 0 C347.41 0.16, 351.23 5.27, 351.36 13.94 M337.42 0 C345.05 0.91, 349.49 3.36, 351.36 13.94 M351.36 13.94 C352.19 25.28, 351.76 36.57, 351.36 41.83 M351.36 13.94 C351.6 24.02, 351.02 34.89, 351.36 41.83 M351.36 41.83 C349.58 53.11, 347.78 56.72, 337.42 55.77 M351.36 41.83 C352.87 49.08, 347.29 54.12, 337.42 55.77 M337.42 55.77 C244.76 58.1, 150.73 57.57, 13.94 55.77 M337.42 55.77 C235.76 56.56, 134.4 55.94, 13.94 55.77 M13.94 55.77 C5.13 54.87, -1.81 50.63, 0 41.83 M13.94 55.77 C6.08 56.82, 1.5 50.48, 0 41.83 M0 41.83 C1.89 34.23, -0.28 31.06, 0 13.94 M0 41.83 C0.44 35.79, -0.87 27.63, 0 13.94 M0 13.94 C0.63 3.94, 5.98 -0.15, 13.94 0 M0 13.94 C-0.64 3.66, 5.7 -0.62, 13.94 0" stroke="#1e1e1e" stroke-width="2" fill="none"></path></g><g transform="translate(1810.251702332103 695.1880989620577) rotate(0 109.32989501953125 12.5)"><text x="109.32989501953125" y="17.52" font-family="Virgil, Segoe UI Emoji" font-size="20px" fill="#1e1e1e" text-anchor="middle" style="white-space: pre;" direction="ltr" dominant-baseline="alphabetic">Third-party user auth</text></g><g stroke-linecap="round" transform="translate(1850.6585592272158 284.68842693010527) rotate(0 80.55748430853657 53.70498953902438)"><path d="M61.92 0.89 C72.26 -1.55, 85.3 -0.28, 96.65 1.62 C108.01 3.51, 120.58 7.54, 130.04 12.26 C139.5 16.98, 148.08 23.28, 153.41 29.94 C158.73 36.61, 161.81 44.61, 161.99 52.23 C162.18 59.84, 159.66 68.43, 154.51 75.62 C149.37 82.82, 140.24 90.28, 131.12 95.38 C122 100.48, 111.13 104.46, 99.8 106.22 C88.46 107.99, 74.47 107.71, 63.12 105.97 C51.76 104.22, 40.81 100.59, 31.67 95.75 C22.54 90.9, 13.66 83.79, 8.3 76.89 C2.93 69.99, -0.49 62.03, -0.53 54.37 C-0.57 46.7, 3.03 37.98, 8.06 30.9 C13.1 23.82, 18.91 17.01, 29.68 11.9 C40.45 6.78, 64 2.02, 72.67 0.21 C81.34 -1.61, 81.82 0.14, 81.7 1 M114.34 4.18 C125.25 6.54, 134.82 12.87, 142.34 18.91 C149.86 24.94, 156.5 32.66, 159.46 40.4 C162.42 48.15, 162.49 57.75, 160.08 65.37 C157.68 72.99, 151.99 80.34, 145.04 86.13 C138.09 91.91, 128.87 96.34, 118.4 100.07 C107.92 103.8, 94.08 108.22, 82.19 108.49 C70.3 108.76, 57.39 105.24, 47.07 101.68 C36.75 98.12, 27.45 92.76, 20.25 87.13 C13.05 81.49, 7.06 75.25, 3.87 67.87 C0.69 60.49, -0.79 50.73, 1.14 42.86 C3.07 35, 8.54 26.57, 15.45 20.67 C22.36 14.78, 32.32 10.98, 42.59 7.51 C52.87 4.04, 65.11 0.13, 77.12 -0.16 C89.13 -0.44, 108.89 5.1, 114.64 5.81 C120.38 6.52, 112.33 3.71, 111.59 4.11" stroke="#1e1e1e" stroke-width="2" fill="none"></path></g><g transform="translate(1910.373325740623 325.9182541825329) rotate(0 20.879974365234375 12.5)"><text x="20.879974365234375" y="17.52" font-family="Virgil, Segoe UI Emoji" font-size="20px" fill="#1e1e1e" text-anchor="middle" style="white-space: pre;" direction="ltr" dominant-baseline="alphabetic">user</text></g><g stroke-linecap="round"><g transform="translate(1927.6357108998175 406.4197365518937) rotate(0 -12.326012788260755 110.15441809233403)"><path d="M-0.7 -0.28 C-5.12 36.36, -21.68 183.62, -25.78 220.84 M1.13 -1.47 C-2.95 35.79, -18.9 184.66, -23.45 221.78" stroke="#1e1e1e" stroke-width="2" fill="none"></path></g><g transform="translate(1927.6357108998175 406.4197365518937) rotate(0 -12.326012788260755 110.15441809233403)"><path d="M-29.29 197.47 C-27.45 205.01, -26.8 214.54, -23.45 221.78 M-29.29 197.47 C-26.29 207.12, -25.05 215.37, -23.45 221.78" stroke="#1e1e1e" stroke-width="2" fill="none"></path></g><g transform="translate(1927.6357108998175 406.4197365518937) rotate(0 -12.326012788260755 110.15441809233403)"><path d="M-12.3 199.4 C-16.56 206.15, -22 214.99, -23.45 221.78 M-12.3 199.4 C-15.87 208.36, -21.21 215.87, -23.45 221.78" stroke="#1e1e1e" stroke-width="2" fill="none"></path></g></g><mask></mask><g stroke-linecap="round"><g transform="translate(1947.3275403974596 954.2106298499422) rotate(0 291.1473981733868 116.59142746957454)"><path d="M0.7 -0.96 C97.77 37.99, 485.93 193.87, 582.69 232.64 M-0.39 1.15 C96.57 40.39, 485.44 195.59, 582.2 234.14" stroke="#1e1e1e" stroke-width="2" fill="none"></path></g><g transform="translate(1947.3275403974596 954.2106298499422) rotate(0 291.1473981733868 116.59142746957454)"><path d="M557.22 233.38 C563.67 234.95, 573.19 232.82, 582.2 234.14 M557.22 233.38 C562.4 234.15, 567.16 233.44, 582.2 234.14" stroke="#1e1e1e" stroke-width="2" fill="none"></path></g><g transform="translate(1947.3275403974596 954.2106298499422) rotate(0 291.1473981733868 116.59142746957454)"><path d="M563.55 217.49 C567.82 224.22, 575.3 227.21, 582.2 234.14 M563.55 217.49 C567.5 221.73, 570.9 224.44, 582.2 234.14" stroke="#1e1e1e" stroke-width="2" fill="none"></path></g></g><mask></mask><g stroke-linecap="round" transform="translate(3402.9003632932663 1358.4995015261777) rotate(0 102.30633872479939 66.78105346717288)"><path d="M55.32 7.08 C66.26 2.41, 82.54 0.36, 96.63 -0.06 C110.71 -0.48, 126.82 1.27, 139.83 4.56 C152.84 7.84, 165.2 13.18, 174.71 19.66 C184.22 26.14, 192.09 35.07, 196.89 43.43 C201.69 51.78, 204.06 60.7, 203.52 69.78 C202.99 78.87, 199.74 89.73, 193.68 97.95 C187.63 106.16, 178.14 113.42, 167.18 119.09 C156.22 124.76, 141.49 129.58, 127.91 131.98 C114.33 134.38, 99.22 134.85, 85.71 133.48 C72.2 132.1, 58.22 128.97, 46.85 123.75 C35.48 118.53, 24.94 109.81, 17.47 102.15 C10 94.5, 4.43 86.7, 2.01 77.81 C-0.4 68.91, -0.37 57.72, 3 48.8 C6.36 39.88, 12.19 31.56, 22.2 24.31 C32.2 17.06, 54.78 8.62, 63.02 5.29 C71.26 1.97, 70.79 3.33, 71.63 4.34 M132.7 3.38 C145.43 4.55, 159.12 9.54, 169.46 15.46 C179.79 21.37, 188.75 30.23, 194.73 38.85 C200.7 47.47, 204.96 58.15, 205.31 67.19 C205.66 76.23, 202.5 84.96, 196.82 93.07 C191.13 101.18, 181.29 109.7, 171.19 115.83 C161.1 121.96, 149.59 127.12, 136.26 129.85 C122.93 132.59, 105.2 132.93, 91.21 132.22 C77.21 131.52, 64.19 129.76, 52.3 125.64 C40.41 121.52, 27.94 114.92, 19.86 107.5 C11.79 100.07, 6.63 90.17, 3.83 81.11 C1.03 72.05, 0.44 61.77, 3.06 53.16 C5.69 44.54, 11.62 36.79, 19.58 29.41 C27.54 22.03, 39.1 13.69, 50.83 8.88 C62.55 4.07, 76.08 1.57, 89.93 0.56 C103.77 -0.45, 126.9 2.04, 133.9 2.82 C140.9 3.61, 132.79 4.06, 131.95 5.27" stroke="#1e1e1e" stroke-width="2" fill="none"></path></g><g transform="translate(3464.664932170341 1397.8931542499818) rotate(0 40.70026397705078 27.16606498194946)"><text x="40.70026397705078" y="19.037978339350182" font-family="Virgil, Segoe UI Emoji" font-size="21.73285198555957px" fill="#1e1e1e" text-anchor="middle" style="white-space: pre;" direction="ltr" dominant-baseline="alphabetic">Kafka </text><text x="40.70026397705078" y="46.20404332129964" font-family="Virgil, Segoe UI Emoji" font-size="21.73285198555957px" fill="#1e1e1e" text-anchor="middle" style="white-space: pre;" direction="ltr" dominant-baseline="alphabetic">Connect</text></g><g stroke-linecap="round"><g transform="translate(3473.63698144653 1489.8191086302377) rotate(0 -9.436624261189081 51.490341162517836)"><path d="M-0.12 -0.35 C-3.39 16.69, -15.89 85.71, -18.75 103.08 M-1.64 -1.57 C-4.59 15.58, -13.7 87.3, -16.36 104.55" stroke="#1e1e1e" stroke-width="2" fill="none"></path></g><g transform="translate(3473.63698144653 1489.8191086302377) rotate(0 -9.436624261189081 51.490341162517836)"><path d="M-21.59 80.11 C-20.03 88.25, -17.71 99.82, -16.36 104.55 M-21.59 80.11 C-19.32 89.2, -17.05 98.28, -16.36 104.55" stroke="#1e1e1e" stroke-width="2" fill="none"></path></g><g transform="translate(3473.63698144653 1489.8191086302377) rotate(0 -9.436624261189081 51.490341162517836)"><path d="M-4.66 82.46 C-9.45 89.7, -13.47 100.39, -16.36 104.55 M-4.66 82.46 C-8.42 90.65, -12.21 98.89, -16.36 104.55" stroke="#1e1e1e" stroke-width="2" fill="none"></path></g></g><mask></mask><g stroke-linecap="round" transform="translate(2834.4658210032435 1114.654264153628) rotate(0 156.63955282215443 169.17071704792664)"><path d="M32 0 C117.62 1.96, 195.32 0.88, 281.28 0 C299.72 1.08, 312.98 8.19, 313.28 32 C317.79 139.82, 314.86 248.2, 313.28 306.34 C315.6 331.14, 302.42 340.05, 281.28 338.34 C204.46 337.74, 121.16 337.31, 32 338.34 C12.19 341.55, 3.54 327.2, 0 306.34 C-4.31 232.8, -3.64 152.08, 0 32 C-0.58 11.05, 10.71 -2.27, 32 0" stroke="none" stroke-width="0" fill="#eebefa"></path><path d="M32 0 C119.31 0.31, 209.69 2.98, 281.28 0 M32 0 C92.32 1.07, 154.09 2.21, 281.28 0 M281.28 0 C302.95 0.14, 314.2 9.57, 313.28 32 M281.28 0 C302.42 -0.09, 315.41 12.86, 313.28 32 M313.28 32 C311.1 104.11, 310.06 179.02, 313.28 306.34 M313.28 32 C312.11 126.26, 312.25 221.09, 313.28 306.34 M313.28 306.34 C311.29 328.86, 302.71 338.98, 281.28 338.34 M313.28 306.34 C311.98 326.07, 303.48 336.28, 281.28 338.34 M281.28 338.34 C206.1 336.5, 126.48 336.83, 32 338.34 M281.28 338.34 C225.93 338.4, 171.52 337.28, 32 338.34 M32 338.34 C11.69 336.8, -0.46 326.93, 0 306.34 M32 338.34 C11.72 336.46, -0.03 329.42, 0 306.34 M0 306.34 C-1.05 250.01, 0.87 197.28, 0 32 M0 306.34 C-1.48 198.02, -0.74 88.49, 0 32 M0 32 C-1.94 10.26, 8.96 -0.2, 32 0 M0 32 C0.32 10.38, 10.75 -0.04, 32 0" stroke="#1e1e1e" stroke-width="2" fill="none"></path></g><g stroke-linecap="round" transform="translate(2870.161882755102 1128.324708336025) rotate(0 121.5765753751914 23.98010402246112)"><path d="M11.99 0 C68.49 5.18, 121.35 -0.94, 231.16 0 C240.36 -3.2, 243.76 2.64, 243.15 11.99 C246.65 16.95, 245.52 21.5, 243.15 35.97 C240.2 45.44, 236.51 45.49, 231.16 47.96 C159.82 47.22, 90.21 43.12, 11.99 47.96 C7.29 48.91, 1.23 42.08, 0 35.97 C-0.89 31.15, -2.19 25.34, 0 11.99 C-3.06 5.55, 3.11 -1.51, 11.99 0" stroke="none" stroke-width="0" fill="#eebefa"></path><path d="M11.99 0 C63.39 -2.57, 113.54 -0.78, 231.16 0 M11.99 0 C97.07 1, 182.48 -0.06, 231.16 0 M231.16 0 C240.76 -0.25, 241.22 3.67, 243.15 11.99 M231.16 0 C239.4 0.03, 241.7 3.45, 243.15 11.99 M243.15 11.99 C244.64 20.08, 241.49 25.44, 243.15 35.97 M243.15 11.99 C242.94 17.88, 242.9 25.95, 243.15 35.97 M243.15 35.97 C241.28 42.63, 240.88 46.02, 231.16 47.96 M243.15 35.97 C245.08 44.22, 239.17 45.69, 231.16 47.96 M231.16 47.96 C179.16 47.22, 127.81 48.34, 11.99 47.96 M231.16 47.96 C171.54 46.57, 111.33 46.72, 11.99 47.96 M11.99 47.96 C2.9 46.18, 0.34 43.31, 0 35.97 M11.99 47.96 C2.44 46.68, -0.67 42.4, 0 35.97 M0 35.97 C-1.07 31.51, -1.89 26.6, 0 11.99 M0 35.97 C0.5 30.14, 0.75 22.15, 0 11.99 M0 11.99 C-0.67 2.21, 2.17 -1.82, 11.99 0 M0 11.99 C0.39 2.21, 5.33 -1.7, 11.99 0" stroke="#1e1e1e" stroke-width="2" fill="none"></path></g><g transform="translate(2952.5485014652545 1139.804812358486) rotate(0 39.18995666503906 12.5)"><text x="39.18995666503906" y="17.52" font-family="Virgil, Segoe UI Emoji" font-size="20px" fill="#1e1e1e" text-anchor="middle" style="white-space: pre;" direction="ltr" dominant-baseline="alphabetic">Services</text></g><g stroke-linecap="round" transform="translate(2916.349214008666 1203.009326184507) rotate(0 68.76075075867425 38.04870230532043)"><path d="M19.02 0 C37.53 -1.13, 61.58 -2.22, 118.5 0 M19.02 0 C46.29 -0.74, 72.56 0.1, 118.5 0 M118.5 0 C129.77 -0.22, 137.38 5.28, 137.52 19.02 M118.5 0 C131.62 -1.54, 135.32 8.45, 137.52 19.02 M137.52 19.02 C136.88 33.19, 138.29 49.7, 137.52 57.07 M137.52 19.02 C138.8 30.38, 137.73 43.9, 137.52 57.07 M137.52 57.07 C137.98 69.4, 132.92 74.6, 118.5 76.1 M137.52 57.07 C139.35 67.56, 131.04 78.22, 118.5 76.1 M118.5 76.1 C97.49 76.17, 79.18 75.58, 19.02 76.1 M118.5 76.1 C88.54 75.13, 58.78 75.43, 19.02 76.1 M19.02 76.1 C6.11 76.04, -1.95 70.39, 0 57.07 M19.02 76.1 C4.38 76.45, 0.53 69.48, 0 57.07 M0 57.07 C1.07 46.58, -0.05 41.28, 0 19.02 M0 57.07 C1.09 42.01, 0.46 28.06, 0 19.02 M0 19.02 C-0.41 7.88, 5.16 -0.05, 19.02 0 M0 19.02 C1.73 7.09, 6.25 0.69, 19.02 0" stroke="#1e1e1e" stroke-width="2" fill="none"></path></g><g transform="translate(2936.2500099333556 1216.0580284898274) rotate(0 48.859954833984375 25)"><text x="48.859954833984375" y="17.52" font-family="Virgil, Segoe UI Emoji" font-size="20px" fill="#1e1e1e" text-anchor="middle" style="white-space: pre;" direction="ltr" dominant-baseline="alphabetic">Consumer </text><text x="48.859954833984375" y="42.519999999999996" font-family="Virgil, Segoe UI Emoji" font-size="20px" fill="#1e1e1e" text-anchor="middle" style="white-space: pre;" direction="ltr" dominant-baseline="alphabetic">loop</text></g><g stroke-linecap="round" transform="translate(3231.1007986425857 1087.8911049191402) rotate(0 87.3054378599088 48.58737411334056)"><path d="M102.41 0.13 C114.66 0.58, 128.94 4.97, 139.32 9.26 C149.71 13.54, 158.87 19.52, 164.74 25.82 C170.6 32.13, 173.88 39.99, 174.5 47.1 C175.12 54.21, 173.3 62.31, 168.47 68.51 C163.64 74.71, 155.1 79.85, 145.52 84.3 C135.95 88.75, 123.19 93.09, 111.02 95.22 C98.85 97.34, 85 98.27, 72.5 97.04 C60.01 95.82, 46.23 92.05, 36.04 87.85 C25.85 83.65, 17.35 78.16, 11.36 71.84 C5.36 65.53, 0.74 57.09, 0.08 49.93 C-0.59 42.77, 2.52 35.31, 7.39 28.89 C12.26 22.47, 19.94 16.03, 29.29 11.39 C38.65 6.75, 50.62 2.77, 63.52 1.04 C76.42 -0.69, 98.58 0.77, 106.69 1.03 C114.8 1.29, 112.29 1.87, 112.2 2.6 M73 0.78 C84.57 -1.4, 98.95 -0.74, 110.81 1.39 C122.67 3.53, 134.47 8.74, 144.16 13.57 C153.86 18.4, 164.12 24.28, 169 30.38 C173.87 36.47, 174.02 43.44, 173.4 50.13 C172.78 56.83, 171.2 64.32, 165.28 70.57 C159.35 76.82, 148.39 83.44, 137.85 87.66 C127.32 91.89, 114.57 94.53, 102.05 95.93 C89.52 97.32, 74.89 97.75, 62.71 96.04 C50.53 94.32, 38.1 90.6, 28.99 85.64 C19.89 80.68, 12.81 72.98, 8.08 66.3 C3.35 59.62, 0.29 52.4, 0.64 45.56 C0.99 38.72, 4.19 31.33, 10.17 25.26 C16.16 19.2, 26.3 13.35, 36.55 9.16 C46.8 4.97, 65.47 1.35, 71.66 0.13 C77.85 -1.1, 73.48 1.1, 73.71 1.81" stroke="#1e1e1e" stroke-width="2" fill="none"></path></g><g transform="translate(3290.41199773864 1124.1220173168897) rotate(0 27.759971618652344 12.5)"><text x="27.759971618652344" y="17.52" font-family="Virgil, Segoe UI Emoji" font-size="20px" fill="#1e1e1e" text-anchor="middle" style="white-space: pre;" direction="ltr" dominant-baseline="alphabetic">queue</text></g><g mask="url(#mask-gdV3QWYJBX_-IFQ7VARIT)" stroke-linecap="round"><g transform="translate(2702.7131051600063 1188.102564027905) rotate(0 258.6886235059227 -62.67769622692475)"><path d="M0.92 -0.68 C38.35 -21.73, 138.73 -116.53, 224.81 -126 C310.9 -135.48, 468.63 -69.11, 517.43 -57.53 M-0.05 1.57 C37.2 -19.3, 137.81 -114.76, 223.91 -124.46 C310.01 -134.15, 467.57 -68.16, 516.56 -56.63" stroke="#1e1e1e" stroke-width="2" fill="none"></path></g><g transform="translate(2702.7131051600063 1188.102564027905) rotate(0 258.6886235059227 -62.67769622692475)"><path d="M491.58 -55.52 C498.43 -55.91, 507.6 -56.76, 516.56 -56.63 M491.58 -55.52 C497.99 -55.35, 503.87 -56.24, 516.56 -56.63" stroke="#1e1e1e" stroke-width="2" fill="none"></path></g><g transform="translate(2702.7131051600063 1188.102564027905) rotate(0 258.6886235059227 -62.67769622692475)"><path d="M496.72 -71.83 C501.96 -66.96, 509.49 -62.6, 516.56 -56.63 M496.72 -71.83 C501.92 -67.83, 506.59 -64.9, 516.56 -56.63" stroke="#1e1e1e" stroke-width="2" fill="none"></path></g></g><mask id="mask-gdV3QWYJBX_-IFQ7VARIT"><rect x="0" y="0" fill="#fff" width="3320.34964819417" height="1414.126065634382"></rect><rect x="2883.6897583468044" y="1049.5790624214278" fill="#000" width="87.47990417480469" height="25" opacity="1"></rect></mask><g transform="translate(2883.6897583468044 1049.5790624214278) rotate(0 77.71197031912482 75.8458053795523)"><text x="43.739952087402344" y="17.52" font-family="Virgil, Segoe UI Emoji" font-size="20px" fill="#1e1e1e" text-anchor="middle" style="white-space: pre;" direction="ltr" dominant-baseline="alphabetic">Produces</text></g><g mask="url(#mask-7XvJYmLpfIduneA2AcIZx)" stroke-linecap="round"><g transform="translate(3299.7804721536972 1191.1392749099887) rotate(0 43.63134903538912 204.04893466775755)"><path d="M-0.54 -0.28 C3.77 37.09, 11.07 154.77, 25.79 223.08 C40.52 291.39, 77.51 378.81, 87.8 409.57 M1.37 -1.48 C5.6 35.62, 10.97 152.84, 25.21 221.06 C39.45 289.28, 76.42 376.6, 86.79 407.83" stroke="#1e1e1e" stroke-width="2" fill="none"></path></g><g transform="translate(3299.7804721536972 1191.1392749099887) rotate(0 43.63134903538912 204.04893466775755)"><path d="M70.65 388.74 C74.73 395.59, 80.27 399.26, 86.79 407.83 M70.65 388.74 C77.67 397.28, 82.66 403.65, 86.79 407.83" stroke="#1e1e1e" stroke-width="2" fill="none"></path></g><g transform="translate(3299.7804721536972 1191.1392749099887) rotate(0 43.63134903538912 204.04893466775755)"><path d="M86.7 382.83 C86.01 391.34, 86.83 396.75, 86.79 407.83 M86.7 382.83 C87.35 393.6, 86 402.31, 86.79 407.83" stroke="#1e1e1e" stroke-width="2" fill="none"></path></g></g><mask id="mask-7XvJYmLpfIduneA2AcIZx"><rect x="0" y="0" fill="#fff" width="3488.0506642814453" height="1699.5768885502575"></rect><rect x="3297.5347683880213" y="1401.5290228578538" fill="#000" width="54.67994689941406" height="25" opacity="1"></rect></mask><g transform="translate(3297.534768388021 1401.529022857854) rotate(0 45.87705280106502 -6.3408132801075965)"><text x="27.33997344970703" y="17.52" font-family="Virgil, Segoe UI Emoji" font-size="20px" fill="#1e1e1e" text-anchor="middle" style="white-space: pre;" direction="ltr" dominant-baseline="alphabetic">Sends</text></g><g mask="url(#mask-MnIGNNRbGAaEj35yzz55J)" stroke-linecap="round"><g transform="translate(3058.42578184914 1264.7519102268689) rotate(0 120.2150185406158 -34.90668608674051)"><path d="M0.91 -0.73 C33.07 -2.7, 152.45 0.82, 192.38 -10.94 C232.31 -22.7, 232.73 -61.38, 240.5 -71.31 M-0.07 1.5 C32.07 -0.35, 151.89 2.57, 191.95 -9.41 C232 -21.39, 232.43 -60.38, 240.26 -70.38" stroke="#1e1e1e" stroke-width="2" fill="none"></path></g><g transform="translate(3058.42578184914 1264.7519102268689) rotate(0 120.2150185406158 -34.90668608674051)"><path d="M239.21 -45.41 C238.07 -50.04, 239.53 -56.26, 240.26 -70.38 M239.21 -45.41 C239.81 -50.77, 240.11 -57.6, 240.26 -70.38" stroke="#1e1e1e" stroke-width="2" fill="none"></path></g><g transform="translate(3058.42578184914 1264.7519102268689) rotate(0 120.2150185406158 -34.90668608674051)"><path d="M223.4 -51.93 C226.27 -55.05, 231.71 -59.63, 240.26 -70.38 M223.4 -51.93 C227.74 -55.75, 231.82 -61.01, 240.26 -70.38" stroke="#1e1e1e" stroke-width="2" fill="none"></path></g></g><mask id="mask-MnIGNNRbGAaEj35yzz55J"><rect x="0" y="0" fill="#fff" width="3397.9084380484287" height="1435.3278346616653"></rect><rect x="3204.8279222105425" y="1241.3224130673427" fill="#000" width="89.97990417480469" height="25" opacity="1"></rect></mask><g transform="translate(3204.827922210542 1241.3224130673427) rotate(0 -26.18712182078616 -11.477188927214428)"><text x="44.989952087402344" y="17.52" font-family="Virgil, Segoe UI Emoji" font-size="20px" fill="#1e1e1e" text-anchor="middle" style="white-space: pre;" direction="ltr" dominant-baseline="alphabetic">Consumes</text></g><g stroke-linecap="round"><g transform="translate(2724.134948127201 1588.520110720604) rotate(0 335.7322283204969 -65.29069824297886)"><path d="M-0.49 0.11 C111.17 -21.6, 557.9 -109.06, 669.87 -130.69 M1.45 -0.88 C113.47 -22.38, 560.41 -107.5, 671.96 -129.29" stroke="#1e1e1e" stroke-width="2" fill="none"></path></g><g transform="translate(2724.134948127201 1588.520110720604) rotate(0 335.7322283204969 -65.29069824297886)"><path d="M650.5 -116.45 C657 -122.11, 662.67 -123.42, 671.96 -129.29 M650.5 -116.45 C657.43 -121.47, 665.82 -126.14, 671.96 -129.29" stroke="#1e1e1e" stroke-width="2" fill="none"></path></g><g transform="translate(2724.134948127201 1588.520110720604) rotate(0 335.7322283204969 -65.29069824297886)"><path d="M647.27 -133.24 C654.66 -133.97, 661.27 -130.37, 671.96 -129.29 M647.27 -133.24 C655.36 -132.2, 664.92 -130.79, 671.96 -129.29" stroke="#1e1e1e" stroke-width="2" fill="none"></path></g></g><mask></mask><g stroke-linecap="round"><g transform="translate(3287.5481160017234 1609.4258892939538) rotate(0 -281.63197528756587 -8.60068565305943)"><path d="M0.94 -0.24 C-92.92 -3.25, -469.54 -14.41, -563.82 -16.96 M-0.03 -1.41 C-93.89 -3.79, -469.97 -13.19, -564.2 -15.89" stroke="#1e1e1e" stroke-width="2" fill="none"></path></g><g transform="translate(3287.5481160017234 1609.4258892939538) rotate(0 -281.63197528756587 -8.60068565305943)"><path d="M-540.49 -23.81 C-546.56 -19.91, -553.37 -19.5, -564.2 -15.89 M-540.49 -23.81 C-549.07 -21.14, -557.14 -17.56, -564.2 -15.89" stroke="#1e1e1e" stroke-width="2" fill="none"></path></g><g transform="translate(3287.5481160017234 1609.4258892939538) rotate(0 -281.63197528756587 -8.60068565305943)"><path d="M-540.94 -6.71 C-547.07 -6.97, -553.77 -10.69, -564.2 -15.89 M-540.94 -6.71 C-549.23 -9.95, -557.14 -12.28, -564.2 -15.89" stroke="#1e1e1e" stroke-width="2" fill="none"></path></g></g><mask></mask><g transform="translate(3043.520685749229 1767.8517102023184) rotate(0 116.9098892211914 37.5)"><text x="0" y="17.52" font-family="Virgil, Segoe UI Emoji" font-size="20px" fill="#1e1e1e" text-anchor="start" style="white-space: pre;" direction="ltr" dominant-baseline="alphabetic">Trainer retrieves queue</text><text x="0" y="42.519999999999996" font-family="Virgil, Segoe UI Emoji" font-size="20px" fill="#1e1e1e" text-anchor="start" style="white-space: pre;" direction="ltr" dominant-baseline="alphabetic">from DB </text><text x="0" y="67.52" font-family="Virgil, Segoe UI Emoji" font-size="20px" fill="#1e1e1e" text-anchor="start" style="white-space: pre;" direction="ltr" dominant-baseline="alphabetic">through Kafka Connect</text></g><g stroke-linecap="round" transform="translate(2578.4134872030727 1553.6420497077422) rotate(0 68.71592983210542 60)"><path d="M69.61 0.61 C79.76 -0.36, 92.42 2.09, 101.67 6.19 C110.93 10.29, 119.24 17.43, 125.12 25.21 C131.01 32.99, 135.82 43.5, 136.99 52.86 C138.17 62.21, 136.03 72.66, 132.18 81.35 C128.32 90.04, 121.86 98.83, 113.86 105.01 C105.86 111.19, 94.32 116.37, 84.19 118.42 C74.05 120.47, 63.18 119.39, 53.08 117.3 C42.98 115.21, 31.76 112.01, 23.58 105.89 C15.4 99.76, 7.73 89.57, 3.99 80.57 C0.25 71.56, -0.08 60.82, 1.13 51.85 C2.34 42.89, 5.33 34.41, 11.25 26.79 C17.17 19.17, 25.67 10.41, 36.65 6.11 C47.63 1.81, 68.79 1.6, 77.12 1.01 C85.46 0.41, 86.73 1.55, 86.68 2.54 M65.57 -0.39 C75.96 -1.89, 89.58 1.66, 99.09 5.8 C108.61 9.94, 116.24 17.2, 122.67 24.46 C129.09 31.72, 135.64 40.11, 137.64 49.36 C139.64 58.61, 138.21 70.75, 134.7 79.96 C131.18 89.17, 124.28 98.22, 116.54 104.59 C108.79 110.97, 98.61 116.07, 88.23 118.2 C77.85 120.34, 64.71 119.52, 54.26 117.39 C43.81 115.26, 33.47 111.15, 25.54 105.45 C17.61 99.75, 10.95 91.5, 6.66 83.19 C2.37 74.87, -0.86 64.88, -0.18 55.55 C0.5 46.22, 5.23 35.08, 10.75 27.19 C16.27 19.31, 23.54 12.67, 32.94 8.25 C42.34 3.82, 61.65 2.04, 67.16 0.66 C72.67 -0.73, 66.03 -0.8, 65.99 -0.06" stroke="#1e1e1e" stroke-width="2" fill="none"></path></g><g transform="translate(2608.9599610206697 1588.7156428365493) rotate(0 38.0799560546875 25)"><text x="38.0799560546875" y="17.52" font-family="Virgil, Segoe UI Emoji" font-size="20px" fill="#1e1e1e" text-anchor="middle" style="white-space: pre;" direction="ltr" dominant-baseline="alphabetic">retrieve</text><text x="38.0799560546875" y="42.519999999999996" font-family="Virgil, Segoe UI Emoji" font-size="20px" fill="#1e1e1e" text-anchor="middle" style="white-space: pre;" direction="ltr" dominant-baseline="alphabetic">_queue</text></g><g stroke-linecap="round" transform="translate(2465.4398398519834 1698.0619700328452) rotate(0 52.992793345098335 40.18134880012951)"><path d="M56.53 0.22 C65.51 0.05, 75.3 2.7, 82.92 6.84 C90.54 10.98, 98.41 18.12, 102.25 25.06 C106.08 32, 107.66 41.16, 105.94 48.47 C104.21 55.79, 98.61 63.77, 91.88 68.93 C85.14 74.1, 74.77 77.96, 65.5 79.45 C56.23 80.93, 45.21 80.32, 36.27 77.86 C27.34 75.39, 17.75 70.22, 11.9 64.66 C6.05 59.1, 2.09 51.69, 1.17 44.51 C0.26 37.34, 2.25 28.16, 6.39 21.59 C10.53 15.03, 16.53 8.65, 26.04 5.12 C35.56 1.59, 56.06 0.76, 63.47 0.4 C70.87 0.05, 70.66 2.41, 70.45 2.99 M49.52 1.61 C58.27 0.39, 68.64 0.76, 76.79 4.13 C84.94 7.49, 93.49 15.2, 98.41 21.81 C103.32 28.43, 106.87 36.66, 106.27 43.82 C105.67 50.98, 100.32 59.36, 94.79 64.77 C89.25 70.17, 81.55 73.58, 73.06 76.24 C64.56 78.9, 53.4 81.73, 43.81 80.72 C34.22 79.71, 22.76 75.29, 15.52 70.2 C8.28 65.11, 2.61 57.23, 0.38 50.17 C-1.84 43.11, -1.39 35.06, 2.15 27.83 C5.7 20.6, 14.1 11.25, 21.64 6.81 C29.18 2.38, 43.11 2.39, 47.38 1.22 C51.64 0.04, 47.07 -0.8, 47.22 -0.23" stroke="#1e1e1e" stroke-width="2" fill="none"></path></g><g transform="translate(2494.981089199995 1725.8308146191812) rotate(0 23.47998046875 12.5)"><text x="23.47998046875" y="17.52" font-family="Virgil, Segoe UI Emoji" font-size="20px" fill="#1e1e1e" text-anchor="middle" style="white-space: pre;" direction="ltr" dominant-baseline="alphabetic">train</text></g><g stroke-linecap="round" transform="translate(2605.201053069825 1776.0953140794738) rotate(0 50.66343979146768 60)"><path d="M63.2 0.86 C70.94 2.05, 78.39 9.56, 84.51 16.43 C90.63 23.3, 97.28 32.46, 99.92 42.09 C102.56 51.73, 102.48 64.37, 100.35 74.24 C98.22 84.11, 93.04 94.23, 87.13 101.31 C81.22 108.39, 72.99 113.86, 64.88 116.7 C56.77 119.54, 46.57 120.71, 38.46 118.36 C30.35 116.02, 22.3 109.37, 16.21 102.64 C10.12 95.92, 4.3 87.34, 1.93 77.99 C-0.43 68.65, -0.04 56.57, 2.04 46.57 C4.13 36.56, 8.9 25.45, 14.45 17.98 C20 10.51, 26.15 4.09, 35.34 1.74 C44.54 -0.6, 62.82 2.63, 69.63 3.9 C76.43 5.16, 76.28 8.27, 76.17 9.32 M26.94 8.21 C33.74 2.94, 43.93 0.43, 52.52 0.38 C61.1 0.33, 71.15 2.52, 78.46 7.9 C85.77 13.27, 92.37 23.51, 96.38 32.65 C100.39 41.78, 102.91 52.86, 102.5 62.73 C102.09 72.59, 98.58 83.34, 93.91 91.85 C89.24 100.36, 81.91 108.88, 74.49 113.77 C67.06 118.66, 57.94 121.55, 49.36 121.18 C40.78 120.81, 29.99 117.19, 22.99 111.54 C15.99 105.89, 11.42 95.95, 7.35 87.28 C3.28 78.62, -1.32 69.38, -1.43 59.52 C-1.54 49.66, 1.84 36.74, 6.69 28.13 C11.53 19.52, 24.45 11.35, 27.64 7.85 C30.82 4.35, 25.43 6.54, 25.78 7.13" stroke="#1e1e1e" stroke-width="2" fill="none"></path></g><g transform="translate(2626.6400676476032 1798.6689072082809) rotate(0 29.39996337890625 37.5)"><text x="29.39996337890625" y="17.52" font-family="Virgil, Segoe UI Emoji" font-size="20px" fill="#1e1e1e" text-anchor="middle" style="white-space: pre;" direction="ltr" dominant-baseline="alphabetic">store</text><text x="29.39996337890625" y="42.519999999999996" font-family="Virgil, Segoe UI Emoji" font-size="20px" fill="#1e1e1e" text-anchor="middle" style="white-space: pre;" direction="ltr" dominant-baseline="alphabetic">perfor</text><text x="29.39996337890625" y="67.52" font-family="Virgil, Segoe UI Emoji" font-size="20px" fill="#1e1e1e" text-anchor="middle" style="white-space: pre;" direction="ltr" dominant-baseline="alphabetic">mance</text></g><g stroke-linecap="round" transform="translate(2701.8692255454985 1679.4271416038) rotate(0 71.62762177414402 60)"><path d="M46.95 3.71 C56.52 -0.08, 70.94 0.18, 81.86 1.35 C92.78 2.51, 103.6 5.46, 112.46 10.69 C121.32 15.91, 129.96 24.32, 135.04 32.69 C140.11 41.06, 143.05 51.61, 142.93 60.92 C142.81 70.23, 139.42 80.26, 134.32 88.56 C129.22 96.86, 121.51 105.52, 112.33 110.7 C103.14 115.89, 90.46 118.96, 79.2 119.67 C67.93 120.37, 55.06 118.29, 44.75 114.94 C34.45 111.59, 24.52 106.6, 17.36 99.57 C10.2 92.54, 4.29 81.88, 1.81 72.77 C-0.67 63.67, -0.25 53.88, 2.48 44.93 C5.21 35.98, 9.16 26.42, 18.21 19.08 C27.26 11.75, 48.78 3.95, 56.8 0.91 C64.81 -2.13, 65.94 -0.28, 66.3 0.83 M73.04 -0.86 C84.02 -1.74, 98.6 2.37, 108.22 7.38 C117.85 12.39, 125.22 21.08, 130.79 29.21 C136.36 37.34, 140.67 47.1, 141.64 56.17 C142.62 65.24, 140.67 75.13, 136.64 83.64 C132.6 92.14, 126.04 101.52, 117.44 107.19 C108.84 112.85, 95.97 115.79, 85.04 117.61 C74.12 119.42, 62.39 120.46, 51.89 118.07 C41.4 115.68, 30.27 109.88, 22.09 103.26 C13.91 96.64, 6.57 86.94, 2.81 78.33 C-0.95 69.72, -2.22 60.44, -0.45 51.6 C1.31 42.76, 6.53 32.97, 13.38 25.29 C20.23 17.61, 30.39 9.91, 40.62 5.5 C50.85 1.08, 69.1 -0.46, 74.76 -1.2 C80.43 -1.94, 74.68 -0.29, 74.61 1.06" stroke="#1e1e1e" stroke-width="2" fill="none"></path></g><g transform="translate(2733.278516324423 1714.5007347326073) rotate(0 40.06995391845703 25)"><text x="40.06995391845703" y="17.52" font-family="Virgil, Segoe UI Emoji" font-size="20px" fill="#1e1e1e" text-anchor="middle" style="white-space: pre;" direction="ltr" dominant-baseline="alphabetic">serialize</text><text x="40.06995391845703" y="42.519999999999996" font-family="Virgil, Segoe UI Emoji" font-size="20px" fill="#1e1e1e" text-anchor="middle" style="white-space: pre;" direction="ltr" dominant-baseline="alphabetic">model</text></g><g stroke-linecap="round"><g transform="translate(2575.7398600203614 1610.8140063671444) rotate(0 -29.3355701704578 37.58484077363403)"><path d="M-0.31 -0.89 C-9.3 -0.32, -44.7 -9.84, -54.54 3.45 C-64.39 16.74, -58.69 66.38, -59.39 78.83 M1.73 1.26 C-7.27 2.04, -45.15 -7.58, -54.96 5.02 C-64.76 17.61, -56.46 64.46, -57.1 76.83" stroke="#1e1e1e" stroke-width="2" fill="none"></path></g><g transform="translate(2575.7398600203614 1610.8140063671444) rotate(0 -29.3355701704578 37.58484077363403)"><path d="M-67.03 53.89 C-66.03 61.34, -61.98 63.46, -57.1 76.83 M-67.03 53.89 C-64.43 62.56, -59.97 70.24, -57.1 76.83" stroke="#1e1e1e" stroke-width="2" fill="none"></path></g><g transform="translate(2575.7398600203614 1610.8140063671444) rotate(0 -29.3355701704578 37.58484077363403)"><path d="M-49.96 52.87 C-53.22 60.53, -53.43 62.9, -57.1 76.83 M-49.96 52.87 C-53.41 61.9, -55.01 69.94, -57.1 76.83" stroke="#1e1e1e" stroke-width="2" fill="none"></path></g></g><mask></mask><g stroke-linecap="round"><g transform="translate(2523.700759204729 1779.3819509396735) rotate(0 34.29356263416264 28.137272878249064)"><path d="M-0.55 0.63 C-0.42 9.03, -12.28 41.5, 0.16 50.66 C12.61 59.83, 61.76 55.05, 74.12 55.6 M1.37 -0.09 C1.91 7.91, -9.64 39.79, 2.36 48.74 C14.37 57.69, 61.36 52.66, 73.4 53.62" stroke="#1e1e1e" stroke-width="2" fill="none"></path></g><g transform="translate(2523.700759204729 1779.3819509396735) rotate(0 34.29356263416264 28.137272878249064)"><path d="M50.01 62.45 C56.94 58.71, 62.42 58.28, 73.4 53.62 M50.01 62.45 C59.15 58.94, 66.69 56.25, 73.4 53.62" stroke="#1e1e1e" stroke-width="2" fill="none"></path></g><g transform="translate(2523.700759204729 1779.3819509396735) rotate(0 34.29356263416264 28.137272878249064)"><path d="M49.82 45.35 C56.83 45.92, 62.36 49.8, 73.4 53.62 M49.82 45.35 C59.06 47.98, 66.68 51.42, 73.4 53.62" stroke="#1e1e1e" stroke-width="2" fill="none"></path></g></g><mask></mask><g stroke-linecap="round"><g transform="translate(2711.8811789183383 1839.5378874514577) rotate(0 31.059102346595864 -18.01883244041551)"><path d="M1.02 -0.47 C10.56 -0.98, 48.86 2.52, 58.16 -3.14 C67.46 -8.79, 57.03 -29.14, 56.82 -34.39 M0.1 -1.76 C9.36 -2.6, 47.61 0.96, 56.93 -4.78 C66.25 -10.52, 55.95 -30.84, 56 -36.17" stroke="#1e1e1e" stroke-width="2" fill="none"></path></g><g transform="translate(2711.8811789183383 1839.5378874514577) rotate(0 31.059102346595864 -18.01883244041551)"><path d="M64.7 -23.06 C60.81 -28.64, 59.33 -33.03, 56 -36.17 M64.7 -23.06 C61.17 -27.7, 57.16 -32.87, 56 -36.17" stroke="#1e1e1e" stroke-width="2" fill="none"></path></g><g transform="translate(2711.8811789183383 1839.5378874514577) rotate(0 31.059102346595864 -18.01883244041551)"><path d="M54.24 -20.54 C54.29 -27.16, 56.76 -32.5, 56 -36.17 M54.24 -20.54 C54.78 -26.23, 54.84 -32.38, 56 -36.17" stroke="#1e1e1e" stroke-width="2" fill="none"></path></g></g><mask></mask><g stroke-linecap="round"><g transform="translate(2785.5039222062733 1674.1619903096241) rotate(0 -28.9294105739923 -28.93711022341239)"><path d="M0.76 -1.17 C0.55 -10.05, 8.58 -42.54, -1.94 -52.13 C-12.46 -61.71, -52.07 -57.67, -62.38 -58.68 M-0.3 0.82 C-0.09 -7.37, 10.64 -40.96, 0.25 -50.76 C-10.14 -60.55, -51.96 -56.83, -62.63 -57.94" stroke="#1e1e1e" stroke-width="2" fill="none"></path></g><g transform="translate(2785.5039222062733 1674.1619903096241) rotate(0 -28.9294105739923 -28.93711022341239)"><path d="M-39.04 -66.21 C-46.68 -65.71, -51.01 -60.4, -62.63 -57.94 M-39.04 -66.21 C-44.12 -65.28, -48.16 -63.11, -62.63 -57.94" stroke="#1e1e1e" stroke-width="2" fill="none"></path></g><g transform="translate(2785.5039222062733 1674.1619903096241) rotate(0 -28.9294105739923 -28.93711022341239)"><path d="M-39.24 -49.11 C-46.99 -52.78, -51.28 -51.65, -62.63 -57.94 M-39.24 -49.11 C-44.22 -51.75, -48.21 -53.15, -62.63 -57.94" stroke="#1e1e1e" stroke-width="2" fill="none"></path></g></g><mask></mask><g stroke-linecap="round" transform="translate(2939.5268374941843 1649.3305506829163) rotate(0 46.004732684206374 19.799505205860896)"><path d="M9.9 0 C27.08 -1.55, 43.7 -0.31, 82.11 0 M9.9 0 C32.41 -0.07, 55.51 -0.59, 82.11 0 M82.11 0 C90.56 0.32, 92.25 3.41, 92.01 9.9 M82.11 0 C86.73 -1.03, 93.61 2.19, 92.01 9.9 M92.01 9.9 C93.93 12.68, 93.73 17.77, 92.01 29.7 M92.01 9.9 C92.82 15.7, 92.64 23.14, 92.01 29.7 M92.01 29.7 C93.3 35.56, 90.51 39, 82.11 39.6 M92.01 29.7 C92.34 35.56, 88.96 38.77, 82.11 39.6 M82.11 39.6 C63.14 40.99, 46.8 41.71, 9.9 39.6 M82.11 39.6 C63.8 40.24, 45.89 39.94, 9.9 39.6 M9.9 39.6 C2.18 39.05, -1.66 34.35, 0 29.7 M9.9 39.6 C2.77 39.36, -2.11 36.35, 0 29.7 M0 29.7 C1.49 24.79, 1.07 17.36, 0 9.9 M0 29.7 C0.16 23.96, 0.11 15.87, 0 9.9 M0 9.9 C-0.55 3.2, 4.07 -0.29, 9.9 0 M0 9.9 C-1.08 2.89, 1.52 1.31, 9.9 0" stroke="#1e1e1e" stroke-width="2" fill="none"></path></g><g transform="translate(2959.8715970338594 1656.6300558887772) rotate(0 25.65997314453125 12.5)"><text x="25.65997314453125" y="17.52" font-family="Virgil, Segoe UI Emoji" font-size="20px" fill="#1e1e1e" text-anchor="middle" style="white-space: pre;" direction="ltr" dominant-baseline="alphabetic">model</text></g><g stroke-linecap="round"><g transform="translate(2851.1910414778367 1739.1552741012827) rotate(0 67.28662860128611 -14.926302355427993)"><path d="M-0.32 0.04 C19.11 0.83, 94.62 12.27, 117.15 5.82 C139.69 -0.64, 131.68 -31.3, 134.89 -38.71 M1.72 -0.98 C20.94 0.5, 94.25 13.3, 116.29 7.23 C138.32 1.17, 131.05 -29.93, 133.94 -37.38" stroke="#1e1e1e" stroke-width="2" fill="none"></path></g><g transform="translate(2851.1910414778367 1739.1552741012827) rotate(0 67.28662860128611 -14.926302355427993)"><path d="M140.4 -14.09 C137.99 -22.03, 135.26 -31.07, 133.94 -37.38 M140.4 -14.09 C138.14 -21.3, 135.89 -27.23, 133.94 -37.38" stroke="#1e1e1e" stroke-width="2" fill="none"></path></g><g transform="translate(2851.1910414778367 1739.1552741012827) rotate(0 67.28662860128611 -14.926302355427993)"><path d="M123.92 -15.38 C127.31 -22.83, 130.38 -31.41, 133.94 -37.38 M123.92 -15.38 C126.64 -22.22, 129.35 -27.75, 133.94 -37.38" stroke="#1e1e1e" stroke-width="2" fill="none"></path></g></g><mask></mask><g stroke-linecap="round"><g transform="translate(2990.1174835962015 1641.2354323201987) rotate(0 -1.6807028937614632 -124.6465938171805)"><path d="M-0.31 -0.8 C-1.17 -42.6, -3.51 -208.98, -4.51 -250.68 M1.73 1.39 C0.72 -40.21, -4.14 -207.21, -5.09 -249.07" stroke="#1e1e1e" stroke-width="2" fill="none"></path></g><g transform="translate(2990.1174835962015 1641.2354323201987) rotate(0 -1.6807028937614632 -124.6465938171805)"><path d="M4.07 -225.81 C-0.55 -232.93, -2.21 -244.17, -5.09 -249.07 M4.07 -225.81 C2.27 -232.13, -1.32 -239.22, -5.09 -249.07" stroke="#1e1e1e" stroke-width="2" fill="none"></path></g><g transform="translate(2990.1174835962015 1641.2354323201987) rotate(0 -1.6807028937614632 -124.6465938171805)"><path d="M-13.02 -225.36 C-11.57 -232.6, -7.17 -243.99, -5.09 -249.07 M-13.02 -225.36 C-9.93 -231.86, -8.61 -239.08, -5.09 -249.07" stroke="#1e1e1e" stroke-width="2" fill="none"></path></g></g><mask></mask><g stroke-linecap="round" transform="translate(2919.622907933883 1297.0734357957685) rotate(0 68.76075075867425 38.04870230532043)"><path d="M19.02 0 C53.03 1.09, 88.81 -0.34, 118.5 0 M19.02 0 C43.84 -0.62, 69.61 -0.41, 118.5 0 M118.5 0 C131.44 1.67, 138.07 6.54, 137.52 19.02 M118.5 0 C129.13 -1.86, 137.09 5.18, 137.52 19.02 M137.52 19.02 C136.05 32.76, 135.92 48.35, 137.52 57.07 M137.52 19.02 C138.07 30.16, 138.18 40.09, 137.52 57.07 M137.52 57.07 C138.19 68.54, 130.7 77.96, 118.5 76.1 M137.52 57.07 C137.4 68.28, 131.8 73.96, 118.5 76.1 M118.5 76.1 C84.19 76.26, 45.83 76.26, 19.02 76.1 M118.5 76.1 C89.61 75.89, 59.91 76.5, 19.02 76.1 M19.02 76.1 C5.43 76.66, -0.21 68.05, 0 57.07 M19.02 76.1 C8.28 74.39, -2.14 70.77, 0 57.07 M0 57.07 C0.71 46.47, -0.25 35.07, 0 19.02 M0 57.07 C0.78 45.41, -0.04 31.94, 0 19.02 M0 19.02 C0.03 5.52, 5.62 0.95, 19.02 0 M0 19.02 C1.17 5.72, 7.96 0.05, 19.02 0" stroke="#1e1e1e" stroke-width="2" fill="none"></path></g><g transform="translate(2940.7737038585733 1310.1221381010891) rotate(0 47.609954833984375 25)"><text x="47.609954833984375" y="17.52" font-family="Virgil, Segoe UI Emoji" font-size="20px" fill="#1e1e1e" text-anchor="middle" style="white-space: pre;" direction="ltr" dominant-baseline="alphabetic">Producer </text><text x="47.609954833984375" y="42.519999999999996" font-family="Virgil, Segoe UI Emoji" font-size="20px" fill="#1e1e1e" text-anchor="middle" style="white-space: pre;" direction="ltr" dominant-baseline="alphabetic">loop</text></g><g stroke-linecap="round" transform="translate(3395.709021834421 1205.938042347359) rotate(0 73.16038075848996 42.5)"><path d="M83.86 -0.51 C94.67 -0.46, 107.23 3.2, 116.23 7.16 C125.23 11.11, 132.74 17.2, 137.88 23.23 C143.03 29.27, 147.31 36.75, 147.11 43.35 C146.9 49.95, 142.17 57.16, 136.63 62.84 C131.09 68.52, 123.09 73.75, 113.86 77.44 C104.64 81.12, 92.76 84.23, 81.28 84.95 C69.81 85.67, 55.56 84.28, 45.01 81.73 C34.45 79.18, 25.14 74.67, 17.93 69.66 C10.72 64.65, 4.35 57.99, 1.73 51.68 C-0.89 45.37, -0.55 38.11, 2.24 31.8 C5.02 25.49, 10.58 18.63, 18.43 13.82 C26.29 9.01, 36.85 4.94, 49.37 2.92 C61.88 0.9, 84.48 1.48, 93.52 1.72 C102.57 1.96, 103.95 3.65, 103.61 4.36 M92.97 1.72 C103.88 2.84, 115.13 8.15, 123.26 12.43 C131.4 16.7, 138.22 21.41, 141.77 27.37 C145.32 33.32, 146.09 41.3, 144.57 48.14 C143.04 54.98, 138.89 62.98, 132.62 68.4 C126.35 73.82, 117.31 77.97, 106.96 80.67 C96.6 83.38, 82.22 84.99, 70.47 84.62 C58.72 84.26, 46.32 81.5, 36.48 78.51 C26.64 75.52, 17.49 71.92, 11.42 66.66 C5.35 61.4, 0.86 53.67, 0.06 46.97 C-0.73 40.27, 2.28 32.45, 6.65 26.44 C11.02 20.43, 17.95 14.94, 26.28 10.93 C34.62 6.92, 45.84 4.08, 56.65 2.36 C67.46 0.65, 85.24 0.81, 91.12 0.64 C96.99 0.46, 92.08 0.42, 91.9 1.33" stroke="#1e1e1e" stroke-width="2" fill="none"></path></g><g transform="translate(3425.737237865487 1223.3860041469306) rotate(0 42.89996337890625 25)"><text x="42.89996337890625" y="17.52" font-family="Virgil, Segoe UI Emoji" font-size="20px" fill="#1e1e1e" text-anchor="middle" style="white-space: pre;" direction="ltr" dominant-baseline="alphabetic">trained_</text><text x="42.89996337890625" y="42.519999999999996" font-family="Virgil, Segoe UI Emoji" font-size="20px" fill="#1e1e1e" text-anchor="middle" style="white-space: pre;" direction="ltr" dominant-baseline="alphabetic">model</text></g><g mask="url(#mask--O_qINAlUkO7Q9VRLPrxn)" stroke-linecap="round"><g transform="translate(3066.1577571565376 1340.3949583359354) rotate(0 162.7899726905748 -30.256378331390323)"><path d="M0.61 0.14 C27.77 1.42, 109.86 19.04, 164.11 7.24 C218.36 -4.57, 299.15 -57.6, 326.11 -70.69 M-0.53 -0.84 C26.92 0.63, 112.12 20.41, 166.48 8.42 C220.84 -3.57, 298.98 -59.66, 325.61 -72.78" stroke="#1e1e1e" stroke-width="2" fill="none"></path></g><g transform="translate(3066.1577571565376 1340.3949583359354) rotate(0 162.7899726905748 -30.256378331390323)"><path d="M309.69 -53.5 C316.31 -62.33, 321.28 -68.02, 325.61 -72.78 M309.69 -53.5 C315.76 -60.61, 320.94 -67.63, 325.61 -72.78" stroke="#1e1e1e" stroke-width="2" fill="none"></path></g><g transform="translate(3066.1577571565376 1340.3949583359354) rotate(0 162.7899726905748 -30.256378331390323)"><path d="M301.03 -68.25 C311.03 -71.27, 319.43 -71.11, 325.61 -72.78 M301.03 -68.25 C310.09 -70.32, 318.22 -72.31, 325.61 -72.78" stroke="#1e1e1e" stroke-width="2" fill="none"></path></g></g><mask id="mask--O_qINAlUkO7Q9VRLPrxn"><rect x="0" y="0" fill="#fff" width="3491.7544066582864" height="1519.4872618586273"></rect><rect x="3187.1934374080765" y="1335.8041886882047" fill="#000" width="87.47990417480469" height="25" opacity="1"></rect></mask><g transform="translate(3187.1934374080765 1335.8041886882045) rotate(0 41.75429243903545 -25.665608683659542)"><text x="43.739952087402344" y="17.52" font-family="Virgil, Segoe UI Emoji" font-size="20px" fill="#1e1e1e" text-anchor="middle" style="white-space: pre;" direction="ltr" dominant-baseline="alphabetic">Produces</text></g><g stroke-linecap="round"><g transform="translate(3458.982864652575 1291.6213711636085) rotate(0 5.722606808190449 28.754287659078273)"><path d="M-0.6 0.19 C1.41 9.81, 9.91 47.25, 12.04 56.71 M1.29 -0.76 C3.15 9.16, 9.47 48.39, 11.19 58.27" stroke="#1e1e1e" stroke-width="2" fill="none"></path></g><g transform="translate(3458.982864652575 1291.6213711636085) rotate(0 5.722606808190449 28.754287659078273)"><path d="M-1.12 36.51 C2.7 43.38, 6.12 50.18, 11.19 58.27 M-1.12 36.51 C3.17 44.11, 7.22 51.67, 11.19 58.27" stroke="#1e1e1e" stroke-width="2" fill="none"></path></g><g transform="translate(3458.982864652575 1291.6213711636085) rotate(0 5.722606808190449 28.754287659078273)"><path d="M15.75 33.69 C14.49 41.32, 12.87 48.97, 11.19 58.27 M15.75 33.69 C14.53 42.06, 13.08 50.54, 11.19 58.27" stroke="#1e1e1e" stroke-width="2" fill="none"></path></g></g><mask></mask></svg>