<svg version="1.1" xmlns="http://www.w3.org/2000/svg" viewBox="0 0 1452.3745507021135 1189.3337201814068" width="1452.3745507021135" height="1189.3337201814068">
  <!-- svg-source:excalidraw -->
  
  <defs>
    <style class="style-fonts">
      @font-face {
        font-family: "Virgil";
        src: url("https://excalidraw.com/Virgil.woff2");
      }
      @font-face {
        font-family: "Cascadia";
        src: url("https://excalidraw.com/Cascadia.woff2");
      }
      @font-face {
        font-family: "Assistant";
        src: url("https://excalidraw.com/Assistant-Regular.woff2");
      }
    </style>
    
  </defs>
  <rect x="0" y="0" width="1452.3745507021135" height="1189.3337201814068" fill="#ffffff"></rect><g stroke-opacity="0.5" fill-opacity="0.5" stroke-linecap="round" transform="translate(207.22427259709957 10) rotate(0 617.575139052507 584.6668600907034)"><path d="M32 0 C353.92 7.74, 671.61 6.77, 1203.15 0 C1224.9 -0.81, 1232.25 12.77, 1235.15 32 C1238.78 360.08, 1239.25 688.2, 1235.15 1137.33 C1233.79 1155.21, 1227.17 1169.45, 1203.15 1169.33 C750.25 1171.19, 295.67 1171.24, 32 1169.33 C8.62 1171.42, 3.49 1157.05, 0 1137.33 C1.55 852.55, 1.62 570.21, 0 32 C-0.38 10.9, 12.96 -2.72, 32 0" stroke="none" stroke-width="0" fill="#99e9f2"></path><path d="M32 0 C282.99 0.58, 534.84 1.09, 1203.15 0 M32 0 C356.79 -1.17, 681.38 -1.67, 1203.15 0 M1203.15 0 C1224.59 -0.17, 1235.13 10.97, 1235.15 32 M1203.15 0 C1226.6 -1.48, 1234.12 9.01, 1235.15 32 M1235.15 32 C1236.72 423.21, 1236.23 815.28, 1235.15 1137.33 M1235.15 32 C1236.11 285.31, 1236.04 538.81, 1235.15 1137.33 M1235.15 1137.33 C1234.32 1157.3, 1225.07 1169.39, 1203.15 1169.33 M1235.15 1137.33 C1237.05 1158.61, 1223.69 1167.86, 1203.15 1169.33 M1203.15 1169.33 C793.81 1164.48, 385.42 1164.45, 32 1169.33 M1203.15 1169.33 C929.34 1169.84, 655.18 1169.85, 32 1169.33 M32 1169.33 C11.28 1170.78, -0.47 1157.23, 0 1137.33 M32 1169.33 C12.58 1170.37, 1.98 1157.04, 0 1137.33 M0 1137.33 C4.8 729.31, 4.45 319.92, 0 32 M0 1137.33 C4.28 854.42, 3.94 571.8, 0 32 M0 32 C-0.99 9.49, 9.58 1.54, 32 0 M0 32 C1.87 12.24, 10.38 1.17, 32 0" stroke="#1e1e1e" stroke-width="2" fill="none"></path></g><g stroke-linecap="round" transform="translate(424.8916205076134 44.34550028114194) rotate(0 387.53411943512083 78.85309626223302)"><path d="M32 0 C181.33 -1.77, 333.58 -1.44, 743.07 0 C761.5 2.1, 774.96 12.47, 775.07 32 C774.91 63.4, 773.28 93.94, 775.07 125.71 C777.76 147.15, 767.56 158.69, 743.07 157.71 C505.43 152.86, 266.19 154.72, 32 157.71 C14.15 156.09, -1.56 146.15, 0 125.71 C-0.4 93.41, 0.11 60.72, 0 32 C2.29 7.94, 13.68 2.12, 32 0" stroke="none" stroke-width="0" fill="#a5d8ff"></path><path d="M32 0 C240.32 -0.01, 446.88 -1.06, 743.07 0 M32 0 C264.46 -1.15, 497.33 -0.79, 743.07 0 M743.07 0 C764.38 0.3, 776.91 9.38, 775.07 32 M743.07 0 C763.37 -1.66, 776.31 11.62, 775.07 32 M775.07 32 C772.9 65, 773.35 94.61, 775.07 125.71 M775.07 32 C774.46 64.46, 774.44 96.33, 775.07 125.71 M775.07 125.71 C775.66 147.1, 766.05 157.66, 743.07 157.71 M775.07 125.71 C774.28 145.56, 765.54 158.53, 743.07 157.71 M743.07 157.71 C593.94 154.67, 443.07 155.38, 32 157.71 M743.07 157.71 C517.15 155.12, 291.53 155.71, 32 157.71 M32 157.71 C10.19 156.27, 1.66 147.94, 0 125.71 M32 157.71 C12.64 156.08, 1.6 144.93, 0 125.71 M0 125.71 C0.11 92.23, -1.77 57.45, 0 32 M0 125.71 C-0.83 89.69, -0.92 55.01, 0 32 M0 32 C-1.09 12.2, 12.29 1.37, 32 0 M0 32 C-0.29 11.83, 10.06 2.29, 32 0" stroke="#1e1e1e" stroke-width="2" fill="none"></path></g><g transform="translate(753.4242903577733 103.9661340403913) rotate(0 59.00144958496094 19.232462502983662)"><text x="59.00144958496094" y="26.9562194441819" font-family="Virgil, Segoe UI Emoji" font-size="30.77194000477386px" fill="#1e1e1e" text-anchor="middle" style="white-space: pre;" direction="ltr" dominant-baseline="alphabetic">Typhoon</text></g><g stroke-linecap="round" transform="translate(1071.6834332186322 873.3725831925401) rotate(0 119.79076644715542 130.7807450202888)"><path d="M32 0 C82.55 -0.37, 124.83 2.79, 207.58 0 C232.4 0.54, 237.42 11.23, 239.58 32 C235.64 84.21, 235.66 136.68, 239.58 229.56 C239.01 250.04, 230.56 261.99, 207.58 261.56 C153.83 261.57, 96.74 257.87, 32 261.56 C12.25 264.72, -1.68 254.22, 0 229.56 C-0.84 161.28, -3.66 93.74, 0 32 C-0.68 13.32, 11.44 -2.94, 32 0" stroke="none" stroke-width="0" fill="#ffec99"></path><path d="M32 0 C69.4 0.84, 106.34 0.41, 207.58 0 M32 0 C97.96 -1.66, 165.24 -1.01, 207.58 0 M207.58 0 C227.58 0.06, 238.44 12.41, 239.58 32 M207.58 0 C231.06 0.34, 241.82 11.72, 239.58 32 M239.58 32 C240.2 105.66, 236.94 181.19, 239.58 229.56 M239.58 32 C237.52 82.86, 237.87 133.9, 239.58 229.56 M239.58 229.56 C239.51 251.72, 230.67 261.64, 207.58 261.56 M239.58 229.56 C240.45 250.37, 229.12 260.31, 207.58 261.56 M207.58 261.56 C155.21 263.41, 100.42 263.65, 32 261.56 M207.58 261.56 C141.68 259.63, 74.55 260.56, 32 261.56 M32 261.56 C11.2 263.14, 0.77 251.06, 0 229.56 M32 261.56 C10.98 261.23, -0.61 252.32, 0 229.56 M0 229.56 C2.06 190.46, 2.84 147.91, 0 32 M0 229.56 C-1.2 187.3, -0.78 144.2, 0 32 M0 32 C1.74 10.12, 9.31 -0.65, 32 0 M0 32 C0.82 9.9, 10.37 -1.73, 32 0" stroke="#1e1e1e" stroke-width="2" fill="none"></path></g><g stroke-linecap="round" transform="translate(1119.1293007863437 895.6329070598631) rotate(0 74.50477706381298 34.23192459688704)"><path d="M17.12 0 C53.02 -0.54, 87.8 -1.36, 131.89 0 C139.85 0.95, 151.65 5.87, 149.01 17.12 C148.87 24.65, 149.91 36.93, 149.01 51.35 C151.48 65.63, 146.4 67.72, 131.89 68.46 C87.69 67.79, 44.9 65.59, 17.12 68.46 C2.66 70.59, 1.46 65.38, 0 51.35 C2.23 38.47, -3.21 26.48, 0 17.12 C1.13 4.27, 9.15 -1.92, 17.12 0" stroke="none" stroke-width="0" fill="#ffec99"></path><path d="M17.12 0 C51.44 0.1, 88.21 -1.96, 131.89 0 M17.12 0 C59.68 0.69, 99.88 0.49, 131.89 0 M131.89 0 C141.44 1.7, 148.26 4.88, 149.01 17.12 M131.89 0 C144.17 -1.17, 147.97 7.44, 149.01 17.12 M149.01 17.12 C150.44 30.88, 148.88 42.96, 149.01 51.35 M149.01 17.12 C148.89 28.22, 148.69 39.1, 149.01 51.35 M149.01 51.35 C148.76 62.84, 141.9 68.98, 131.89 68.46 M149.01 51.35 C150.36 63.16, 141.58 66.67, 131.89 68.46 M131.89 68.46 C105.57 67.09, 79.5 69.75, 17.12 68.46 M131.89 68.46 C105.89 66.66, 80.64 67.05, 17.12 68.46 M17.12 68.46 C7.11 69, 1.16 63.69, 0 51.35 M17.12 68.46 C5.82 66.19, 0.68 64.31, 0 51.35 M0 51.35 C1.63 43.96, 1.57 38.09, 0 17.12 M0 51.35 C1.03 43.09, -0.15 34.33, 0 17.12 M0 17.12 C1.62 4.08, 6.96 -1.28, 17.12 0 M0 17.12 C-1.66 7.29, 3.48 0.85, 17.12 0" stroke="#1e1e1e" stroke-width="2" fill="none"></path></g><g transform="translate(1175.4295261533794 914.7625119816529) rotate(0 18.204551696777344 15.102319675097249)"><text x="18.204551696777344" y="21.16741125661627" font-family="Virgil, Segoe UI Emoji" font-size="24.163711480155555px" fill="#1e1e1e" text-anchor="middle" style="white-space: pre;" direction="ltr" dominant-baseline="alphabetic">DB</text></g><g stroke-linecap="round" transform="translate(1099.4881617351848 988.2604677337927) rotate(0 89.59084979184604 60)"><path d="M61.78 3.5 C73.26 0.23, 88.87 -0.17, 101.6 0.8 C114.33 1.77, 127.29 4.73, 138.14 9.32 C148.99 13.92, 160.08 21.01, 166.7 28.38 C173.32 35.75, 176.6 44.9, 177.83 53.54 C179.05 62.18, 178.18 72.05, 174.04 80.21 C169.91 88.37, 162.19 96.35, 153 102.48 C143.82 108.62, 131.36 114.14, 118.95 117.02 C106.54 119.9, 91.51 120.7, 78.54 119.75 C65.56 118.8, 51.9 116.11, 41.12 111.3 C30.35 106.49, 20.74 98.63, 13.89 90.9 C7.04 83.16, 1.3 73.4, 0.03 64.89 C-1.23 56.37, 1.94 47.91, 6.3 39.81 C10.67 31.7, 16.11 22.47, 26.2 16.25 C36.29 10.02, 58.86 4.83, 66.85 2.45 C74.83 0.07, 73.59 0.94, 74.12 1.95 M88.83 -0.04 C100.77 -1.11, 115.59 1.78, 127.27 5.32 C138.94 8.86, 150.45 14.17, 158.89 21.18 C167.33 28.18, 175.07 38.74, 177.9 47.36 C180.73 55.98, 179.07 64.8, 175.87 72.91 C172.66 81.03, 166.6 89.42, 158.67 96.04 C150.74 102.65, 139.83 108.43, 128.26 112.6 C116.69 116.78, 102.22 120.9, 89.26 121.09 C76.29 121.28, 62.24 117.47, 50.48 113.74 C38.71 110.01, 26.63 105.61, 18.69 98.74 C10.75 91.86, 5.6 81.12, 2.84 72.49 C0.08 63.85, -0.75 55.5, 2.12 46.94 C4.98 38.39, 11.93 28.12, 20.02 21.16 C28.1 14.2, 38.79 8.6, 50.62 5.19 C62.46 1.77, 84.47 1.13, 91.03 0.67 C97.59 0.2, 90.41 1.73, 89.98 2.39" stroke="#1e1e1e" stroke-width="2" fill="none"></path></g><g transform="translate(1159.878746150408 1010.8340608625998) rotate(0 29.34996795654297 37.5)"><text x="29.34996795654297" y="17.52" font-family="Virgil, Segoe UI Emoji" font-size="20px" fill="#1e1e1e" text-anchor="middle" style="white-space: pre;" direction="ltr" dominant-baseline="alphabetic">User</text><text x="29.34996795654297" y="42.519999999999996" font-family="Virgil, Segoe UI Emoji" font-size="20px" fill="#1e1e1e" text-anchor="middle" style="white-space: pre;" direction="ltr" dominant-baseline="alphabetic">Queue</text><text x="29.34996795654297" y="67.52" font-family="Virgil, Segoe UI Emoji" font-size="20px" fill="#1e1e1e" text-anchor="middle" style="white-space: pre;" direction="ltr" dominant-baseline="alphabetic">Model</text></g><g stroke-linecap="round" transform="translate(269.911851076675 265.9425512250152) rotate(0 127.84324698759337 213.8663659242124)"><path d="M32 0 C91.77 -2.94, 156.95 0.29, 223.69 0 C244.27 -1.93, 252.89 12.73, 255.69 32 C257.22 117.07, 255 201.83, 255.69 395.73 C254.44 414.91, 241.86 428.55, 223.69 427.73 C167.14 430.2, 117.87 431.52, 32 427.73 C10.8 427.46, -2.37 417.29, 0 395.73 C-0.25 291.85, 1.07 183.92, 0 32 C-1.7 12.1, 10.69 0.17, 32 0" stroke="none" stroke-width="0" fill="#b2f2bb"></path><path d="M32 0 C86.58 2.24, 138.14 3.48, 223.69 0 M32 0 C87.96 -0.18, 144.8 0.02, 223.69 0 M223.69 0 C246.55 -1.26, 254.73 11.44, 255.69 32 M223.69 0 C246.31 -1.85, 253.7 12.05, 255.69 32 M255.69 32 C256.89 176.27, 256.37 320.04, 255.69 395.73 M255.69 32 C254.69 161.01, 253.74 290.59, 255.69 395.73 M255.69 395.73 C254.59 416.32, 246.64 426.69, 223.69 427.73 M255.69 395.73 C254.52 417.9, 243.6 428.19, 223.69 427.73 M223.69 427.73 C185.22 428.09, 143.1 428.36, 32 427.73 M223.69 427.73 C156.48 426.98, 89.62 427.65, 32 427.73 M32 427.73 C12.47 427.69, 1.39 416.87, 0 395.73 M32 427.73 C10.93 426.43, -0.6 414.8, 0 395.73 M0 395.73 C1.19 280.17, 1.64 163.83, 0 32 M0 395.73 C1.71 309.15, 2.1 221.87, 0 32 M0 32 C-1.21 9.24, 9.33 -0.98, 32 0 M0 32 C1.09 9.99, 8.83 -1.72, 32 0" stroke="#1e1e1e" stroke-width="2" fill="none"></path></g><g stroke-linecap="round" transform="translate(290.22431573357994 292.0415308147625) rotate(0 106.51489591906488 49.22957374410561)"><path d="M24.61 0 C75.55 0.8, 135.91 -3.27, 188.42 0 C203.05 -3.01, 211.76 5.05, 213.03 24.61 C215.92 41.04, 214.56 65.44, 213.03 73.84 C216.02 92.61, 202.06 97.48, 188.42 98.46 C147.65 98.39, 100.19 101.52, 24.61 98.46 C9.13 98.66, 3.37 88.58, 0 73.84 C-0.64 63.95, 0.78 52.62, 0 24.61 C1.87 10.58, 8.39 -2.38, 24.61 0" stroke="none" stroke-width="0" fill="#b2f2bb"></path><path d="M24.61 0 C67.82 0.79, 113.48 1.26, 188.42 0 M24.61 0 C82.79 0.81, 141.56 1.37, 188.42 0 M188.42 0 C204.84 1.49, 214.08 6.49, 213.03 24.61 M188.42 0 C203.42 0.76, 212.85 7.04, 213.03 24.61 M213.03 24.61 C213.46 38.13, 213.33 51.71, 213.03 73.84 M213.03 24.61 C212.87 37.04, 213.17 49.77, 213.03 73.84 M213.03 73.84 C212.71 91.23, 203.61 97.58, 188.42 98.46 M213.03 73.84 C213.33 90.61, 204.06 98.84, 188.42 98.46 M188.42 98.46 C135.06 98.03, 86.03 98.1, 24.61 98.46 M188.42 98.46 C135.94 98.29, 84 98.52, 24.61 98.46 M24.61 98.46 C6.79 98.33, -0.2 90.66, 0 73.84 M24.61 98.46 C10.31 98.48, -0.77 88.05, 0 73.84 M0 73.84 C-1.63 64.05, -1.04 52.1, 0 24.61 M0 73.84 C-0.03 58.29, 0.2 42.48, 0 24.61 M0 24.61 C0.44 7.46, 9.37 1.67, 24.61 0 M0 24.61 C-1.32 7.98, 8.68 0.96, 24.61 0" stroke="#1e1e1e" stroke-width="2" fill="none"></path></g><g transform="translate(354.6292415598714 328.7711045588681) rotate(0 42.10997009277344 12.5)"><text x="42.10997009277344" y="17.52" font-family="Virgil, Segoe UI Emoji" font-size="20px" fill="#1e1e1e" text-anchor="middle" style="white-space: pre;" direction="ltr" dominant-baseline="alphabetic">FastAPI</text></g><g stroke-linecap="round" transform="translate(318.8669768210598 424.5138383443559) rotate(0 76.97715167260151 29.537744246463376)"><path d="M14.77 0 C61.08 0.61, 111.56 0.94, 139.19 0 M14.77 0 C52.43 -0.29, 90.03 0.16, 139.19 0 M139.19 0 C147.48 -1.22, 153.73 5.2, 153.95 14.77 M139.19 0 C149.27 0.07, 155.21 3.16, 153.95 14.77 M153.95 14.77 C155.89 25.25, 155.58 36.85, 153.95 44.31 M153.95 14.77 C152.82 22.81, 152.94 28.71, 153.95 44.31 M153.95 44.31 C153.37 54.25, 150.93 60.9, 139.19 59.08 M153.95 44.31 C154.19 56.22, 146.92 61.26, 139.19 59.08 M139.19 59.08 C110.84 61.34, 87.26 58.72, 14.77 59.08 M139.19 59.08 C109.56 59.78, 81.33 59.95, 14.77 59.08 M14.77 59.08 C4.33 57.51, -0.08 53.93, 0 44.31 M14.77 59.08 C3.08 58.21, -0.04 52.42, 0 44.31 M0 44.31 C-0.51 37.69, -1.67 29.03, 0 14.77 M0 44.31 C-0.41 34.82, 1.05 25.63, 0 14.77 M0 14.77 C1.92 5.1, 6.5 -1.93, 14.77 0 M0 14.77 C-0.35 4.9, 4.33 -0.61, 14.77 0" stroke="#1e1e1e" stroke-width="2" fill="none"></path></g><g transform="translate(342.9841736596768 441.5515825908193) rotate(0 52.859954833984375 12.5)"><text x="52.859954833984375" y="17.52" font-family="Virgil, Segoe UI Emoji" font-size="20px" fill="#1e1e1e" text-anchor="middle" style="white-space: pre;" direction="ltr" dominant-baseline="alphabetic">TrainModel</text></g><g stroke-linecap="round" transform="translate(318.8669768210593 498.80574054000624) rotate(0 76.97715167260151 29.537744246463376)"><path d="M14.77 0 C60.1 -0.19, 105.43 -2.16, 139.19 0 M14.77 0 C44.33 -0.18, 72.4 -0.76, 139.19 0 M139.19 0 C150.08 0.7, 153.28 6.85, 153.95 14.77 M139.19 0 C151 1.82, 153.77 4.11, 153.95 14.77 M153.95 14.77 C155.1 20.43, 154.19 27.17, 153.95 44.31 M153.95 14.77 C153.91 22.87, 154.62 32.47, 153.95 44.31 M153.95 44.31 C152.02 54.91, 150.6 61, 139.19 59.08 M153.95 44.31 C156.23 53.78, 150.67 57.47, 139.19 59.08 M139.19 59.08 C106.61 57.26, 71.65 58.58, 14.77 59.08 M139.19 59.08 C98.9 59.28, 57.86 57.89, 14.77 59.08 M14.77 59.08 C5.16 60.39, -0.8 54.61, 0 44.31 M14.77 59.08 C5.08 58.21, -0.2 51.93, 0 44.31 M0 44.31 C1.29 37.92, 0.92 31.09, 0 14.77 M0 44.31 C-0.97 36.46, 0.46 28.68, 0 14.77 M0 14.77 C0.63 3.87, 5.23 0.82, 14.77 0 M0 14.77 C-0.79 4.05, 4.11 -0.9, 14.77 0" stroke="#1e1e1e" stroke-width="2" fill="none"></path></g><g transform="translate(327.5041855615318 515.8434847864696) rotate(0 68.3399429321289 12.5)"><text x="68.3399429321289" y="17.52" font-family="Virgil, Segoe UI Emoji" font-size="20px" fill="#1e1e1e" text-anchor="middle" style="white-space: pre;" direction="ltr" dominant-baseline="alphabetic">GetUserModel</text></g><g stroke-linecap="round" transform="translate(317.0768105030925 573.9927258946403) rotate(0 76.97715167260151 29.537744246463376)"><path d="M14.77 0 C54.78 2.81, 93.82 -0.05, 139.19 0 M14.77 0 C41.44 0.93, 68.59 0.95, 139.19 0 M139.19 0 C148.95 0.96, 154.9 3.16, 153.95 14.77 M139.19 0 C148.48 1.36, 153.25 6.13, 153.95 14.77 M153.95 14.77 C153.47 24, 155.05 36.23, 153.95 44.31 M153.95 14.77 C153.68 21.6, 154.02 28.78, 153.95 44.31 M153.95 44.31 C153.33 53.56, 150.62 58.3, 139.19 59.08 M153.95 44.31 C153.25 53.93, 150.32 61.17, 139.19 59.08 M139.19 59.08 C99.45 56.94, 62.3 56.28, 14.77 59.08 M139.19 59.08 C94.36 58.28, 48.38 58.85, 14.77 59.08 M14.77 59.08 C5.85 58.9, 0.5 55.26, 0 44.31 M14.77 59.08 C3.16 60, -1.59 53.23, 0 44.31 M0 44.31 C-0.22 35.03, -1.4 25.57, 0 14.77 M0 44.31 C-0.52 38.26, 0.29 30.79, 0 14.77 M0 14.77 C1.69 4.85, 5.05 0.03, 14.77 0 M0 14.77 C1.71 5.88, 7.01 -1.87, 14.77 0" stroke="#1e1e1e" stroke-width="2" fill="none"></path></g><g transform="translate(334.5740198539165 591.0304701411037) rotate(0 59.479942321777344 12.5)"><text x="59.479942321777344" y="17.52" font-family="Virgil, Segoe UI Emoji" font-size="20px" fill="#1e1e1e" text-anchor="middle" style="white-space: pre;" direction="ltr" dominant-baseline="alphabetic">DeleteModel</text></g><g stroke-linecap="round" transform="translate(1025.5326331361662 221.58784018837503) rotate(0 201.33554652274256 269.4200308541054)"><path d="M32 0 C109.9 -0.21, 192.5 -3.06, 370.67 0 C391.31 -3.15, 401.9 8.58, 402.67 32 C404.39 209.97, 404.52 390.3, 402.67 506.84 C400.84 528.12, 388.81 540.42, 370.67 538.84 C254.72 533.71, 139.37 534.3, 32 538.84 C9.5 538.25, -2.47 526.35, 0 506.84 C1.03 360.96, 0.24 217.84, 0 32 C-1.11 12.83, 7.7 -0.96, 32 0" stroke="none" stroke-width="0" fill="#ffd8a8"></path><path d="M32 0 C158.11 -2.25, 285.46 -2.52, 370.67 0 M32 0 C166.32 -1.88, 302.18 -1.81, 370.67 0 M370.67 0 C392.84 1.85, 403.24 9.71, 402.67 32 M370.67 0 C392.95 0.59, 404.86 12.25, 402.67 32 M402.67 32 C404.84 160.56, 405.36 289.16, 402.67 506.84 M402.67 32 C403.72 191.21, 404.41 350.83, 402.67 506.84 M402.67 506.84 C403.55 529.18, 392.21 539.62, 370.67 538.84 M402.67 506.84 C403.32 527.39, 393.9 540.97, 370.67 538.84 M370.67 538.84 C285.39 538.64, 200.74 539.69, 32 538.84 M370.67 538.84 C245.51 540.18, 122.1 540.89, 32 538.84 M32 538.84 C11.83 536.84, -0.61 528.18, 0 506.84 M32 538.84 C11.88 539.47, 1.59 530.22, 0 506.84 M0 506.84 C-1.89 410.95, -1.72 315.98, 0 32 M0 506.84 C-1.09 345.26, -1.32 183.63, 0 32 M0 32 C-0.05 10.44, 11.94 -1.51, 32 0 M0 32 C-1.88 12.68, 10.88 1.64, 32 0" stroke="#1e1e1e" stroke-width="2" fill="none"></path></g><g stroke-linecap="round" transform="translate(1093.6171174675283 251.85834480300355) rotate(0 134.22369768182875 38.90541961792137)"><path d="M19.45 0 C77.43 2.65, 132.58 0.76, 248.99 0 C263.79 2.88, 266.73 3.39, 268.45 19.45 C267.25 36.94, 265.97 50.04, 268.45 58.36 C269.46 72.11, 265 78.53, 248.99 77.81 C178.29 74.18, 112.74 79.2, 19.45 77.81 C5.77 74.67, 1.4 68.62, 0 58.36 C3.3 51.98, 1.97 43.61, 0 19.45 C2.39 3.94, 7.37 2.13, 19.45 0" stroke="none" stroke-width="0" fill="#ffd8a8"></path><path d="M19.45 0 C83.67 1.2, 145.31 1.56, 248.99 0 M19.45 0 C97.27 0.33, 172.95 0.27, 248.99 0 M248.99 0 C262.88 -1.84, 268.05 6.55, 268.45 19.45 M248.99 0 C260.44 0.14, 269.26 6.09, 268.45 19.45 M268.45 19.45 C266.36 29.94, 269.79 38.5, 268.45 58.36 M268.45 19.45 C269 35.36, 268.49 49.69, 268.45 58.36 M268.45 58.36 C268.89 71.37, 263.66 77.93, 248.99 77.81 M268.45 58.36 C270.72 71.59, 262.19 76.46, 248.99 77.81 M248.99 77.81 C201.75 77.72, 153.93 78.15, 19.45 77.81 M248.99 77.81 C192.6 78.18, 136.92 78.92, 19.45 77.81 M19.45 77.81 C7.8 79.32, -1.49 73.18, 0 58.36 M19.45 77.81 C4.42 76, -0.12 73.15, 0 58.36 M0 58.36 C-0.47 47.34, -1.16 33.48, 0 19.45 M0 58.36 C-0.89 50.22, 0.89 39.91, 0 19.45 M0 19.45 C1.17 6.11, 8 0.22, 19.45 0 M0 19.45 C0.91 6.97, 7.89 -0.74, 19.45 0" stroke="#1e1e1e" stroke-width="2" fill="none"></path></g><g transform="translate(1196.1150384769935 277.1807319299502) rotate(0 31.72577667236328 13.58303249097473)"><text x="31.72577667236328" y="19.037978339350182" font-family="Virgil, Segoe UI Emoji" font-size="21.73285198555957px" fill="#1e1e1e" text-anchor="middle" style="white-space: pre;" direction="ltr" dominant-baseline="alphabetic">Kafka</text></g><g stroke-linecap="round" transform="translate(230.6484947571421 726.2675645837587) rotate(0 196.85571644760228 218.6220602558679)"><path d="M32 0 C134.36 0.42, 241.68 2, 361.71 0 C384.72 -1.87, 392.51 10.86, 393.71 32 C392.59 151.77, 394.95 269.82, 393.71 405.24 C393.44 428.92, 381.38 436.67, 361.71 437.24 C277.98 433.74, 198.82 433.54, 32 437.24 C8.19 434.78, -2.05 428.09, 0 405.24 C3.03 278.52, 1.59 151.47, 0 32 C0.96 7.88, 12.25 1.26, 32 0" stroke="none" stroke-width="0" fill="#ffc9c9"></path><path d="M32 0 C130.92 2.18, 229.18 0.55, 361.71 0 M32 0 C132.94 -0.54, 233.65 -1.29, 361.71 0 M361.71 0 C381.86 -0.03, 394.83 10.88, 393.71 32 M361.71 0 C384.21 -1.13, 393.42 9.18, 393.71 32 M393.71 32 C392.82 134.22, 393.33 234.88, 393.71 405.24 M393.71 32 C393.56 137.12, 393.02 242.36, 393.71 405.24 M393.71 405.24 C393.46 424.82, 384.3 436.04, 361.71 437.24 M393.71 405.24 C395.95 425.36, 384.36 437.26, 361.71 437.24 M361.71 437.24 C238.39 434.23, 115.15 434.59, 32 437.24 M361.71 437.24 C261.9 438.73, 163.31 439.09, 32 437.24 M32 437.24 C9.56 436.25, 0.2 426.76, 0 405.24 M32 437.24 C11.71 436.96, -0.94 424.51, 0 405.24 M0 405.24 C-2.75 275.13, -1.71 144.9, 0 32 M0 405.24 C0.74 323.43, 0.7 241.58, 0 32 M0 32 C-0.07 11.36, 11.57 -1.67, 32 0 M0 32 C-1.1 9.46, 8.57 0.45, 32 0" stroke="#1e1e1e" stroke-width="2" fill="none"></path></g><g stroke-linecap="round" transform="translate(314.6473848330472 738.1379900849984) rotate(0 111.75663069160737 37.935737023756644)"><path d="M18.97 0 C75.14 -1.25, 127.68 -2.2, 204.55 0 C220.67 -1.31, 224.23 7.21, 223.51 18.97 C222.59 32.79, 219.82 42.91, 223.51 56.9 C223.98 70.79, 214.76 73.02, 204.55 75.87 C128.51 71.07, 54.27 72.04, 18.97 75.87 C8.26 75.64, -0.93 72.2, 0 56.9 C-0.47 49.03, -0.64 38.03, 0 18.97 C-0.54 4.81, 8.84 -3.22, 18.97 0" stroke="none" stroke-width="0" fill="#ffc9c9"></path><path d="M18.97 0 C76.06 -0.31, 137.18 0.97, 204.55 0 M18.97 0 C83.34 0.78, 147.82 -0.2, 204.55 0 M204.55 0 C215.37 1.66, 223.84 8.08, 223.51 18.97 M204.55 0 C217.02 1.5, 222.45 5.96, 223.51 18.97 M223.51 18.97 C222.13 28.1, 224.32 37.35, 223.51 56.9 M223.51 18.97 C223.67 28.12, 222.55 36.67, 223.51 56.9 M223.51 56.9 C223.63 69.28, 216.01 75.04, 204.55 75.87 M223.51 56.9 C224.12 67.77, 218.2 76.68, 204.55 75.87 M204.55 75.87 C143.02 74.68, 82.6 75.11, 18.97 75.87 M204.55 75.87 C141.68 74.84, 79.65 74.87, 18.97 75.87 M18.97 75.87 C7.08 77.65, -0.38 68.55, 0 56.9 M18.97 75.87 C8.03 74.1, 0.08 68.61, 0 56.9 M0 56.9 C0.25 46.31, 1.27 40.43, 0 18.97 M0 56.9 C0.34 48.64, -1 40.33, 0 18.97 M0 18.97 C-0.9 5.59, 4.59 -1.03, 18.97 0 M0 18.97 C1.96 7.87, 6.4 -0.52, 18.97 0" stroke="#1e1e1e" stroke-width="2" fill="none"></path></g><g transform="translate(385.59623811986944 761.7553621118736) rotate(0 40.807777404785156 14.318364996881371)"><text x="40.807777404785156" y="20.068620379628932" font-family="Virgil, Segoe UI Emoji" font-size="22.909383995010195px" fill="#1e1e1e" text-anchor="middle" style="white-space: pre;" direction="ltr" dominant-baseline="alphabetic">Trainer</text></g><g stroke-linecap="round" transform="translate(608.3649753071049 256.85185951865583) rotate(0 156.63955282215443 236.73753417429083)"><path d="M32 0 C117.62 1.96, 195.32 0.88, 281.28 0 C299.72 1.08, 312.98 8.19, 313.28 32 C317.48 193.56, 315.4 355.52, 313.28 441.48 C315.6 466.27, 302.42 475.18, 281.28 473.48 C204.46 472.87, 121.16 472.44, 32 473.48 C12.19 476.68, 3.54 462.33, 0 441.48 C-4.21 329.96, -3.73 213.35, 0 32 C-0.58 11.05, 10.71 -2.27, 32 0" stroke="none" stroke-width="0" fill="#eebefa"></path><path d="M32 0 C119.31 0.31, 209.69 2.98, 281.28 0 M32 0 C92.32 1.07, 154.09 2.21, 281.28 0 M281.28 0 C302.95 0.14, 314.2 9.57, 313.28 32 M281.28 0 C302.42 -0.09, 315.41 12.86, 313.28 32 M313.28 32 C311.02 140.77, 310.28 251.52, 313.28 441.48 M313.28 32 C311.96 173.14, 312.06 314.69, 313.28 441.48 M313.28 441.48 C311.29 463.99, 302.71 474.12, 281.28 473.48 M313.28 441.48 C311.98 461.21, 303.48 471.41, 281.28 473.48 M281.28 473.48 C206.1 471.63, 126.48 471.97, 32 473.48 M281.28 473.48 C225.93 473.53, 171.52 472.42, 32 473.48 M32 473.48 C11.69 471.94, -0.46 462.06, 0 441.48 M32 473.48 C11.72 471.59, -0.03 464.55, 0 441.48 M0 441.48 C-0.78 358.44, 0.59 277.95, 0 32 M0 441.48 C-1.46 279.46, -0.93 116.58, 0 32 M0 32 C-1.94 10.26, 8.96 -0.2, 32 0 M0 32 C0.32 10.38, 10.75 -0.04, 32 0" stroke="#1e1e1e" stroke-width="2" fill="none"></path></g><g stroke-linecap="round" transform="translate(651.6528142641728 281.15079178834594) rotate(0 121.5765753751914 23.98010402246112)"><path d="M11.99 0 C68.49 5.18, 121.35 -0.94, 231.16 0 C240.36 -3.2, 243.76 2.64, 243.15 11.99 C246.65 16.95, 245.52 21.5, 243.15 35.97 C240.2 45.44, 236.51 45.49, 231.16 47.96 C159.82 47.22, 90.21 43.12, 11.99 47.96 C7.29 48.91, 1.23 42.08, 0 35.97 C-0.89 31.15, -2.19 25.34, 0 11.99 C-3.06 5.55, 3.11 -1.51, 11.99 0" stroke="none" stroke-width="0" fill="#eebefa"></path><path d="M11.99 0 C63.39 -2.57, 113.54 -0.78, 231.16 0 M11.99 0 C97.07 1, 182.48 -0.06, 231.16 0 M231.16 0 C240.76 -0.25, 241.22 3.67, 243.15 11.99 M231.16 0 C239.4 0.03, 241.7 3.45, 243.15 11.99 M243.15 11.99 C244.64 20.08, 241.49 25.44, 243.15 35.97 M243.15 11.99 C242.94 17.88, 242.9 25.95, 243.15 35.97 M243.15 35.97 C241.28 42.63, 240.88 46.02, 231.16 47.96 M243.15 35.97 C245.08 44.22, 239.17 45.69, 231.16 47.96 M231.16 47.96 C179.16 47.22, 127.81 48.34, 11.99 47.96 M231.16 47.96 C171.54 46.57, 111.33 46.72, 11.99 47.96 M11.99 47.96 C2.9 46.18, 0.34 43.31, 0 35.97 M11.99 47.96 C2.44 46.68, -0.67 42.4, 0 35.97 M0 35.97 C-1.07 31.51, -1.89 26.6, 0 11.99 M0 35.97 C0.5 30.14, 0.75 22.15, 0 11.99 M0 11.99 C-0.67 2.21, 2.17 -1.82, 11.99 0 M0 11.99 C0.39 2.21, 5.33 -1.7, 11.99 0" stroke="#1e1e1e" stroke-width="2" fill="none"></path></g><g transform="translate(734.0394329743253 292.63089581080703) rotate(0 39.18995666503906 12.5)"><text x="39.18995666503906" y="17.52" font-family="Virgil, Segoe UI Emoji" font-size="20px" fill="#1e1e1e" text-anchor="middle" style="white-space: pre;" direction="ltr" dominant-baseline="alphabetic">Services</text></g><g stroke-linecap="round" transform="translate(746.4275196310791 632.1760999064527) rotate(0 68.76075075867425 42.5)"><path d="M21.25 0 C38.84 -1.12, 61.98 -2.2, 116.27 0 M21.25 0 C47.32 -0.71, 72.39 0.13, 116.27 0 M116.27 0 C129.03 -0.22, 137.38 6.02, 137.52 21.25 M116.27 0 C130.87 -1.54, 135.32 9.19, 137.52 21.25 M137.52 21.25 C136.88 37.18, 138.29 55.46, 137.52 63.75 M137.52 21.25 C138.84 34.01, 137.77 48.95, 137.52 63.75 M137.52 63.75 C137.98 77.56, 132.17 83.5, 116.27 85 M137.52 63.75 C139.35 75.72, 130.3 87.12, 116.27 85 M116.27 85 C96.16 85.06, 78.75 84.47, 21.25 85 M116.27 85 C87.65 84.05, 59.23 84.35, 21.25 85 M21.25 85 C6.86 84.94, -1.95 78.55, 0 63.75 M21.25 85 C5.12 85.35, 0.53 77.64, 0 63.75 M0 63.75 C1.09 52.21, -0.03 45.88, 0 21.25 M0 63.75 C1.11 47.03, 0.48 31.41, 0 21.25 M0 21.25 C-0.41 8.62, 5.9 -0.05, 21.25 0 M0 21.25 C1.73 7.83, 7 0.69, 21.25 0" stroke="#1e1e1e" stroke-width="2" fill="none"></path></g><g transform="translate(766.3283155557692 637.1760999064527) rotate(0 48.859954833984375 37.5)"><text x="48.859954833984375" y="17.52" font-family="Virgil, Segoe UI Emoji" font-size="20px" fill="#1e1e1e" text-anchor="middle" style="white-space: pre;" direction="ltr" dominant-baseline="alphabetic">Queue </text><text x="48.859954833984375" y="42.519999999999996" font-family="Virgil, Segoe UI Emoji" font-size="20px" fill="#1e1e1e" text-anchor="middle" style="white-space: pre;" direction="ltr" dominant-baseline="alphabetic">Consumer </text><text x="48.859954833984375" y="67.52" font-family="Virgil, Segoe UI Emoji" font-size="20px" fill="#1e1e1e" text-anchor="middle" style="white-space: pre;" direction="ltr" dominant-baseline="alphabetic">loop</text></g><g stroke-linecap="round" transform="translate(1217.5697146923126 347.0020692443935) rotate(0 87.3054378599088 48.58737411334056)"><path d="M102.41 0.13 C114.66 0.58, 128.94 4.97, 139.32 9.26 C149.71 13.54, 158.87 19.52, 164.74 25.82 C170.6 32.13, 173.88 39.99, 174.5 47.1 C175.12 54.21, 173.3 62.31, 168.47 68.51 C163.64 74.71, 155.1 79.85, 145.52 84.3 C135.95 88.75, 123.19 93.09, 111.02 95.22 C98.85 97.34, 85 98.27, 72.5 97.04 C60.01 95.82, 46.23 92.05, 36.04 87.85 C25.85 83.65, 17.35 78.16, 11.36 71.84 C5.36 65.53, 0.74 57.09, 0.08 49.93 C-0.59 42.77, 2.52 35.31, 7.39 28.89 C12.26 22.47, 19.94 16.03, 29.29 11.39 C38.65 6.75, 50.62 2.77, 63.52 1.04 C76.42 -0.69, 98.58 0.77, 106.69 1.03 C114.8 1.29, 112.29 1.87, 112.2 2.6 M73 0.78 C84.57 -1.4, 98.95 -0.74, 110.81 1.39 C122.67 3.53, 134.47 8.74, 144.16 13.57 C153.86 18.4, 164.12 24.28, 169 30.38 C173.87 36.47, 174.02 43.44, 173.4 50.13 C172.78 56.83, 171.2 64.32, 165.28 70.57 C159.35 76.82, 148.39 83.44, 137.85 87.66 C127.32 91.89, 114.57 94.53, 102.05 95.93 C89.52 97.32, 74.89 97.75, 62.71 96.04 C50.53 94.32, 38.1 90.6, 28.99 85.64 C19.89 80.68, 12.81 72.98, 8.08 66.3 C3.35 59.62, 0.29 52.4, 0.64 45.56 C0.99 38.72, 4.19 31.33, 10.17 25.26 C16.16 19.2, 26.3 13.35, 36.55 9.16 C46.8 4.97, 65.47 1.35, 71.66 0.13 C77.85 -1.1, 73.48 1.1, 73.71 1.81" stroke="#1e1e1e" stroke-width="2" fill="none"></path></g><g transform="translate(1275.2909174504762 383.2329816421433) rotate(0 29.34996795654297 12.5)"><text x="29.34996795654297" y="17.52" font-family="Virgil, Segoe UI Emoji" font-size="20px" fill="#1e1e1e" text-anchor="middle" style="white-space: pre;" direction="ltr" dominant-baseline="alphabetic">Queue</text></g><g stroke-linecap="round"><g transform="translate(481.1673257869936 453.286950117326) rotate(0 83.59064104894458 -24.71121083073949)"><path d="M0.92 -0.68 C16.08 -7.31, 63.48 -31.07, 91.2 -39.46 C118.91 -47.84, 154.53 -49.24, 167.24 -50.99 M-0.05 1.57 C14.93 -4.87, 62.56 -29.3, 90.3 -37.91 C118.03 -46.52, 153.47 -48.28, 166.36 -50.09" stroke="#1e1e1e" stroke-width="2" fill="none"></path></g><g transform="translate(481.1673257869936 453.286950117326) rotate(0 83.59064104894458 -24.71121083073949)"><path d="M143.91 -39.1 C149.93 -42.63, 158.29 -46.64, 166.36 -50.09 M143.91 -39.1 C149.73 -41.23, 155.02 -44.44, 166.36 -50.09" stroke="#1e1e1e" stroke-width="2" fill="none"></path></g><g transform="translate(481.1673257869936 453.286950117326) rotate(0 83.59064104894458 -24.71121083073949)"><path d="M142.1 -56.1 C148.73 -54.21, 157.67 -52.78, 166.36 -50.09 M142.1 -56.1 C148.34 -54.26, 154.05 -53.48, 166.36 -50.09" stroke="#1e1e1e" stroke-width="2" fill="none"></path></g></g><mask></mask><g mask="url(#mask-7XvJYmLpfIduneA2AcIZx)" stroke-linecap="round"><g transform="translate(888.7199394693539 685.0893561259995) rotate(0 138.38872569105433 89.66608710446272)"><path d="M-0.54 -0.28 C32.07 5.55, 149.26 3.61, 195.57 33.79 C241.88 63.98, 263.74 156.62, 277.32 180.81 M1.37 -1.48 C33.89 4.07, 149.16 1.68, 194.99 31.77 C240.81 61.86, 262.65 154.42, 276.31 179.06" stroke="#1e1e1e" stroke-width="2" fill="none"></path></g><g transform="translate(888.7199394693539 685.0893561259995) rotate(0 138.38872569105433 89.66608710446272)"><path d="M259.59 160.48 C263.85 167.18, 269.55 170.7, 276.31 179.06 M259.59 160.48 C266.84 168.82, 272.05 174.99, 276.31 179.06" stroke="#1e1e1e" stroke-width="2" fill="none"></path></g><g transform="translate(888.7199394693539 685.0893561259995) rotate(0 138.38872569105433 89.66608710446272)"><path d="M275.45 154.08 C274.98 162.59, 276.03 167.99, 276.31 179.06 M275.45 154.08 C276.4 164.85, 275.35 173.55, 276.31 179.06" stroke="#1e1e1e" stroke-width="2" fill="none"></path></g></g><mask id="mask-7XvJYmLpfIduneA2AcIZx"><rect x="0" y="0" fill="#fff" width="1266.5048849084324" height="964.7612746396788"></rect><rect x="1056.2503682814636" y="706.1906504143643" fill="#000" width="54.67994689941406" height="25" opacity="1"></rect></mask><g transform="translate(1056.2503682814636 706.190650414364) rotate(0 -29.141703121055343 68.56479281609805)"><text x="27.33997344970703" y="17.52" font-family="Virgil, Segoe UI Emoji" font-size="20px" fill="#1e1e1e" text-anchor="middle" style="white-space: pre;" direction="ltr" dominant-baseline="alphabetic">Sends</text></g><g mask="url(#mask-MnIGNNRbGAaEj35yzz55J)" stroke-linecap="round"><g transform="translate(885.4673765894695 683.3251724835433) rotate(0 226.11353810217474 -113.03204947828527)"><path d="M0.91 -0.73 C68.5 -4.23, 330.29 18.25, 404.95 -20.09 C479.6 -58.42, 441.78 -195.76, 448.84 -230.74 M-0.07 1.5 C67.5 -1.87, 329.74 20, 404.52 -18.55 C479.3 -57.1, 441.48 -194.76, 448.61 -229.81" stroke="#1e1e1e" stroke-width="2" fill="none"></path></g><g transform="translate(885.4673765894695 683.3251724835433) rotate(0 226.11353810217474 -113.03204947828527)"><path d="M457.8 -206.56 C454.1 -210.68, 452.99 -216.46, 448.61 -229.81 M457.8 -206.56 C455.95 -211.51, 453.81 -217.92, 448.61 -229.81" stroke="#1e1e1e" stroke-width="2" fill="none"></path></g><g transform="translate(885.4673765894695 683.3251724835433) rotate(0 226.11353810217474 -113.03204947828527)"><path d="M440.7 -206.09 C441.29 -210.46, 444.47 -216.36, 448.61 -229.81 M440.7 -206.09 C442.93 -211.16, 444.87 -217.68, 448.61 -229.81" stroke="#1e1e1e" stroke-width="2" fill="none"></path></g></g><mask id="mask-MnIGNNRbGAaEj35yzz55J"><rect x="0" y="0" fill="#fff" width="1433.2954099653844" height="1013.3258804521208"></rect><rect x="1244.4392786967342" y="650.750566055744" fill="#000" width="89.97990417480469" height="25" opacity="1"></rect></mask><g transform="translate(1244.4392786967342 650.750566055744) rotate(0 -132.85836400508992 -80.45744305048606)"><text x="44.989952087402344" y="17.52" font-family="Virgil, Segoe UI Emoji" font-size="20px" fill="#1e1e1e" text-anchor="middle" style="white-space: pre;" direction="ltr" dominant-baseline="alphabetic">Consumes</text></g><g stroke-linecap="round"><g transform="translate(1066.0023366287105 874.6472394550777) rotate(0 -282.3912780229823 -8.619535782693731)"><path d="M0.94 -0.24 C-93.17 -3.26, -470.81 -14.44, -565.34 -17 M-0.03 -1.41 C-94.14 -3.79, -471.24 -13.22, -565.72 -15.92" stroke="#1e1e1e" stroke-width="2" fill="none"></path></g><g transform="translate(1066.0023366287105 874.6472394550777) rotate(0 -282.3912780229823 -8.619535782693731)"><path d="M-542.01 -23.85 C-548.08 -19.95, -554.89 -19.54, -565.72 -15.92 M-542.01 -23.85 C-550.59 -21.18, -558.66 -17.6, -565.72 -15.92" stroke="#1e1e1e" stroke-width="2" fill="none"></path></g><g transform="translate(1066.0023366287105 874.6472394550777) rotate(0 -282.3912780229823 -8.619535782693731)"><path d="M-542.46 -6.75 C-548.59 -7, -555.29 -10.73, -565.72 -15.92 M-542.46 -6.75 C-550.75 -9.99, -558.66 -12.32, -565.72 -15.92" stroke="#1e1e1e" stroke-width="2" fill="none"></path></g></g><mask></mask><g stroke-linecap="round" transform="translate(355.3493523890179 818.8264357971633) rotate(0 68.71592983210542 60)"><path d="M69.61 0.61 C79.76 -0.36, 92.42 2.09, 101.67 6.19 C110.93 10.29, 119.24 17.43, 125.12 25.21 C131.01 32.99, 135.82 43.5, 136.99 52.86 C138.17 62.21, 136.03 72.66, 132.18 81.35 C128.32 90.04, 121.86 98.83, 113.86 105.01 C105.86 111.19, 94.32 116.37, 84.19 118.42 C74.05 120.47, 63.18 119.39, 53.08 117.3 C42.98 115.21, 31.76 112.01, 23.58 105.89 C15.4 99.76, 7.73 89.57, 3.99 80.57 C0.25 71.56, -0.08 60.82, 1.13 51.85 C2.34 42.89, 5.33 34.41, 11.25 26.79 C17.17 19.17, 25.67 10.41, 36.65 6.11 C47.63 1.81, 68.79 1.6, 77.12 1.01 C85.46 0.41, 86.73 1.55, 86.68 2.54 M65.57 -0.39 C75.96 -1.89, 89.58 1.66, 99.09 5.8 C108.61 9.94, 116.24 17.2, 122.67 24.46 C129.09 31.72, 135.64 40.11, 137.64 49.36 C139.64 58.61, 138.21 70.75, 134.7 79.96 C131.18 89.17, 124.28 98.22, 116.54 104.59 C108.79 110.97, 98.61 116.07, 88.23 118.2 C77.85 120.34, 64.71 119.52, 54.26 117.39 C43.81 115.26, 33.47 111.15, 25.54 105.45 C17.61 99.75, 10.95 91.5, 6.66 83.19 C2.37 74.87, -0.86 64.88, -0.18 55.55 C0.5 46.22, 5.23 35.08, 10.75 27.19 C16.27 19.31, 23.54 12.67, 32.94 8.25 C42.34 3.82, 61.65 2.04, 67.16 0.66 C72.67 -0.73, 66.03 -0.8, 65.99 -0.06" stroke="#1e1e1e" stroke-width="2" fill="none"></path></g><g transform="translate(385.8958262066151 853.9000289259704) rotate(0 38.0799560546875 25)"><text x="38.0799560546875" y="17.52" font-family="Virgil, Segoe UI Emoji" font-size="20px" fill="#1e1e1e" text-anchor="middle" style="white-space: pre;" direction="ltr" dominant-baseline="alphabetic">retrieve</text><text x="38.0799560546875" y="42.519999999999996" font-family="Virgil, Segoe UI Emoji" font-size="20px" fill="#1e1e1e" text-anchor="middle" style="white-space: pre;" direction="ltr" dominant-baseline="alphabetic">queue</text></g><g stroke-linecap="round" transform="translate(243.89406047897046 963.2463561222663) rotate(0 52.992793345098335 40.18134880012951)"><path d="M56.53 0.22 C65.51 0.05, 75.3 2.7, 82.92 6.84 C90.54 10.98, 98.41 18.12, 102.25 25.06 C106.08 32, 107.66 41.16, 105.94 48.47 C104.21 55.79, 98.61 63.77, 91.88 68.93 C85.14 74.1, 74.77 77.96, 65.5 79.45 C56.23 80.93, 45.21 80.32, 36.27 77.86 C27.34 75.39, 17.75 70.22, 11.9 64.66 C6.05 59.1, 2.09 51.69, 1.17 44.51 C0.26 37.34, 2.25 28.16, 6.39 21.59 C10.53 15.03, 16.53 8.65, 26.04 5.12 C35.56 1.59, 56.06 0.76, 63.47 0.4 C70.87 0.05, 70.66 2.41, 70.45 2.99 M49.52 1.61 C58.27 0.39, 68.64 0.76, 76.79 4.13 C84.94 7.49, 93.49 15.2, 98.41 21.81 C103.32 28.43, 106.87 36.66, 106.27 43.82 C105.67 50.98, 100.32 59.36, 94.79 64.77 C89.25 70.17, 81.55 73.58, 73.06 76.24 C64.56 78.9, 53.4 81.73, 43.81 80.72 C34.22 79.71, 22.76 75.29, 15.52 70.2 C8.28 65.11, 2.61 57.23, 0.38 50.17 C-1.84 43.11, -1.39 35.06, 2.15 27.83 C5.7 20.6, 14.1 11.25, 21.64 6.81 C29.18 2.38, 43.11 2.39, 47.38 1.22 C51.64 0.04, 47.07 -0.8, 47.22 -0.23" stroke="#1e1e1e" stroke-width="2" fill="none"></path></g><g transform="translate(273.43530982698235 991.0152007086023) rotate(0 23.47998046875 12.5)"><text x="23.47998046875" y="17.52" font-family="Virgil, Segoe UI Emoji" font-size="20px" fill="#1e1e1e" text-anchor="middle" style="white-space: pre;" direction="ltr" dominant-baseline="alphabetic">train</text></g><g stroke-linecap="round" transform="translate(383.65527369681195 1041.279700168895) rotate(0 50.66343979146768 60)"><path d="M63.2 0.86 C70.94 2.05, 78.39 9.56, 84.51 16.43 C90.63 23.3, 97.28 32.46, 99.92 42.09 C102.56 51.73, 102.48 64.37, 100.35 74.24 C98.22 84.11, 93.04 94.23, 87.13 101.31 C81.22 108.39, 72.99 113.86, 64.88 116.7 C56.77 119.54, 46.57 120.71, 38.46 118.36 C30.35 116.02, 22.3 109.37, 16.21 102.64 C10.12 95.92, 4.3 87.34, 1.93 77.99 C-0.43 68.65, -0.04 56.57, 2.04 46.57 C4.13 36.56, 8.9 25.45, 14.45 17.98 C20 10.51, 26.15 4.09, 35.34 1.74 C44.54 -0.6, 62.82 2.63, 69.63 3.9 C76.43 5.16, 76.28 8.27, 76.17 9.32 M26.94 8.21 C33.74 2.94, 43.93 0.43, 52.52 0.38 C61.1 0.33, 71.15 2.52, 78.46 7.9 C85.77 13.27, 92.37 23.51, 96.38 32.65 C100.39 41.78, 102.91 52.86, 102.5 62.73 C102.09 72.59, 98.58 83.34, 93.91 91.85 C89.24 100.36, 81.91 108.88, 74.49 113.77 C67.06 118.66, 57.94 121.55, 49.36 121.18 C40.78 120.81, 29.99 117.19, 22.99 111.54 C15.99 105.89, 11.42 95.95, 7.35 87.28 C3.28 78.62, -1.32 69.38, -1.43 59.52 C-1.54 49.66, 1.84 36.74, 6.69 28.13 C11.53 19.52, 24.45 11.35, 27.64 7.85 C30.82 4.35, 25.43 6.54, 25.78 7.13" stroke="#1e1e1e" stroke-width="2" fill="none"></path></g><g transform="translate(405.0942882745901 1063.853293297702) rotate(0 29.39996337890625 37.5)"><text x="29.39996337890625" y="17.52" font-family="Virgil, Segoe UI Emoji" font-size="20px" fill="#1e1e1e" text-anchor="middle" style="white-space: pre;" direction="ltr" dominant-baseline="alphabetic">store</text><text x="29.39996337890625" y="42.519999999999996" font-family="Virgil, Segoe UI Emoji" font-size="20px" fill="#1e1e1e" text-anchor="middle" style="white-space: pre;" direction="ltr" dominant-baseline="alphabetic">perfor</text><text x="29.39996337890625" y="67.52" font-family="Virgil, Segoe UI Emoji" font-size="20px" fill="#1e1e1e" text-anchor="middle" style="white-space: pre;" direction="ltr" dominant-baseline="alphabetic">mance</text></g><g stroke-linecap="round" transform="translate(480.32344617248555 944.6115276932211) rotate(0 71.62762177414402 60)"><path d="M46.95 3.71 C56.52 -0.08, 70.94 0.18, 81.86 1.35 C92.78 2.51, 103.6 5.46, 112.46 10.69 C121.32 15.91, 129.96 24.32, 135.04 32.69 C140.11 41.06, 143.05 51.61, 142.93 60.92 C142.81 70.23, 139.42 80.26, 134.32 88.56 C129.22 96.86, 121.51 105.52, 112.33 110.7 C103.14 115.89, 90.46 118.96, 79.2 119.67 C67.93 120.37, 55.06 118.29, 44.75 114.94 C34.45 111.59, 24.52 106.6, 17.36 99.57 C10.2 92.54, 4.29 81.88, 1.81 72.77 C-0.67 63.67, -0.25 53.88, 2.48 44.93 C5.21 35.98, 9.16 26.42, 18.21 19.08 C27.26 11.75, 48.78 3.95, 56.8 0.91 C64.81 -2.13, 65.94 -0.28, 66.3 0.83 M73.04 -0.86 C84.02 -1.74, 98.6 2.37, 108.22 7.38 C117.85 12.39, 125.22 21.08, 130.79 29.21 C136.36 37.34, 140.67 47.1, 141.64 56.17 C142.62 65.24, 140.67 75.13, 136.64 83.64 C132.6 92.14, 126.04 101.52, 117.44 107.19 C108.84 112.85, 95.97 115.79, 85.04 117.61 C74.12 119.42, 62.39 120.46, 51.89 118.07 C41.4 115.68, 30.27 109.88, 22.09 103.26 C13.91 96.64, 6.57 86.94, 2.81 78.33 C-0.95 69.72, -2.22 60.44, -0.45 51.6 C1.31 42.76, 6.53 32.97, 13.38 25.29 C20.23 17.61, 30.39 9.91, 40.62 5.5 C50.85 1.08, 69.1 -0.46, 74.76 -1.2 C80.43 -1.94, 74.68 -0.29, 74.61 1.06" stroke="#1e1e1e" stroke-width="2" fill="none"></path></g><g transform="translate(511.73273695141006 979.6851208220282) rotate(0 40.06995391845703 25)"><text x="40.06995391845703" y="17.52" font-family="Virgil, Segoe UI Emoji" font-size="20px" fill="#1e1e1e" text-anchor="middle" style="white-space: pre;" direction="ltr" dominant-baseline="alphabetic">serialize</text><text x="40.06995391845703" y="42.519999999999996" font-family="Virgil, Segoe UI Emoji" font-size="20px" fill="#1e1e1e" text-anchor="middle" style="white-space: pre;" direction="ltr" dominant-baseline="alphabetic">model</text></g><g stroke-linecap="round"><g transform="translate(352.67309714373914 876.0511174094077) rotate(0 -28.525789408519813 37.54253264524101)"><path d="M-0.31 -0.89 C-9.04 -0.32, -43.43 -9.88, -53.02 3.4 C-62.62 16.67, -57.16 66.32, -57.87 78.78 M1.73 1.26 C-7.02 2.03, -43.88 -7.62, -53.44 4.96 C-62.99 17.55, -54.93 64.4, -55.58 76.78" stroke="#1e1e1e" stroke-width="2" fill="none"></path></g><g transform="translate(352.67309714373914 876.0511174094077) rotate(0 -28.525789408519813 37.54253264524101)"><path d="M-65.45 53.81 C-64.47 61.27, -60.43 63.39, -55.58 76.78 M-65.45 53.81 C-62.87 62.49, -58.43 70.18, -55.58 76.78" stroke="#1e1e1e" stroke-width="2" fill="none"></path></g><g transform="translate(352.67309714373914 876.0511174094077) rotate(0 -28.525789408519813 37.54253264524101)"><path d="M-48.38 52.84 C-51.66 60.49, -51.88 62.86, -55.58 76.78 M-48.38 52.84 C-51.85 61.86, -53.47 69.9, -55.58 76.78" stroke="#1e1e1e" stroke-width="2" fill="none"></path></g></g><mask></mask><g stroke-linecap="round"><g transform="translate(302.154979831716 1044.5663370290945) rotate(0 34.29356263416264 28.137272878249064)"><path d="M-0.55 0.63 C-0.42 9.03, -12.28 41.5, 0.16 50.66 C12.61 59.83, 61.76 55.05, 74.12 55.6 M1.37 -0.09 C1.91 7.91, -9.64 39.79, 2.36 48.74 C14.37 57.69, 61.36 52.66, 73.4 53.62" stroke="#1e1e1e" stroke-width="2" fill="none"></path></g><g transform="translate(302.154979831716 1044.5663370290945) rotate(0 34.29356263416264 28.137272878249064)"><path d="M50.01 62.45 C56.94 58.71, 62.42 58.28, 73.4 53.62 M50.01 62.45 C59.15 58.94, 66.69 56.25, 73.4 53.62" stroke="#1e1e1e" stroke-width="2" fill="none"></path></g><g transform="translate(302.154979831716 1044.5663370290945) rotate(0 34.29356263416264 28.137272878249064)"><path d="M49.82 45.35 C56.83 45.92, 62.36 49.8, 73.4 53.62 M49.82 45.35 C59.06 47.98, 66.68 51.42, 73.4 53.62" stroke="#1e1e1e" stroke-width="2" fill="none"></path></g></g><mask></mask><g stroke-linecap="round"><g transform="translate(490.3353995453251 1104.7222735408789) rotate(0 31.059102346595864 -18.01883244041551)"><path d="M1.02 -0.47 C10.56 -0.98, 48.86 2.52, 58.16 -3.14 C67.46 -8.79, 57.03 -29.14, 56.82 -34.39 M0.1 -1.76 C9.36 -2.6, 47.61 0.96, 56.93 -4.78 C66.25 -10.52, 55.95 -30.84, 56 -36.17" stroke="#1e1e1e" stroke-width="2" fill="none"></path></g><g transform="translate(490.3353995453251 1104.7222735408789) rotate(0 31.059102346595864 -18.01883244041551)"><path d="M64.7 -23.06 C60.81 -28.64, 59.33 -33.03, 56 -36.17 M64.7 -23.06 C61.17 -27.7, 57.16 -32.87, 56 -36.17" stroke="#1e1e1e" stroke-width="2" fill="none"></path></g><g transform="translate(490.3353995453251 1104.7222735408789) rotate(0 31.059102346595864 -18.01883244041551)"><path d="M54.24 -20.54 C54.29 -27.16, 56.76 -32.5, 56 -36.17 M54.24 -20.54 C54.78 -26.23, 54.84 -32.38, 56 -36.17" stroke="#1e1e1e" stroke-width="2" fill="none"></path></g></g><mask></mask><g stroke-linecap="round"><g transform="translate(563.9581428332604 939.3463763990452) rotate(0 -29.630708563059898 -28.96775257744838)"><path d="M0.76 -1.17 C0.55 -10.05, 8.84 -42.53, -1.94 -52.13 C-12.71 -61.72, -53.33 -57.73, -63.89 -58.76 M-0.3 0.82 C-0.09 -7.37, 10.89 -40.95, 0.25 -50.76 C-10.39 -60.56, -53.22 -56.89, -64.15 -58.02" stroke="#1e1e1e" stroke-width="2" fill="none"></path></g><g transform="translate(563.9581428332604 939.3463763990452) rotate(0 -29.630708563059898 -28.96775257744838)"><path d="M-40.55 -66.27 C-48.19 -65.76, -52.52 -60.46, -64.15 -58.02 M-40.55 -66.27 C-45.63 -65.34, -49.67 -63.17, -64.15 -58.02" stroke="#1e1e1e" stroke-width="2" fill="none"></path></g><g transform="translate(563.9581428332604 939.3463763990452) rotate(0 -29.630708563059898 -28.96775257744838)"><path d="M-40.77 -49.17 C-48.51 -52.84, -52.8 -51.71, -64.15 -58.02 M-40.77 -49.17 C-45.74 -51.81, -49.73 -53.21, -64.15 -58.02" stroke="#1e1e1e" stroke-width="2" fill="none"></path></g></g><mask></mask><g stroke-linecap="round" transform="translate(623.8430207765734 911.4782258902538) rotate(0 46.00473268420626 19.799505205860896)"><path d="M9.9 0 C27.08 -1.55, 43.7 -0.31, 82.11 0 M9.9 0 C32.41 -0.07, 55.51 -0.59, 82.11 0 M82.11 0 C90.56 0.32, 92.25 3.41, 92.01 9.9 M82.11 0 C86.73 -1.03, 93.61 2.19, 92.01 9.9 M92.01 9.9 C93.93 12.68, 93.73 17.77, 92.01 29.7 M92.01 9.9 C92.82 15.7, 92.64 23.14, 92.01 29.7 M92.01 29.7 C93.3 35.56, 90.51 39, 82.11 39.6 M92.01 29.7 C92.34 35.56, 88.96 38.77, 82.11 39.6 M82.11 39.6 C63.14 40.99, 46.8 41.71, 9.9 39.6 M82.11 39.6 C63.8 40.24, 45.89 39.94, 9.9 39.6 M9.9 39.6 C2.18 39.05, -1.66 34.35, 0 29.7 M9.9 39.6 C2.77 39.36, -2.11 36.35, 0 29.7 M0 29.7 C1.49 24.79, 1.07 17.36, 0 9.9 M0 29.7 C0.16 23.96, 0.11 15.87, 0 9.9 M0 9.9 C-0.55 3.2, 4.07 -0.29, 9.9 0 M0 9.9 C-1.08 2.89, 1.52 1.31, 9.9 0" stroke="#1e1e1e" stroke-width="2" fill="none"></path></g><g transform="translate(644.1877803162486 918.7777310961147) rotate(0 25.65997314453125 12.5)"><text x="25.65997314453125" y="17.52" font-family="Virgil, Segoe UI Emoji" font-size="20px" fill="#1e1e1e" text-anchor="middle" style="white-space: pre;" direction="ltr" dominant-baseline="alphabetic">model</text></g><g stroke-linecap="round"><g transform="translate(629.645262104824 1004.3396601907037) rotate(0 19.60822477286615 -19.52525489579523)"><path d="M-0.32 0.04 C5.44 -0.69, 28.52 3.42, 35.16 -3.29 C41.8 -10.01, 38.55 -34.09, 39.53 -40.23 M1.72 -0.98 C7.28 -1.02, 28.15 4.44, 34.3 -1.88 C40.44 -8.2, 37.92 -32.72, 38.58 -38.9" stroke="#1e1e1e" stroke-width="2" fill="none"></path></g><g transform="translate(629.645262104824 1004.3396601907037) rotate(0 19.60822477286615 -19.52525489579523)"><path d="M44.89 -21.24 C42.57 -27.22, 39.93 -34.22, 38.58 -38.9 M44.89 -21.24 C42.74 -26.74, 40.55 -31.04, 38.58 -38.9" stroke="#1e1e1e" stroke-width="2" fill="none"></path></g><g transform="translate(629.645262104824 1004.3396601907037) rotate(0 19.60822477286615 -19.52525489579523)"><path d="M32.06 -21.32 C34.26 -27.24, 36.13 -34.21, 38.58 -38.9 M32.06 -21.32 C33.78 -26.81, 35.46 -31.08, 38.58 -38.9" stroke="#1e1e1e" stroke-width="2" fill="none"></path></g></g><mask></mask><g stroke-linecap="round"><g transform="translate(665.8922292537925 901.8647520864944) rotate(0 9.823191035625541 -202.17784229544102)"><path d="M-0.31 -0.8 C-7.28 -60.17, -51.29 -288.59, -41.16 -356.08 C-31.02 -423.57, 43.29 -397.55, 60.52 -405.74 M1.73 1.39 C-5.39 -57.77, -51.93 -286.81, -41.74 -354.46 C-31.56 -422.11, 45.41 -396.26, 62.84 -404.51" stroke="#1e1e1e" stroke-width="2" fill="none"></path></g><g transform="translate(665.8922292537925 901.8647520864944) rotate(0 9.823191035625541 -202.17784229544102)"><path d="M39.89 -394.6 C46.68 -396.9, 56.42 -403.4, 62.84 -404.51 M39.89 -394.6 C47.36 -397.19, 52.99 -400.45, 62.84 -404.51" stroke="#1e1e1e" stroke-width="2" fill="none"></path></g><g transform="translate(665.8922292537925 901.8647520864944) rotate(0 9.823191035625541 -202.17784229544102)"><path d="M38.89 -411.67 C46.06 -407.91, 56.15 -408.35, 62.84 -404.51 M38.89 -411.67 C46.74 -409.37, 52.65 -407.73, 62.84 -404.51" stroke="#1e1e1e" stroke-width="2" fill="none"></path></g></g><mask></mask><g stroke-linecap="round" transform="translate(651.0081098885712 349.68806013932476) rotate(0 68.76075075867425 42.5)"><path d="M21.25 0 C53.72 1.1, 87.96 -0.34, 116.27 0 M21.25 0 C44.93 -0.61, 69.57 -0.4, 116.27 0 M116.27 0 C130.7 1.67, 138.07 7.28, 137.52 21.25 M116.27 0 C128.39 -1.86, 137.09 5.92, 137.52 21.25 M137.52 21.25 C136.09 36.68, 135.95 53.96, 137.52 63.75 M137.52 21.25 C138.04 33.59, 138.15 44.74, 137.52 63.75 M137.52 63.75 C138.19 76.7, 129.96 86.86, 116.27 85 M137.52 63.75 C137.4 76.44, 131.06 82.86, 116.27 85 M116.27 85 C83.59 85.15, 46.84 85.15, 21.25 85 M116.27 85 C88.68 84.78, 60.27 85.38, 21.25 85 M21.25 85 C6.17 85.56, -0.21 76.21, 0 63.75 M21.25 85 C9.02 83.3, -2.14 78.93, 0 63.75 M0 63.75 C0.69 51.78, -0.27 39.01, 0 21.25 M0 63.75 C0.8 50.63, -0.02 35.7, 0 21.25 M0 21.25 C0.03 6.26, 6.36 0.95, 21.25 0 M0 21.25 C1.17 6.46, 8.71 0.05, 21.25 0" stroke="#1e1e1e" stroke-width="2" fill="none"></path></g><g transform="translate(672.1589058132613 354.68806013932476) rotate(0 47.609954833984375 37.5)"><text x="47.609954833984375" y="17.52" font-family="Virgil, Segoe UI Emoji" font-size="20px" fill="#1e1e1e" text-anchor="middle" style="white-space: pre;" direction="ltr" dominant-baseline="alphabetic">Queue </text><text x="47.609954833984375" y="42.519999999999996" font-family="Virgil, Segoe UI Emoji" font-size="20px" fill="#1e1e1e" text-anchor="middle" style="white-space: pre;" direction="ltr" dominant-baseline="alphabetic">Producer </text><text x="47.609954833984375" y="67.52" font-family="Virgil, Segoe UI Emoji" font-size="20px" fill="#1e1e1e" text-anchor="middle" style="white-space: pre;" direction="ltr" dominant-baseline="alphabetic">call</text></g><g stroke-linecap="round" transform="translate(1104.3188921734813 463.53065123157046) rotate(0 73.16038075848996 42.5)"><path d="M83.86 -0.51 C94.67 -0.46, 107.23 3.2, 116.23 7.16 C125.23 11.11, 132.74 17.2, 137.88 23.23 C143.03 29.27, 147.31 36.75, 147.11 43.35 C146.9 49.95, 142.17 57.16, 136.63 62.84 C131.09 68.52, 123.09 73.75, 113.86 77.44 C104.64 81.12, 92.76 84.23, 81.28 84.95 C69.81 85.67, 55.56 84.28, 45.01 81.73 C34.45 79.18, 25.14 74.67, 17.93 69.66 C10.72 64.65, 4.35 57.99, 1.73 51.68 C-0.89 45.37, -0.55 38.11, 2.24 31.8 C5.02 25.49, 10.58 18.63, 18.43 13.82 C26.29 9.01, 36.85 4.94, 49.37 2.92 C61.88 0.9, 84.48 1.48, 93.52 1.72 C102.57 1.96, 103.95 3.65, 103.61 4.36 M92.97 1.72 C103.88 2.84, 115.13 8.15, 123.26 12.43 C131.4 16.7, 138.22 21.41, 141.77 27.37 C145.32 33.32, 146.09 41.3, 144.57 48.14 C143.04 54.98, 138.89 62.98, 132.62 68.4 C126.35 73.82, 117.31 77.97, 106.96 80.67 C96.6 83.38, 82.22 84.99, 70.47 84.62 C58.72 84.26, 46.32 81.5, 36.48 78.51 C26.64 75.52, 17.49 71.92, 11.42 66.66 C5.35 61.4, 0.86 53.67, 0.06 46.97 C-0.73 40.27, 2.28 32.45, 6.65 26.44 C11.02 20.43, 17.95 14.94, 26.28 10.93 C34.62 6.92, 45.84 4.08, 56.65 2.36 C67.46 0.65, 85.24 0.81, 91.12 0.64 C96.99 0.46, 92.08 0.42, 91.9 1.33" stroke="#1e1e1e" stroke-width="2" fill="none"></path></g><g transform="translate(1135.2171033217346 480.9786130311422) rotate(0 42.02996826171875 25)"><text x="42.02996826171875" y="17.52" font-family="Virgil, Segoe UI Emoji" font-size="20px" fill="#1e1e1e" text-anchor="middle" style="white-space: pre;" direction="ltr" dominant-baseline="alphabetic">Trained </text><text x="42.02996826171875" y="42.519999999999996" font-family="Virgil, Segoe UI Emoji" font-size="20px" fill="#1e1e1e" text-anchor="middle" style="white-space: pre;" direction="ltr" dominant-baseline="alphabetic">Model</text></g><g mask="url(#mask--O_qINAlUkO7Q9VRLPrxn)" stroke-linecap="round"><g transform="translate(799.6403898014364 399.0660184090672) rotate(0 207.9676918591913 -8.487762416402987)"><path d="M0.61 0.14 C29.7 -3.38, 106.37 -22.35, 175.68 -21.59 C244.99 -20.84, 376.37 0.37, 416.46 4.64 M-0.53 -0.84 C28.85 -4.17, 108.63 -20.98, 178.05 -20.41 C247.46 -19.84, 376.2 -1.69, 415.97 2.56" stroke="#1e1e1e" stroke-width="2" fill="none"></path></g><g transform="translate(799.6403898014364 399.0660184090672) rotate(0 207.9676918591913 -8.487762416402987)"><path d="M391.62 8.23 C401.53 4.76, 409.84 4.46, 415.97 2.56 M391.62 8.23 C400.6 5.77, 408.65 3.39, 415.97 2.56" stroke="#1e1e1e" stroke-width="2" fill="none"></path></g><g transform="translate(799.6403898014364 399.0660184090672) rotate(0 207.9676918591913 -8.487762416402987)"><path d="M393.67 -8.74 C402.7 -5.48, 410.2 0.96, 415.97 2.56 M393.67 -8.74 C401.99 -5.42, 409.34 -2.01, 415.97 2.56" stroke="#1e1e1e" stroke-width="2" fill="none"></path></g></g><mask id="mask--O_qINAlUkO7Q9VRLPrxn"><rect x="0" y="0" fill="#fff" width="1315.592477640418" height="524.1373701973683"></rect><rect x="932.2438383321423" y="365.64348141613203" fill="#000" width="87.47990417480469" height="25" opacity="1"></rect></mask><g transform="translate(932.2438383321423 365.6434814161321) rotate(0 75.36424332848537 24.93477457653215)"><text x="43.739952087402344" y="17.52" font-family="Virgil, Segoe UI Emoji" font-size="20px" fill="#1e1e1e" text-anchor="middle" style="white-space: pre;" direction="ltr" dominant-baseline="alphabetic">Produces</text></g><g stroke-linecap="round" transform="translate(10 278.13445206085385) rotate(0 74.29190219565044 42.96399163121947)"><path d="M76.53 -0.06 C87.31 -0.23, 100.09 3.05, 110.21 6.53 C120.33 10.01, 130.82 15.38, 137.24 20.82 C143.67 26.26, 147.75 32.59, 148.75 39.16 C149.75 45.73, 147.85 54.13, 143.26 60.24 C138.66 66.35, 130.16 71.79, 121.15 75.81 C112.15 79.83, 100.53 83.05, 89.25 84.36 C77.97 85.67, 64.67 85.41, 53.48 83.68 C42.29 81.94, 30.4 78.33, 22.09 73.95 C13.77 69.57, 7.27 63.66, 3.59 57.4 C-0.09 51.13, -1.67 42.91, 0.01 36.36 C1.7 29.81, 6.71 23.44, 13.72 18.1 C20.74 12.75, 29.41 7.18, 42.11 4.31 C54.82 1.45, 79.8 1.05, 89.94 0.9 C100.08 0.74, 103.19 2.74, 102.96 3.37 M46.33 3.13 C56.1 0.49, 71.01 0.82, 82.33 1.52 C93.65 2.22, 104.67 4.06, 114.24 7.33 C123.81 10.61, 133.91 15.35, 139.76 21.17 C145.61 26.98, 149.23 35.27, 149.33 42.21 C149.43 49.14, 145.71 57.04, 140.37 62.79 C135.03 68.54, 126.34 72.83, 117.27 76.71 C108.2 80.59, 97.3 85.12, 85.95 86.04 C74.6 86.96, 60.04 84.36, 49.17 82.22 C38.3 80.08, 28.56 77.8, 20.72 73.22 C12.89 68.63, 5.08 61.37, 2.14 54.7 C-0.81 48.03, 0.27 39.92, 3.04 33.21 C5.82 26.5, 11.56 19.66, 18.78 14.47 C26 9.28, 41.64 3.73, 46.35 2.07 C51.06 0.41, 46.4 3.74, 47.06 4.52" stroke="none" stroke-width="0" fill="#ffec99"></path><path d="M42.98 4.85 C52.55 1.67, 66.65 0.88, 78.02 1.01 C89.39 1.13, 101.36 2.22, 111.18 5.59 C121.01 8.97, 130.89 15.42, 136.95 21.27 C143 27.13, 146.67 34.09, 147.5 40.72 C148.34 47.34, 146.25 54.91, 141.96 61.02 C137.67 67.12, 130.72 73.24, 121.76 77.36 C112.81 81.48, 99.81 84.55, 88.21 85.74 C76.62 86.93, 63.17 86.39, 52.18 84.5 C41.19 82.61, 30.34 79.27, 22.27 74.4 C14.2 69.53, 7.33 61.83, 3.77 55.28 C0.21 48.73, -0.9 41.36, 0.93 35.11 C2.77 28.85, 6.38 23.33, 14.79 17.75 C23.19 12.18, 43.55 4.17, 51.34 1.65 C59.12 -0.88, 61.14 1.88, 61.49 2.61 M42.81 5.15 C52.25 1.99, 67.71 -0.14, 79.19 0.01 C90.67 0.16, 101.72 2.41, 111.71 6.05 C121.71 9.68, 133.2 16.01, 139.17 21.8 C145.14 27.6, 147.01 34.27, 147.51 40.82 C148.01 47.38, 146.57 55.34, 142.15 61.13 C137.74 66.92, 130.18 71.66, 121.03 75.57 C111.88 79.48, 98.52 83.29, 87.25 84.6 C75.98 85.91, 64.14 85.16, 53.42 83.43 C42.71 81.7, 31.42 78.91, 22.98 74.22 C14.53 69.53, 6.18 61.78, 2.74 55.3 C-0.69 48.83, 0.36 41.95, 2.37 35.37 C4.38 28.8, 7.83 20.99, 14.8 15.86 C21.76 10.73, 39.18 6.28, 44.17 4.58 C49.15 2.88, 44.24 5.36, 44.71 5.64" stroke="#1e1e1e" stroke-width="2" fill="none"></path></g><g transform="translate(63.379620000623845 308.718313862796) rotate(0 20.879974365234375 12.5)"><text x="20.879974365234375" y="17.52" font-family="Virgil, Segoe UI Emoji" font-size="20px" fill="#1e1e1e" text-anchor="middle" style="white-space: pre;" direction="ltr" dominant-baseline="alphabetic">user</text></g><g stroke-linecap="round"><g transform="translate(146.24607144221068 360.5347361245872) rotate(0 82.05664427307931 45.7426537644328)"><path d="M-0.97 1.02 C26.63 16.07, 137.37 74.78, 165.08 89.35 M0.73 0.51 C28.26 15.86, 137.06 76.17, 164.44 90.98" stroke="#1e1e1e" stroke-width="2" fill="none"></path></g><g transform="translate(146.24607144221068 360.5347361245872) rotate(0 82.05664427307931 45.7426537644328)"><path d="M139.73 87.17 C147.78 89.32, 152.76 90.71, 164.44 90.98 M139.73 87.17 C144.8 89.06, 151.83 88.18, 164.44 90.98" stroke="#1e1e1e" stroke-width="2" fill="none"></path></g><g transform="translate(146.24607144221068 360.5347361245872) rotate(0 82.05664427307931 45.7426537644328)"><path d="M147.95 72.18 C153.76 78.14, 156.61 83.4, 164.44 90.98 M147.95 72.18 C151.06 77.62, 156.11 80.32, 164.44 90.98" stroke="#1e1e1e" stroke-width="2" fill="none"></path></g></g><mask></mask><g stroke-linecap="round" transform="translate(739.0030692037562 445.3355451731145) rotate(0 68.76075075867425 42.5)"><path d="M21.25 0 C44.89 0.64, 71.17 0.42, 116.27 0 M21.25 0 C59.01 0.65, 95.98 -0.69, 116.27 0 M116.27 0 C131.87 0.38, 139.24 8.96, 137.52 21.25 M116.27 0 C129.84 0.43, 135.88 9.03, 137.52 21.25 M137.52 21.25 C138.25 32.06, 136.23 47.45, 137.52 63.75 M137.52 21.25 C137.51 31.42, 138.37 41.48, 137.52 63.75 M137.52 63.75 C139.27 76.69, 128.44 84.4, 116.27 85 M137.52 63.75 C138.66 75.94, 128.49 83.47, 116.27 85 M116.27 85 C95.78 83.58, 72.99 84.06, 21.25 85 M116.27 85 C91.01 84.47, 66.01 85.72, 21.25 85 M21.25 85 C5.82 83.22, 1.7 79.53, 0 63.75 M21.25 85 C4.97 85.86, -0.56 79.32, 0 63.75 M0 63.75 C-0.09 48.64, -0.61 37.37, 0 21.25 M0 63.75 C-0.73 46.84, -0.77 29.81, 0 21.25 M0 21.25 C-0.69 8.66, 8.73 -0.64, 21.25 0 M0 21.25 C0.48 5.82, 8.13 -1.04, 21.25 0" stroke="#1e1e1e" stroke-width="2" fill="none"></path></g><g transform="translate(760.1538651284463 450.3355451731145) rotate(0 47.609954833984375 37.5)"><text x="47.609954833984375" y="17.52" font-family="Virgil, Segoe UI Emoji" font-size="20px" fill="#1e1e1e" text-anchor="middle" style="white-space: pre;" direction="ltr" dominant-baseline="alphabetic">Model </text><text x="47.609954833984375" y="42.519999999999996" font-family="Virgil, Segoe UI Emoji" font-size="20px" fill="#1e1e1e" text-anchor="middle" style="white-space: pre;" direction="ltr" dominant-baseline="alphabetic">Producer </text><text x="47.609954833984375" y="67.52" font-family="Virgil, Segoe UI Emoji" font-size="20px" fill="#1e1e1e" text-anchor="middle" style="white-space: pre;" direction="ltr" dominant-baseline="alphabetic">call</text></g><g mask="url(#mask-t7imSxO38Ab3DJdf-3NCS)" stroke-linecap="round"><g transform="translate(885.1999474555682 498.2296091842674) rotate(0 110.74037674413398 18.16736800966231)"><path d="M-0.41 0.45 C14.31 5.52, 50.17 25.23, 87.22 31.15 C124.27 37.06, 199.49 35.09, 221.89 35.93 M1.58 -0.37 C16.77 4.76, 52.81 25.94, 89.48 32.12 C126.16 38.3, 199.52 35.91, 221.64 36.7" stroke="#1e1e1e" stroke-width="2" fill="none"></path></g><g transform="translate(885.1999474555682 498.2296091842674) rotate(0 110.74037674413398 18.16736800966231)"><path d="M198.11 45.12 C203.67 42.05, 206 43.37, 221.64 36.7 M198.11 45.12 C203.75 43.9, 208.14 40.84, 221.64 36.7" stroke="#1e1e1e" stroke-width="2" fill="none"></path></g><g transform="translate(885.1999474555682 498.2296091842674) rotate(0 110.74037674413398 18.16736800966231)"><path d="M198.2 28.02 C203.84 28.48, 206.15 33.34, 221.64 36.7 M198.2 28.02 C203.93 30.45, 208.29 31.03, 221.64 36.7" stroke="#1e1e1e" stroke-width="2" fill="none"></path></g></g><mask id="mask-t7imSxO38Ab3DJdf-3NCS"><rect x="0" y="0" fill="#fff" width="1206.1000913994694" height="635.2024052331881"></rect><rect x="929.5246109485952" y="517.9532661507337" fill="#000" width="87.47990417480469" height="25" opacity="1"></rect></mask><g transform="translate(929.5246109485952 517.9532661507335) rotate(0 66.41571325110704 -1.5562889568038827)"><text x="43.739952087402344" y="17.52" font-family="Virgil, Segoe UI Emoji" font-size="20px" fill="#1e1e1e" text-anchor="middle" style="white-space: pre;" direction="ltr" dominant-baseline="alphabetic">Produces</text></g><g stroke-linecap="round" transform="translate(643.3466764181167 539.4735825177119) rotate(0 68.76075075867425 42.5)"><path d="M21.25 0 C42.27 0.51, 66.11 -2.86, 116.27 0 M21.25 0 C42.37 -0.81, 64.48 0.48, 116.27 0 M116.27 0 C130.63 0.01, 138.38 8.15, 137.52 21.25 M116.27 0 C129.24 1.66, 139.65 4.97, 137.52 21.25 M137.52 21.25 C136.41 33.08, 138.25 44.17, 137.52 63.75 M137.52 21.25 C137.69 37.37, 137.19 53.69, 137.52 63.75 M137.52 63.75 C137.08 77.31, 131.96 86.24, 116.27 85 M137.52 63.75 C135.43 77.89, 128.36 83.48, 116.27 85 M116.27 85 C91.32 85.15, 65.92 84.06, 21.25 85 M116.27 85 C96.9 83.36, 76.52 83.52, 21.25 85 M21.25 85 C6.47 83.79, -0.55 78.61, 0 63.75 M21.25 85 C5.15 87.29, -1.3 80.07, 0 63.75 M0 63.75 C-0.21 45.38, 0.32 30.28, 0 21.25 M0 63.75 C-0.15 51.83, -1.28 42.34, 0 21.25 M0 21.25 C-0.27 8.96, 6.64 0.83, 21.25 0 M0 21.25 C1.69 6.28, 8.8 0.76, 21.25 0" stroke="#1e1e1e" stroke-width="2" fill="none"></path></g><g transform="translate(663.2474723428068 544.4735825177119) rotate(0 48.859954833984375 37.5)"><text x="48.859954833984375" y="17.52" font-family="Virgil, Segoe UI Emoji" font-size="20px" fill="#1e1e1e" text-anchor="middle" style="white-space: pre;" direction="ltr" dominant-baseline="alphabetic">Model </text><text x="48.859954833984375" y="42.519999999999996" font-family="Virgil, Segoe UI Emoji" font-size="20px" fill="#1e1e1e" text-anchor="middle" style="white-space: pre;" direction="ltr" dominant-baseline="alphabetic">Consumer </text><text x="48.859954833984375" y="67.52" font-family="Virgil, Segoe UI Emoji" font-size="20px" fill="#1e1e1e" text-anchor="middle" style="white-space: pre;" direction="ltr" dominant-baseline="alphabetic">loop</text></g><g mask="url(#mask-2AY-mxX546Zt8IH_n2Hyi)" stroke-linecap="round"><g transform="translate(797.1353318751371 588.1507729103256) rotate(0 201.74852646089903 -12.954826548234081)"><path d="M-0.91 0.47 C46.55 1.19, 216.82 8.67, 284.37 3.68 C351.92 -1.3, 384.59 -23.58, 404.41 -29.44 M0.81 -0.32 C48.19 0.1, 216.47 7.06, 283.65 1.9 C350.84 -3.26, 383.99 -25.82, 403.92 -31.3" stroke="#1e1e1e" stroke-width="2" fill="none"></path></g><g transform="translate(797.1353318751371 588.1507729103256) rotate(0 201.74852646089903 -12.954826548234081)"><path d="M385.14 -14.79 C390.97 -18.27, 396.21 -22.47, 403.92 -31.3 M385.14 -14.79 C392.8 -20.07, 399.91 -27.34, 403.92 -31.3" stroke="#1e1e1e" stroke-width="2" fill="none"></path></g><g transform="translate(797.1353318751371 588.1507729103256) rotate(0 201.74852646089903 -12.954826548234081)"><path d="M378.93 -30.72 C386.31 -29.95, 393.19 -29.96, 403.92 -31.3 M378.93 -30.72 C388.85 -29.94, 398.31 -31.19, 403.92 -31.3" stroke="#1e1e1e" stroke-width="2" fill="none"></path></g></g><mask id="mask-2AY-mxX546Zt8IH_n2Hyi"><rect x="0" y="0" fill="#fff" width="1301.0178791922808" height="721.5545926132472"></rect><rect x="1036.0778472625689" y="578.6874837924094" fill="#000" width="89.97990417480469" height="25" opacity="1"></rect></mask><g transform="translate(1036.0778472625689 578.6874837924095) rotate(0 -37.19398892653271 -3.491537430317834)"><text x="44.989952087402344" y="17.52" font-family="Virgil, Segoe UI Emoji" font-size="20px" fill="#1e1e1e" text-anchor="middle" style="white-space: pre;" direction="ltr" dominant-baseline="alphabetic">Consumes</text></g><g mask="url(#mask-VKykhk8-pnJQToGNRzNM-)" stroke-linecap="round"><g transform="translate(789.5435546699277 594.2241946744931) rotate(0 201.80523951969872 132.95039854979538)"><path d="M-0.9 1.07 C57.31 12.63, 280.92 25.24, 348.49 69.28 C416.06 113.32, 395.23 232.88, 404.51 265.32 M0.82 0.58 C59.49 11.82, 283.61 23.83, 350.82 67.66 C418.03 111.49, 395.11 230.7, 404.08 263.57" stroke="#1e1e1e" stroke-width="2" fill="none"></path></g><g transform="translate(789.5435546699277 594.2241946744931) rotate(0 201.80523951969872 132.95039854979538)"><path d="M394.21 240.6 C398.29 244.84, 400.41 252.49, 404.08 263.57 M394.21 240.6 C397.48 249.75, 402.73 258.23, 404.08 263.57" stroke="#1e1e1e" stroke-width="2" fill="none"></path></g><g transform="translate(789.5435546699277 594.2241946744931) rotate(0 201.80523951969872 132.95039854979538)"><path d="M411.29 239.63 C411.36 243.96, 409.48 251.84, 404.08 263.57 M411.29 239.63 C407.83 249.12, 406.36 257.98, 404.08 263.57" stroke="#1e1e1e" stroke-width="2" fill="none"></path></g></g><mask id="mask-VKykhk8-pnJQToGNRzNM-"><rect x="0" y="0" fill="#fff" width="1293.4261019870714" height="958.4180414157825"></rect><rect x="1111.425332659856" y="650.0501895213783" fill="#000" width="54.67994689941406" height="25" opacity="1"></rect></mask><g transform="translate(1111.425332659856 650.0501895213783) rotate(0 -120.07653847022948 77.12440370291014)"><text x="27.33997344970703" y="17.52" font-family="Virgil, Segoe UI Emoji" font-size="20px" fill="#1e1e1e" text-anchor="middle" style="white-space: pre;" direction="ltr" dominant-baseline="alphabetic">Sends</text></g></svg>