<svg version="1.1" xmlns="http://www.w3.org/2000/svg" viewBox="0 0 1255.150278105014 1189.3337201814068" width="1255.150278105014" height="1189.3337201814068">
  <!-- svg-source:excalidraw -->
  
  <defs>
    <style class="style-fonts">
      @font-face {
        font-family: "Virgil";
        src: url("https://excalidraw.com/Virgil.woff2");
      }
      @font-face {
        font-family: "Cascadia";
        src: url("https://excalidraw.com/Cascadia.woff2");
      }
      @font-face {
        font-family: "Assistant";
        src: url("https://excalidraw.com/Assistant-Regular.woff2");
      }
    </style>
    
  </defs>
  <rect x="0" y="0" width="1255.150278105014" height="1189.3337201814068" fill="#f5faff"></rect><g stroke-opacity="0.5" fill-opacity="0.5" stroke-linecap="round" transform="translate(10 10) rotate(0 617.575139052507 584.6668600907034)"><path d="M32 0 C353.92 7.74, 671.61 6.77, 1203.15 0 C1224.9 -0.81, 1232.25 12.77, 1235.15 32 C1238.78 360.08, 1239.25 688.2, 1235.15 1137.33 C1233.79 1155.21, 1227.17 1169.45, 1203.15 1169.33 C750.25 1171.19, 295.67 1171.24, 32 1169.33 C8.62 1171.42, 3.49 1157.05, 0 1137.33 C1.55 852.55, 1.62 570.21, 0 32 C-0.38 10.9, 12.96 -2.72, 32 0" stroke="none" stroke-width="0" fill="#99e9f2"></path><path d="M32 0 C282.99 0.58, 534.84 1.09, 1203.15 0 M32 0 C356.79 -1.17, 681.38 -1.67, 1203.15 0 M1203.15 0 C1224.59 -0.17, 1235.13 10.97, 1235.15 32 M1203.15 0 C1226.6 -1.48, 1234.12 9.01, 1235.15 32 M1235.15 32 C1236.72 423.21, 1236.23 815.28, 1235.15 1137.33 M1235.15 32 C1236.11 285.31, 1236.04 538.81, 1235.15 1137.33 M1235.15 1137.33 C1234.32 1157.3, 1225.07 1169.39, 1203.15 1169.33 M1235.15 1137.33 C1237.05 1158.61, 1223.69 1167.86, 1203.15 1169.33 M1203.15 1169.33 C793.81 1164.48, 385.42 1164.45, 32 1169.33 M1203.15 1169.33 C929.34 1169.84, 655.18 1169.85, 32 1169.33 M32 1169.33 C11.28 1170.78, -0.47 1157.23, 0 1137.33 M32 1169.33 C12.58 1170.37, 1.98 1157.04, 0 1137.33 M0 1137.33 C4.8 729.31, 4.45 319.92, 0 32 M0 1137.33 C4.28 854.42, 3.94 571.8, 0 32 M0 32 C-0.99 9.49, 9.58 1.54, 32 0 M0 32 C1.87 12.24, 10.38 1.17, 32 0" stroke="#1e1e1e" stroke-width="2" fill="none"></path></g><g stroke-linecap="round" transform="translate(227.6673479105134 55.774071709712814) rotate(0 387.53411943512083 78.85309626223302)"><path d="M32 0 C181.33 -1.77, 333.58 -1.44, 743.07 0 C761.5 2.1, 774.96 12.47, 775.07 32 C774.91 63.4, 773.28 93.94, 775.07 125.71 C777.76 147.15, 767.56 158.69, 743.07 157.71 C505.43 152.86, 266.19 154.72, 32 157.71 C14.15 156.09, -1.56 146.15, 0 125.71 C-0.4 93.41, 0.11 60.72, 0 32 C2.29 7.94, 13.68 2.12, 32 0" stroke="none" stroke-width="0" fill="#a5d8ff"></path><path d="M32 0 C240.32 -0.01, 446.88 -1.06, 743.07 0 M32 0 C264.46 -1.15, 497.33 -0.79, 743.07 0 M743.07 0 C764.38 0.3, 776.91 9.38, 775.07 32 M743.07 0 C763.37 -1.66, 776.31 11.62, 775.07 32 M775.07 32 C772.9 65, 773.35 94.61, 775.07 125.71 M775.07 32 C774.46 64.46, 774.44 96.33, 775.07 125.71 M775.07 125.71 C775.66 147.1, 766.05 157.66, 743.07 157.71 M775.07 125.71 C774.28 145.56, 765.54 158.53, 743.07 157.71 M743.07 157.71 C593.94 154.67, 443.07 155.38, 32 157.71 M743.07 157.71 C517.15 155.12, 291.53 155.71, 32 157.71 M32 157.71 C10.19 156.27, 1.66 147.94, 0 125.71 M32 157.71 C12.64 156.08, 1.6 144.93, 0 125.71 M0 125.71 C0.11 92.23, -1.77 57.45, 0 32 M0 125.71 C-0.83 89.69, -0.92 55.01, 0 32 M0 32 C-1.09 12.2, 12.29 1.37, 32 0 M0 32 C-0.29 11.83, 10.06 2.29, 32 0" stroke="#1e1e1e" stroke-width="2" fill="none"></path></g><g transform="translate(556.2000177606733 115.39470546896217) rotate(0 59.00144958496094 19.232462502983662)"><text x="59.00144958496094" y="26.9562194441819" font-family="Virgil, Segoe UI Emoji" font-size="30.77194000477386px" fill="#1e1e1e" text-anchor="middle" style="white-space: pre;" direction="ltr" dominant-baseline="alphabetic">Typhoon</text></g><g stroke-linecap="round" transform="translate(874.4591606215322 884.801154621111) rotate(0 119.79076644715542 130.7807450202888)"><path d="M32 0 C82.55 -0.37, 124.83 2.79, 207.58 0 C232.4 0.54, 237.42 11.23, 239.58 32 C235.64 84.21, 235.66 136.68, 239.58 229.56 C239.01 250.04, 230.56 261.99, 207.58 261.56 C153.83 261.57, 96.74 257.87, 32 261.56 C12.25 264.72, -1.68 254.22, 0 229.56 C-0.84 161.28, -3.66 93.74, 0 32 C-0.68 13.32, 11.44 -2.94, 32 0" stroke="none" stroke-width="0" fill="#ffec99"></path><path d="M32 0 C69.4 0.84, 106.34 0.41, 207.58 0 M32 0 C97.96 -1.66, 165.24 -1.01, 207.58 0 M207.58 0 C227.58 0.06, 238.44 12.41, 239.58 32 M207.58 0 C231.06 0.34, 241.82 11.72, 239.58 32 M239.58 32 C240.2 105.66, 236.94 181.19, 239.58 229.56 M239.58 32 C237.52 82.86, 237.87 133.9, 239.58 229.56 M239.58 229.56 C239.51 251.72, 230.67 261.64, 207.58 261.56 M239.58 229.56 C240.45 250.37, 229.12 260.31, 207.58 261.56 M207.58 261.56 C155.21 263.41, 100.42 263.65, 32 261.56 M207.58 261.56 C141.68 259.63, 74.55 260.56, 32 261.56 M32 261.56 C11.2 263.14, 0.77 251.06, 0 229.56 M32 261.56 C10.98 261.23, -0.61 252.32, 0 229.56 M0 229.56 C2.06 190.46, 2.84 147.91, 0 32 M0 229.56 C-1.2 187.3, -0.78 144.2, 0 32 M0 32 C1.74 10.12, 9.31 -0.65, 32 0 M0 32 C0.82 9.9, 10.37 -1.73, 32 0" stroke="#1e1e1e" stroke-width="2" fill="none"></path></g><g stroke-linecap="round" transform="translate(921.9050281892437 907.061478488434) rotate(0 74.50477706381298 34.23192459688704)"><path d="M17.12 0 C53.02 -0.54, 87.8 -1.36, 131.89 0 C139.85 0.95, 151.65 5.87, 149.01 17.12 C148.87 24.65, 149.91 36.93, 149.01 51.35 C151.48 65.63, 146.4 67.72, 131.89 68.46 C87.69 67.79, 44.9 65.59, 17.12 68.46 C2.66 70.59, 1.46 65.38, 0 51.35 C2.23 38.47, -3.21 26.48, 0 17.12 C1.13 4.27, 9.15 -1.92, 17.12 0" stroke="none" stroke-width="0" fill="#ffec99"></path><path d="M17.12 0 C51.44 0.1, 88.21 -1.96, 131.89 0 M17.12 0 C59.68 0.69, 99.88 0.49, 131.89 0 M131.89 0 C141.44 1.7, 148.26 4.88, 149.01 17.12 M131.89 0 C144.17 -1.17, 147.97 7.44, 149.01 17.12 M149.01 17.12 C150.44 30.88, 148.88 42.96, 149.01 51.35 M149.01 17.12 C148.89 28.22, 148.69 39.1, 149.01 51.35 M149.01 51.35 C148.76 62.84, 141.9 68.98, 131.89 68.46 M149.01 51.35 C150.36 63.16, 141.58 66.67, 131.89 68.46 M131.89 68.46 C105.57 67.09, 79.5 69.75, 17.12 68.46 M131.89 68.46 C105.89 66.66, 80.64 67.05, 17.12 68.46 M17.12 68.46 C7.11 69, 1.16 63.69, 0 51.35 M17.12 68.46 C5.82 66.19, 0.68 64.31, 0 51.35 M0 51.35 C1.63 43.96, 1.57 38.09, 0 17.12 M0 51.35 C1.03 43.09, -0.15 34.33, 0 17.12 M0 17.12 C1.62 4.08, 6.96 -1.28, 17.12 0 M0 17.12 C-1.66 7.29, 3.48 0.85, 17.12 0" stroke="#1e1e1e" stroke-width="2" fill="none"></path></g><g transform="translate(978.2052535562793 926.1910834102238) rotate(0 18.204551696777344 15.102319675097249)"><text x="18.204551696777344" y="21.16741125661627" font-family="Virgil, Segoe UI Emoji" font-size="24.163711480155555px" fill="#1e1e1e" text-anchor="middle" style="white-space: pre;" direction="ltr" dominant-baseline="alphabetic">DB</text></g><g stroke-linecap="round" transform="translate(902.2638891380848 999.6890391623635) rotate(0 89.59084979184604 60)"><path d="M61.78 3.5 C73.26 0.23, 88.87 -0.17, 101.6 0.8 C114.33 1.77, 127.29 4.73, 138.14 9.32 C148.99 13.92, 160.08 21.01, 166.7 28.38 C173.32 35.75, 176.6 44.9, 177.83 53.54 C179.05 62.18, 178.18 72.05, 174.04 80.21 C169.91 88.37, 162.19 96.35, 153 102.48 C143.82 108.62, 131.36 114.14, 118.95 117.02 C106.54 119.9, 91.51 120.7, 78.54 119.75 C65.56 118.8, 51.9 116.11, 41.12 111.3 C30.35 106.49, 20.74 98.63, 13.89 90.9 C7.04 83.16, 1.3 73.4, 0.03 64.89 C-1.23 56.37, 1.94 47.91, 6.3 39.81 C10.67 31.7, 16.11 22.47, 26.2 16.25 C36.29 10.02, 58.86 4.83, 66.85 2.45 C74.83 0.07, 73.59 0.94, 74.12 1.95 M88.83 -0.04 C100.77 -1.11, 115.59 1.78, 127.27 5.32 C138.94 8.86, 150.45 14.17, 158.89 21.18 C167.33 28.18, 175.07 38.74, 177.9 47.36 C180.73 55.98, 179.07 64.8, 175.87 72.91 C172.66 81.03, 166.6 89.42, 158.67 96.04 C150.74 102.65, 139.83 108.43, 128.26 112.6 C116.69 116.78, 102.22 120.9, 89.26 121.09 C76.29 121.28, 62.24 117.47, 50.48 113.74 C38.71 110.01, 26.63 105.61, 18.69 98.74 C10.75 91.86, 5.6 81.12, 2.84 72.49 C0.08 63.85, -0.75 55.5, 2.12 46.94 C4.98 38.39, 11.93 28.12, 20.02 21.16 C28.1 14.2, 38.79 8.6, 50.62 5.19 C62.46 1.77, 84.47 1.13, 91.03 0.67 C97.59 0.2, 90.41 1.73, 89.98 2.39" stroke="#1e1e1e" stroke-width="2" fill="none"></path></g><g transform="translate(962.654473553308 1022.2626322911707) rotate(0 29.34996795654297 37.5)"><text x="29.34996795654297" y="17.52" font-family="Virgil, Segoe UI Emoji" font-size="20px" fill="#1e1e1e" text-anchor="middle" style="white-space: pre;" direction="ltr" dominant-baseline="alphabetic">User</text><text x="29.34996795654297" y="42.519999999999996" font-family="Virgil, Segoe UI Emoji" font-size="20px" fill="#1e1e1e" text-anchor="middle" style="white-space: pre;" direction="ltr" dominant-baseline="alphabetic">Queue</text><text x="29.34996795654297" y="67.52" font-family="Virgil, Segoe UI Emoji" font-size="20px" fill="#1e1e1e" text-anchor="middle" style="white-space: pre;" direction="ltr" dominant-baseline="alphabetic">Model</text></g><g stroke-linecap="round" transform="translate(424.1161499081463 237.3711226535862) rotate(0 127.84324698759337 213.8663659242124)"><path d="M32 0 C91.77 -2.94, 156.95 0.29, 223.69 0 C244.27 -1.93, 252.89 12.73, 255.69 32 C257.22 117.07, 255 201.83, 255.69 395.73 C254.44 414.91, 241.86 428.55, 223.69 427.73 C167.14 430.2, 117.87 431.52, 32 427.73 C10.8 427.46, -2.37 417.29, 0 395.73 C-0.25 291.85, 1.07 183.92, 0 32 C-1.7 12.1, 10.69 0.17, 32 0" stroke="none" stroke-width="0" fill="#b2f2bb"></path><path d="M32 0 C86.58 2.24, 138.14 3.48, 223.69 0 M32 0 C87.96 -0.18, 144.8 0.02, 223.69 0 M223.69 0 C246.55 -1.26, 254.73 11.44, 255.69 32 M223.69 0 C246.31 -1.85, 253.7 12.05, 255.69 32 M255.69 32 C256.89 176.27, 256.37 320.04, 255.69 395.73 M255.69 32 C254.69 161.01, 253.74 290.59, 255.69 395.73 M255.69 395.73 C254.59 416.32, 246.64 426.69, 223.69 427.73 M255.69 395.73 C254.52 417.9, 243.6 428.19, 223.69 427.73 M223.69 427.73 C185.22 428.09, 143.1 428.36, 32 427.73 M223.69 427.73 C156.48 426.98, 89.62 427.65, 32 427.73 M32 427.73 C12.47 427.69, 1.39 416.87, 0 395.73 M32 427.73 C10.93 426.43, -0.6 414.8, 0 395.73 M0 395.73 C1.19 280.17, 1.64 163.83, 0 32 M0 395.73 C1.71 309.15, 2.1 221.87, 0 32 M0 32 C-1.21 9.24, 9.33 -0.98, 32 0 M0 32 C1.09 9.99, 8.83 -1.72, 32 0" stroke="#1e1e1e" stroke-width="2" fill="none"></path></g><g stroke-linecap="round" transform="translate(444.42861456505125 264.8986736719049) rotate(0 106.51489591906488 49.22957374410561)"><path d="M24.61 0 C75.55 0.8, 135.91 -3.27, 188.42 0 C203.05 -3.01, 211.76 5.05, 213.03 24.61 C215.92 41.04, 214.56 65.44, 213.03 73.84 C216.02 92.61, 202.06 97.48, 188.42 98.46 C147.65 98.39, 100.19 101.52, 24.61 98.46 C9.13 98.66, 3.37 88.58, 0 73.84 C-0.64 63.95, 0.78 52.62, 0 24.61 C1.87 10.58, 8.39 -2.38, 24.61 0" stroke="none" stroke-width="0" fill="#b2f2bb"></path><path d="M24.61 0 C67.82 0.79, 113.48 1.26, 188.42 0 M24.61 0 C82.79 0.81, 141.56 1.37, 188.42 0 M188.42 0 C204.84 1.49, 214.08 6.49, 213.03 24.61 M188.42 0 C203.42 0.76, 212.85 7.04, 213.03 24.61 M213.03 24.61 C213.46 38.13, 213.33 51.71, 213.03 73.84 M213.03 24.61 C212.87 37.04, 213.17 49.77, 213.03 73.84 M213.03 73.84 C212.71 91.23, 203.61 97.58, 188.42 98.46 M213.03 73.84 C213.33 90.61, 204.06 98.84, 188.42 98.46 M188.42 98.46 C135.06 98.03, 86.03 98.1, 24.61 98.46 M188.42 98.46 C135.94 98.29, 84 98.52, 24.61 98.46 M24.61 98.46 C6.79 98.33, -0.2 90.66, 0 73.84 M24.61 98.46 C10.31 98.48, -0.77 88.05, 0 73.84 M0 73.84 C-1.63 64.05, -1.04 52.1, 0 24.61 M0 73.84 C-0.03 58.29, 0.2 42.48, 0 24.61 M0 24.61 C0.44 7.46, 9.37 1.67, 24.61 0 M0 24.61 C-1.32 7.98, 8.68 0.96, 24.61 0" stroke="#1e1e1e" stroke-width="2" fill="none"></path></g><g transform="translate(508.83354039134247 301.6282474160105) rotate(0 42.10997009277344 12.5)"><text x="42.10997009277344" y="17.52" font-family="Virgil, Segoe UI Emoji" font-size="20px" fill="#1e1e1e" text-anchor="middle" style="white-space: pre;" direction="ltr" dominant-baseline="alphabetic">FastAPI</text></g><g stroke-linecap="round" transform="translate(470.21413279538774 380.22812405864113) rotate(0 76.9771516726014 29.537744246463376)"><path d="M14.77 0 C61.08 0.61, 111.56 0.94, 139.19 0 M14.77 0 C52.43 -0.29, 90.03 0.16, 139.19 0 M139.19 0 C147.48 -1.22, 153.73 5.2, 153.95 14.77 M139.19 0 C149.27 0.07, 155.21 3.16, 153.95 14.77 M153.95 14.77 C155.89 25.25, 155.58 36.85, 153.95 44.31 M153.95 14.77 C152.82 22.81, 152.94 28.71, 153.95 44.31 M153.95 44.31 C153.37 54.25, 150.93 60.9, 139.19 59.08 M153.95 44.31 C154.19 56.22, 146.92 61.26, 139.19 59.08 M139.19 59.08 C110.84 61.34, 87.26 58.72, 14.77 59.08 M139.19 59.08 C109.56 59.78, 81.33 59.95, 14.77 59.08 M14.77 59.08 C4.33 57.51, -0.08 53.93, 0 44.31 M14.77 59.08 C3.08 58.21, -0.04 52.42, 0 44.31 M0 44.31 C-0.51 37.69, -1.67 29.03, 0 14.77 M0 44.31 C-0.41 34.82, 1.05 25.63, 0 14.77 M0 14.77 C1.92 5.1, 6.5 -1.93, 14.77 0 M0 14.77 C-0.35 4.9, 4.33 -0.61, 14.77 0" stroke="#1e1e1e" stroke-width="2" fill="none"></path></g><g transform="translate(511.10131864767664 397.2658683051045) rotate(0 36.0899658203125 12.5)"><text x="36.0899658203125" y="17.52" font-family="Virgil, Segoe UI Emoji" font-size="20px" fill="#1e1e1e" text-anchor="middle" style="white-space: pre;" direction="ltr" dominant-baseline="alphabetic">/models</text></g><g stroke-linecap="round" transform="translate(470.21413279538774 447.3771691114343) rotate(0 76.9771516726014 29.537744246463376)"><path d="M14.77 0 C60.1 -0.19, 105.43 -2.16, 139.19 0 M14.77 0 C44.33 -0.18, 72.4 -0.76, 139.19 0 M139.19 0 C150.08 0.7, 153.28 6.85, 153.95 14.77 M139.19 0 C151 1.82, 153.77 4.11, 153.95 14.77 M153.95 14.77 C155.1 20.43, 154.19 27.17, 153.95 44.31 M153.95 14.77 C153.91 22.87, 154.62 32.47, 153.95 44.31 M153.95 44.31 C152.02 54.91, 150.6 61, 139.19 59.08 M153.95 44.31 C156.23 53.78, 150.67 57.47, 139.19 59.08 M139.19 59.08 C106.61 57.26, 71.65 58.58, 14.77 59.08 M139.19 59.08 C98.9 59.28, 57.86 57.89, 14.77 59.08 M14.77 59.08 C5.16 60.39, -0.8 54.61, 0 44.31 M14.77 59.08 C5.08 58.21, -0.2 51.93, 0 44.31 M0 44.31 C1.29 37.92, 0.92 31.09, 0 14.77 M0 44.31 C-0.97 36.46, 0.46 28.68, 0 14.77 M0 14.77 C0.63 3.87, 5.23 0.82, 14.77 0 M0 14.77 C-0.79 4.05, 4.11 -0.9, 14.77 0" stroke="#1e1e1e" stroke-width="2" fill="none"></path></g><g transform="translate(508.1113207839071 464.41491335789766) rotate(0 39.07996368408203 12.5)"><text x="39.07996368408203" y="17.52" font-family="Virgil, Segoe UI Emoji" font-size="20px" fill="#1e1e1e" text-anchor="middle" style="white-space: pre;" direction="ltr" dominant-baseline="alphabetic">/assets</text></g><g stroke-linecap="round" transform="translate(469.85253790599245 515.4212973232113) rotate(0 76.97715167260162 29.537744246463376)"><path d="M14.77 0 C54.78 2.81, 93.82 -0.05, 139.19 0 M14.77 0 C41.44 0.93, 68.59 0.95, 139.19 0 M139.19 0 C148.95 0.96, 154.9 3.16, 153.95 14.77 M139.19 0 C148.48 1.36, 153.25 6.13, 153.95 14.77 M153.95 14.77 C153.47 24, 155.05 36.23, 153.95 44.31 M153.95 14.77 C153.68 21.6, 154.02 28.78, 153.95 44.31 M153.95 44.31 C153.33 53.56, 150.62 58.3, 139.19 59.08 M153.95 44.31 C153.25 53.93, 150.32 61.17, 139.19 59.08 M139.19 59.08 C99.45 56.94, 62.3 56.28, 14.77 59.08 M139.19 59.08 C94.36 58.28, 48.38 58.85, 14.77 59.08 M14.77 59.08 C5.85 58.9, 0.5 55.26, 0 44.31 M14.77 59.08 C3.16 60, -1.59 53.23, 0 44.31 M0 44.31 C-0.22 35.03, -1.4 25.57, 0 14.77 M0 44.31 C-0.52 38.26, 0.29 30.79, 0 14.77 M0 14.77 C1.69 4.85, 5.05 0.03, 14.77 0 M0 14.77 C1.71 5.88, 7.01 -1.87, 14.77 0" stroke="#1e1e1e" stroke-width="2" fill="none"></path></g><g transform="translate(514.0697179599415 532.4590415696746) rotate(0 32.759971618652344 12.5)"><text x="32.759971618652344" y="17.52" font-family="Virgil, Segoe UI Emoji" font-size="20px" fill="#1e1e1e" text-anchor="middle" style="white-space: pre;" direction="ltr" dominant-baseline="alphabetic">/queue</text></g><g stroke-linecap="round" transform="translate(826.8797891104946 233.0164116169459) rotate(0 201.33554652274256 269.4200308541054)"><path d="M32 0 C109.9 -0.21, 192.5 -3.06, 370.67 0 C391.31 -3.15, 401.9 8.58, 402.67 32 C404.39 209.97, 404.52 390.3, 402.67 506.84 C400.84 528.12, 388.81 540.42, 370.67 538.84 C254.72 533.71, 139.37 534.3, 32 538.84 C9.5 538.25, -2.47 526.35, 0 506.84 C1.03 360.96, 0.24 217.84, 0 32 C-1.11 12.83, 7.7 -0.96, 32 0" stroke="none" stroke-width="0" fill="#ffd8a8"></path><path d="M32 0 C158.11 -2.25, 285.46 -2.52, 370.67 0 M32 0 C166.32 -1.88, 302.18 -1.81, 370.67 0 M370.67 0 C392.84 1.85, 403.24 9.71, 402.67 32 M370.67 0 C392.95 0.59, 404.86 12.25, 402.67 32 M402.67 32 C404.84 160.56, 405.36 289.16, 402.67 506.84 M402.67 32 C403.72 191.21, 404.41 350.83, 402.67 506.84 M402.67 506.84 C403.55 529.18, 392.21 539.62, 370.67 538.84 M402.67 506.84 C403.32 527.39, 393.9 540.97, 370.67 538.84 M370.67 538.84 C285.39 538.64, 200.74 539.69, 32 538.84 M370.67 538.84 C245.51 540.18, 122.1 540.89, 32 538.84 M32 538.84 C11.83 536.84, -0.61 528.18, 0 506.84 M32 538.84 C11.88 539.47, 1.59 530.22, 0 506.84 M0 506.84 C-1.89 410.95, -1.72 315.98, 0 32 M0 506.84 C-1.09 345.26, -1.32 183.63, 0 32 M0 32 C-0.05 10.44, 11.94 -1.51, 32 0 M0 32 C-1.88 12.68, 10.88 1.64, 32 0" stroke="#1e1e1e" stroke-width="2" fill="none"></path></g><g stroke-linecap="round" transform="translate(896.3928448704282 263.2869162315744) rotate(0 134.22369768182875 38.90541961792137)"><path d="M19.45 0 C77.43 2.65, 132.58 0.76, 248.99 0 C263.79 2.88, 266.73 3.39, 268.45 19.45 C267.25 36.94, 265.97 50.04, 268.45 58.36 C269.46 72.11, 265 78.53, 248.99 77.81 C178.29 74.18, 112.74 79.2, 19.45 77.81 C5.77 74.67, 1.4 68.62, 0 58.36 C3.3 51.98, 1.97 43.61, 0 19.45 C2.39 3.94, 7.37 2.13, 19.45 0" stroke="none" stroke-width="0" fill="#ffd8a8"></path><path d="M19.45 0 C83.67 1.2, 145.31 1.56, 248.99 0 M19.45 0 C97.27 0.33, 172.95 0.27, 248.99 0 M248.99 0 C262.88 -1.84, 268.05 6.55, 268.45 19.45 M248.99 0 C260.44 0.14, 269.26 6.09, 268.45 19.45 M268.45 19.45 C266.36 29.94, 269.79 38.5, 268.45 58.36 M268.45 19.45 C269 35.36, 268.49 49.69, 268.45 58.36 M268.45 58.36 C268.89 71.37, 263.66 77.93, 248.99 77.81 M268.45 58.36 C270.72 71.59, 262.19 76.46, 248.99 77.81 M248.99 77.81 C201.75 77.72, 153.93 78.15, 19.45 77.81 M248.99 77.81 C192.6 78.18, 136.92 78.92, 19.45 77.81 M19.45 77.81 C7.8 79.32, -1.49 73.18, 0 58.36 M19.45 77.81 C4.42 76, -0.12 73.15, 0 58.36 M0 58.36 C-0.47 47.34, -1.16 33.48, 0 19.45 M0 58.36 C-0.89 50.22, 0.89 39.91, 0 19.45 M0 19.45 C1.17 6.11, 8 0.22, 19.45 0 M0 19.45 C0.91 6.97, 7.89 -0.74, 19.45 0" stroke="#1e1e1e" stroke-width="2" fill="none"></path></g><g transform="translate(998.8907658798935 288.60930335852106) rotate(0 31.72577667236328 13.58303249097473)"><text x="31.72577667236328" y="19.037978339350182" font-family="Virgil, Segoe UI Emoji" font-size="21.73285198555957px" fill="#1e1e1e" text-anchor="middle" style="white-space: pre;" direction="ltr" dominant-baseline="alphabetic">Kafka</text></g><g stroke-linecap="round" transform="translate(33.42422216004206 737.6961360123296) rotate(0 196.85571644760228 218.6220602558679)"><path d="M32 0 C134.36 0.42, 241.68 2, 361.71 0 C384.72 -1.87, 392.51 10.86, 393.71 32 C392.59 151.77, 394.95 269.82, 393.71 405.24 C393.44 428.92, 381.38 436.67, 361.71 437.24 C277.98 433.74, 198.82 433.54, 32 437.24 C8.19 434.78, -2.05 428.09, 0 405.24 C3.03 278.52, 1.59 151.47, 0 32 C0.96 7.88, 12.25 1.26, 32 0" stroke="none" stroke-width="0" fill="#ffc9c9"></path><path d="M32 0 C130.92 2.18, 229.18 0.55, 361.71 0 M32 0 C132.94 -0.54, 233.65 -1.29, 361.71 0 M361.71 0 C381.86 -0.03, 394.83 10.88, 393.71 32 M361.71 0 C384.21 -1.13, 393.42 9.18, 393.71 32 M393.71 32 C392.82 134.22, 393.33 234.88, 393.71 405.24 M393.71 32 C393.56 137.12, 393.02 242.36, 393.71 405.24 M393.71 405.24 C393.46 424.82, 384.3 436.04, 361.71 437.24 M393.71 405.24 C395.95 425.36, 384.36 437.26, 361.71 437.24 M361.71 437.24 C238.39 434.23, 115.15 434.59, 32 437.24 M361.71 437.24 C261.9 438.73, 163.31 439.09, 32 437.24 M32 437.24 C9.56 436.25, 0.2 426.76, 0 405.24 M32 437.24 C11.71 436.96, -0.94 424.51, 0 405.24 M0 405.24 C-2.75 275.13, -1.71 144.9, 0 32 M0 405.24 C0.74 323.43, 0.7 241.58, 0 32 M0 32 C-0.07 11.36, 11.57 -1.67, 32 0 M0 32 C-1.1 9.46, 8.57 0.45, 32 0" stroke="#1e1e1e" stroke-width="2" fill="none"></path></g><g stroke-linecap="round" transform="translate(117.4231122359472 749.5665615135692) rotate(0 111.75663069160737 37.935737023756644)"><path d="M18.97 0 C75.14 -1.25, 127.68 -2.2, 204.55 0 C220.67 -1.31, 224.23 7.21, 223.51 18.97 C222.59 32.79, 219.82 42.91, 223.51 56.9 C223.98 70.79, 214.76 73.02, 204.55 75.87 C128.51 71.07, 54.27 72.04, 18.97 75.87 C8.26 75.64, -0.93 72.2, 0 56.9 C-0.47 49.03, -0.64 38.03, 0 18.97 C-0.54 4.81, 8.84 -3.22, 18.97 0" stroke="none" stroke-width="0" fill="#ffc9c9"></path><path d="M18.97 0 C76.06 -0.31, 137.18 0.97, 204.55 0 M18.97 0 C83.34 0.78, 147.82 -0.2, 204.55 0 M204.55 0 C215.37 1.66, 223.84 8.08, 223.51 18.97 M204.55 0 C217.02 1.5, 222.45 5.96, 223.51 18.97 M223.51 18.97 C222.13 28.1, 224.32 37.35, 223.51 56.9 M223.51 18.97 C223.67 28.12, 222.55 36.67, 223.51 56.9 M223.51 56.9 C223.63 69.28, 216.01 75.04, 204.55 75.87 M223.51 56.9 C224.12 67.77, 218.2 76.68, 204.55 75.87 M204.55 75.87 C143.02 74.68, 82.6 75.11, 18.97 75.87 M204.55 75.87 C141.68 74.84, 79.65 74.87, 18.97 75.87 M18.97 75.87 C7.08 77.65, -0.38 68.55, 0 56.9 M18.97 75.87 C8.03 74.1, 0.08 68.61, 0 56.9 M0 56.9 C0.25 46.31, 1.27 40.43, 0 18.97 M0 56.9 C0.34 48.64, -1 40.33, 0 18.97 M0 18.97 C-0.9 5.59, 4.59 -1.03, 18.97 0 M0 18.97 C1.96 7.87, 6.4 -0.52, 18.97 0" stroke="#1e1e1e" stroke-width="2" fill="none"></path></g><g transform="translate(188.37196552276941 773.1839335404445) rotate(0 40.807777404785156 14.318364996881371)"><text x="40.807777404785156" y="20.068620379628932" font-family="Virgil, Segoe UI Emoji" font-size="22.909383995010195px" fill="#1e1e1e" text-anchor="middle" style="white-space: pre;" direction="ltr" dominant-baseline="alphabetic">Trainer</text></g><g stroke-linecap="round" transform="translate(43.99784556714758 256.85185951865526) rotate(0 140.92526710786865 166.73753417429086)"><path d="M32 0 C107.38 1.87, 174.33 0.72, 249.85 0 C268.29 1.08, 281.55 8.19, 281.85 32 C286.36 137.88, 283.4 244.34, 281.85 301.48 C284.17 326.27, 270.99 335.18, 249.85 333.48 C183.16 333.14, 109.58 332.68, 32 333.48 C12.19 336.68, 3.54 322.33, 0 301.48 C-4.3 229.31, -3.62 149.87, 0 32 C-0.58 11.05, 10.71 -2.27, 32 0" stroke="none" stroke-width="0" fill="#eebefa"></path><path d="M32 0 C108.05 0.08, 187.37 2.92, 249.85 0 M32 0 C84.64 0.94, 138.82 2.15, 249.85 0 M249.85 0 C271.52 0.14, 282.77 9.57, 281.85 32 M249.85 0 C270.99 -0.09, 283.98 12.86, 281.85 32 M281.85 32 C279.69 102.79, 278.64 176.41, 281.85 301.48 M281.85 32 C280.69 124.57, 280.84 217.72, 281.85 301.48 M281.85 301.48 C279.86 323.99, 271.28 334.12, 249.85 333.48 M281.85 301.48 C280.55 321.21, 272.05 331.41, 249.85 333.48 M249.85 333.48 C184.44 331.67, 114.3 332.03, 32 333.48 M249.85 333.48 C201.45 333.58, 154.06 332.39, 32 333.48 M32 333.48 C11.69 331.94, -0.46 322.06, 0 301.48 M32 333.48 C11.72 331.59, -0.03 324.55, 0 301.48 M0 301.48 C-1.06 246.11, 0.88 194.37, 0 32 M0 301.48 C-1.48 195.09, -0.73 87.47, 0 32 M0 32 C-1.94 10.26, 8.96 -0.2, 32 0 M0 32 C0.32 10.38, 10.75 -0.04, 32 0" stroke="#1e1e1e" stroke-width="2" fill="none"></path></g><g stroke-linecap="round" transform="translate(67.28568452421541 281.1507917883454) rotate(0 121.5765753751914 23.98010402246112)"><path d="M11.99 0 C68.49 5.18, 121.35 -0.94, 231.16 0 C240.36 -3.2, 243.76 2.64, 243.15 11.99 C246.65 16.95, 245.52 21.5, 243.15 35.97 C240.2 45.44, 236.51 45.49, 231.16 47.96 C159.82 47.22, 90.21 43.12, 11.99 47.96 C7.29 48.91, 1.23 42.08, 0 35.97 C-0.89 31.15, -2.19 25.34, 0 11.99 C-3.06 5.55, 3.11 -1.51, 11.99 0" stroke="none" stroke-width="0" fill="#eebefa"></path><path d="M11.99 0 C63.39 -2.57, 113.54 -0.78, 231.16 0 M11.99 0 C97.07 1, 182.48 -0.06, 231.16 0 M231.16 0 C240.76 -0.25, 241.22 3.67, 243.15 11.99 M231.16 0 C239.4 0.03, 241.7 3.45, 243.15 11.99 M243.15 11.99 C244.64 20.08, 241.49 25.44, 243.15 35.97 M243.15 11.99 C242.94 17.88, 242.9 25.95, 243.15 35.97 M243.15 35.97 C241.28 42.63, 240.88 46.02, 231.16 47.96 M243.15 35.97 C245.08 44.22, 239.17 45.69, 231.16 47.96 M231.16 47.96 C179.16 47.22, 127.81 48.34, 11.99 47.96 M231.16 47.96 C171.54 46.57, 111.33 46.72, 11.99 47.96 M11.99 47.96 C2.9 46.18, 0.34 43.31, 0 35.97 M11.99 47.96 C2.44 46.68, -0.67 42.4, 0 35.97 M0 35.97 C-1.07 31.51, -1.89 26.6, 0 11.99 M0 35.97 C0.5 30.14, 0.75 22.15, 0 11.99 M0 11.99 C-0.67 2.21, 2.17 -1.82, 11.99 0 M0 11.99 C0.39 2.21, 5.33 -1.7, 11.99 0" stroke="#1e1e1e" stroke-width="2" fill="none"></path></g><g transform="translate(149.67230323436797 292.63089581080646) rotate(0 39.18995666503906 12.5)"><text x="39.18995666503906" y="17.52" font-family="Virgil, Segoe UI Emoji" font-size="20px" fill="#1e1e1e" text-anchor="middle" style="white-space: pre;" direction="ltr" dominant-baseline="alphabetic">Services</text></g><g stroke-linecap="round" transform="translate(859.1320145179284 575.8509054965915) rotate(0 68.76075075867425 42.5)"><path d="M21.25 0 C38.84 -1.12, 61.98 -2.2, 116.27 0 M21.25 0 C47.32 -0.71, 72.39 0.13, 116.27 0 M116.27 0 C129.03 -0.22, 137.38 6.02, 137.52 21.25 M116.27 0 C130.87 -1.54, 135.32 9.19, 137.52 21.25 M137.52 21.25 C136.88 37.18, 138.29 55.46, 137.52 63.75 M137.52 21.25 C138.84 34.01, 137.77 48.95, 137.52 63.75 M137.52 63.75 C137.98 77.56, 132.17 83.5, 116.27 85 M137.52 63.75 C139.35 75.72, 130.3 87.12, 116.27 85 M116.27 85 C96.16 85.06, 78.75 84.47, 21.25 85 M116.27 85 C87.65 84.05, 59.23 84.35, 21.25 85 M21.25 85 C6.86 84.94, -1.95 78.55, 0 63.75 M21.25 85 C5.12 85.35, 0.53 77.64, 0 63.75 M0 63.75 C1.09 52.21, -0.03 45.88, 0 21.25 M0 63.75 C1.11 47.03, 0.48 31.41, 0 21.25 M0 21.25 C-0.41 8.62, 5.9 -0.05, 21.25 0 M0 21.25 C1.73 7.83, 7 0.69, 21.25 0" stroke="#1e1e1e" stroke-width="2" fill="none"></path></g><g transform="translate(879.0328104426185 580.8509054965915) rotate(0 48.859954833984375 37.5)"><text x="48.859954833984375" y="17.52" font-family="Virgil, Segoe UI Emoji" font-size="20px" fill="#1e1e1e" text-anchor="middle" style="white-space: pre;" direction="ltr" dominant-baseline="alphabetic">Queue </text><text x="48.859954833984375" y="42.519999999999996" font-family="Virgil, Segoe UI Emoji" font-size="20px" fill="#1e1e1e" text-anchor="middle" style="white-space: pre;" direction="ltr" dominant-baseline="alphabetic">Consumer </text><text x="48.859954833984375" y="67.52" font-family="Virgil, Segoe UI Emoji" font-size="20px" fill="#1e1e1e" text-anchor="middle" style="white-space: pre;" direction="ltr" dominant-baseline="alphabetic">loop</text></g><g stroke-linecap="round" transform="translate(1036.6048362981628 493.2382230091896) rotate(0 87.3054378599088 48.58737411334056)"><path d="M102.41 0.13 C114.66 0.58, 128.94 4.97, 139.32 9.26 C149.71 13.54, 158.87 19.52, 164.74 25.82 C170.6 32.13, 173.88 39.99, 174.5 47.1 C175.12 54.21, 173.3 62.31, 168.47 68.51 C163.64 74.71, 155.1 79.85, 145.52 84.3 C135.95 88.75, 123.19 93.09, 111.02 95.22 C98.85 97.34, 85 98.27, 72.5 97.04 C60.01 95.82, 46.23 92.05, 36.04 87.85 C25.85 83.65, 17.35 78.16, 11.36 71.84 C5.36 65.53, 0.74 57.09, 0.08 49.93 C-0.59 42.77, 2.52 35.31, 7.39 28.89 C12.26 22.47, 19.94 16.03, 29.29 11.39 C38.65 6.75, 50.62 2.77, 63.52 1.04 C76.42 -0.69, 98.58 0.77, 106.69 1.03 C114.8 1.29, 112.29 1.87, 112.2 2.6 M73 0.78 C84.57 -1.4, 98.95 -0.74, 110.81 1.39 C122.67 3.53, 134.47 8.74, 144.16 13.57 C153.86 18.4, 164.12 24.28, 169 30.38 C173.87 36.47, 174.02 43.44, 173.4 50.13 C172.78 56.83, 171.2 64.32, 165.28 70.57 C159.35 76.82, 148.39 83.44, 137.85 87.66 C127.32 91.89, 114.57 94.53, 102.05 95.93 C89.52 97.32, 74.89 97.75, 62.71 96.04 C50.53 94.32, 38.1 90.6, 28.99 85.64 C19.89 80.68, 12.81 72.98, 8.08 66.3 C3.35 59.62, 0.29 52.4, 0.64 45.56 C0.99 38.72, 4.19 31.33, 10.17 25.26 C16.16 19.2, 26.3 13.35, 36.55 9.16 C46.8 4.97, 65.47 1.35, 71.66 0.13 C77.85 -1.1, 73.48 1.1, 73.71 1.81" stroke="#1e1e1e" stroke-width="2" fill="none"></path></g><g transform="translate(1094.3260390563264 529.4691354069394) rotate(0 29.34996795654297 12.5)"><text x="29.34996795654297" y="17.52" font-family="Virgil, Segoe UI Emoji" font-size="20px" fill="#1e1e1e" text-anchor="middle" style="white-space: pre;" direction="ltr" dominant-baseline="alphabetic">Queue</text></g><g mask="url(#mask-7XvJYmLpfIduneA2AcIZx)" stroke-linecap="round"><g transform="translate(917.6028566821306 665.6218238175176) rotate(0 25.335130786115997 105.11413897298914)"><path d="M-0.54 -0.28 C1.29 11.89, 2.26 36.5, 10.89 71.83 C19.52 107.16, 44.53 188.71, 51.21 211.71 M1.37 -1.48 C3.11 10.41, 2.17 34.57, 10.31 69.81 C18.45 105.05, 43.45 186.5, 50.2 209.96" stroke="#1e1e1e" stroke-width="2" fill="none"></path></g><g transform="translate(917.6028566821306 665.6218238175176) rotate(0 25.335130786115997 105.11413897298914)"><path d="M35.33 189.86 C39.03 197, 44.19 200.96, 50.2 209.96 M35.33 189.86 C41.85 198.79, 46.32 205.56, 50.2 209.96" stroke="#1e1e1e" stroke-width="2" fill="none"></path></g><g transform="translate(917.6028566821306 665.6218238175176) rotate(0 25.335130786115997 105.11413897298914)"><path d="M51.73 185.01 C50.56 193.5, 50.9 198.89, 50.2 209.96 M51.73 185.01 C51.74 195.75, 49.75 204.44, 50.2 209.96" stroke="#1e1e1e" stroke-width="2" fill="none"></path></g></g><mask id="mask-7XvJYmLpfIduneA2AcIZx"><rect x="0" y="0" fill="#fff" width="1069.2806123113323" height="976.1898460682497"></rect><rect x="900.4546671129351" y="724.7620789857924" fill="#000" width="54.67994689941406" height="25" opacity="1"></rect></mask><g transform="translate(900.4546671129351 724.7620789857923) rotate(0 42.483320355311434 45.973883804714404)"><text x="27.33997344970703" y="17.52" font-family="Virgil, Segoe UI Emoji" font-size="20px" fill="#1e1e1e" text-anchor="middle" style="white-space: pre;" direction="ltr" dominant-baseline="alphabetic">Sends</text></g><g mask="url(#mask-MnIGNNRbGAaEj35yzz55J)" stroke-linecap="round"><g transform="translate(998.1718714763183 650.4759377807816) rotate(0 68.29460108141711 -14.546594564263756)"><path d="M0.91 -0.73 C14.94 1.96, 60.97 25.18, 83.59 17.05 C106.21 8.92, 128.06 -38.55, 136.66 -49.51 M-0.07 1.5 C13.94 4.32, 60.41 26.93, 83.16 18.58 C105.91 10.23, 127.76 -37.55, 136.42 -48.58" stroke="#1e1e1e" stroke-width="2" fill="none"></path></g><g transform="translate(998.1718714763183 650.4759377807816) rotate(0 68.29460108141711 -14.546594564263756)"><path d="M131.32 -24.11 C131.2 -28.65, 133.68 -34.74, 136.42 -48.58 M131.32 -24.11 C132.88 -29.36, 134.15 -36.06, 136.42 -48.58" stroke="#1e1e1e" stroke-width="2" fill="none"></path></g><g transform="translate(998.1718714763183 650.4759377807816) rotate(0 68.29460108141711 -14.546594564263756)"><path d="M116.78 -33.12 C120.38 -35.5, 126.51 -39.34, 136.42 -48.58 M116.78 -33.12 C121.78 -36.22, 126.51 -40.77, 136.42 -48.58" stroke="#1e1e1e" stroke-width="2" fill="none"></path></g></g><mask id="mask-MnIGNNRbGAaEj35yzz55J"><rect x="0" y="0" fill="#fff" width="1233.8136927572095" height="816.3124654513158"></rect><rect x="1035.7864346710626" y="655.036280341458" fill="#000" width="89.97990417480469" height="25" opacity="1"></rect></mask><g transform="translate(1035.7864346710626 655.0362803414578) rotate(0 30.680037886672835 -19.10693712494006)"><text x="44.989952087402344" y="17.52" font-family="Virgil, Segoe UI Emoji" font-size="20px" fill="#1e1e1e" text-anchor="middle" style="white-space: pre;" direction="ltr" dominant-baseline="alphabetic">Consumes</text></g><g stroke-linecap="round"><g transform="translate(864.4923497458963 954.6598366673138) rotate(0 -280.24816922999776 -42.91080770118765)"><path d="M0.94 -0.24 C-92.46 -14.69, -467.23 -71.6, -561.05 -85.58 M-0.03 -1.41 C-93.43 -15.22, -467.67 -70.37, -561.43 -84.51" stroke="#1e1e1e" stroke-width="2" fill="none"></path></g><g transform="translate(864.4923497458963 954.6598366673138) rotate(0 -280.24816922999776 -42.91080770118765)"><path d="M-536.94 -89.51 C-543.23 -86.31, -550.23 -86.6, -561.43 -84.51 M-536.94 -89.51 C-545.77 -87.86, -554.11 -85.28, -561.43 -84.51" stroke="#1e1e1e" stroke-width="2" fill="none"></path></g><g transform="translate(864.4923497458963 954.6598366673138) rotate(0 -280.24816922999776 -42.91080770118765)"><path d="M-539.46 -72.59 C-545.29 -73.52, -551.69 -77.91, -561.43 -84.51 M-539.46 -72.59 C-547.28 -76.77, -554.75 -80.04, -561.43 -84.51" stroke="#1e1e1e" stroke-width="2" fill="none"></path></g></g><mask></mask><g stroke-linecap="round" transform="translate(158.12507979191787 830.2550072257342) rotate(0 68.71592983210542 60)"><path d="M69.61 0.61 C79.76 -0.36, 92.42 2.09, 101.67 6.19 C110.93 10.29, 119.24 17.43, 125.12 25.21 C131.01 32.99, 135.82 43.5, 136.99 52.86 C138.17 62.21, 136.03 72.66, 132.18 81.35 C128.32 90.04, 121.86 98.83, 113.86 105.01 C105.86 111.19, 94.32 116.37, 84.19 118.42 C74.05 120.47, 63.18 119.39, 53.08 117.3 C42.98 115.21, 31.76 112.01, 23.58 105.89 C15.4 99.76, 7.73 89.57, 3.99 80.57 C0.25 71.56, -0.08 60.82, 1.13 51.85 C2.34 42.89, 5.33 34.41, 11.25 26.79 C17.17 19.17, 25.67 10.41, 36.65 6.11 C47.63 1.81, 68.79 1.6, 77.12 1.01 C85.46 0.41, 86.73 1.55, 86.68 2.54 M65.57 -0.39 C75.96 -1.89, 89.58 1.66, 99.09 5.8 C108.61 9.94, 116.24 17.2, 122.67 24.46 C129.09 31.72, 135.64 40.11, 137.64 49.36 C139.64 58.61, 138.21 70.75, 134.7 79.96 C131.18 89.17, 124.28 98.22, 116.54 104.59 C108.79 110.97, 98.61 116.07, 88.23 118.2 C77.85 120.34, 64.71 119.52, 54.26 117.39 C43.81 115.26, 33.47 111.15, 25.54 105.45 C17.61 99.75, 10.95 91.5, 6.66 83.19 C2.37 74.87, -0.86 64.88, -0.18 55.55 C0.5 46.22, 5.23 35.08, 10.75 27.19 C16.27 19.31, 23.54 12.67, 32.94 8.25 C42.34 3.82, 61.65 2.04, 67.16 0.66 C72.67 -0.73, 66.03 -0.8, 65.99 -0.06" stroke="#1e1e1e" stroke-width="2" fill="none"></path></g><g transform="translate(188.67155360951506 865.3286003545413) rotate(0 38.0799560546875 25)"><text x="38.0799560546875" y="17.52" font-family="Virgil, Segoe UI Emoji" font-size="20px" fill="#1e1e1e" text-anchor="middle" style="white-space: pre;" direction="ltr" dominant-baseline="alphabetic">retrieve</text><text x="38.0799560546875" y="42.519999999999996" font-family="Virgil, Segoe UI Emoji" font-size="20px" fill="#1e1e1e" text-anchor="middle" style="white-space: pre;" direction="ltr" dominant-baseline="alphabetic">queue</text></g><g stroke-linecap="round" transform="translate(39.07801067666105 970.1198612277116) rotate(0 52.992793345098335 40.18134880012951)"><path d="M56.53 0.22 C65.51 0.05, 75.3 2.7, 82.92 6.84 C90.54 10.98, 98.41 18.12, 102.25 25.06 C106.08 32, 107.66 41.16, 105.94 48.47 C104.21 55.79, 98.61 63.77, 91.88 68.93 C85.14 74.1, 74.77 77.96, 65.5 79.45 C56.23 80.93, 45.21 80.32, 36.27 77.86 C27.34 75.39, 17.75 70.22, 11.9 64.66 C6.05 59.1, 2.09 51.69, 1.17 44.51 C0.26 37.34, 2.25 28.16, 6.39 21.59 C10.53 15.03, 16.53 8.65, 26.04 5.12 C35.56 1.59, 56.06 0.76, 63.47 0.4 C70.87 0.05, 70.66 2.41, 70.45 2.99 M49.52 1.61 C58.27 0.39, 68.64 0.76, 76.79 4.13 C84.94 7.49, 93.49 15.2, 98.41 21.81 C103.32 28.43, 106.87 36.66, 106.27 43.82 C105.67 50.98, 100.32 59.36, 94.79 64.77 C89.25 70.17, 81.55 73.58, 73.06 76.24 C64.56 78.9, 53.4 81.73, 43.81 80.72 C34.22 79.71, 22.76 75.29, 15.52 70.2 C8.28 65.11, 2.61 57.23, 0.38 50.17 C-1.84 43.11, -1.39 35.06, 2.15 27.83 C5.7 20.6, 14.1 11.25, 21.64 6.81 C29.18 2.38, 43.11 2.39, 47.38 1.22 C51.64 0.04, 47.07 -0.8, 47.22 -0.23" stroke="#1e1e1e" stroke-width="2" fill="none"></path></g><g transform="translate(68.61926002467294 997.8887058140475) rotate(0 23.47998046875 12.5)"><text x="23.47998046875" y="17.52" font-family="Virgil, Segoe UI Emoji" font-size="20px" fill="#1e1e1e" text-anchor="middle" style="white-space: pre;" direction="ltr" dominant-baseline="alphabetic">train</text></g><g stroke-linecap="round" transform="translate(186.43100109971192 1052.7082715974657) rotate(0 50.66343979146768 60)"><path d="M63.2 0.86 C70.94 2.05, 78.39 9.56, 84.51 16.43 C90.63 23.3, 97.28 32.46, 99.92 42.09 C102.56 51.73, 102.48 64.37, 100.35 74.24 C98.22 84.11, 93.04 94.23, 87.13 101.31 C81.22 108.39, 72.99 113.86, 64.88 116.7 C56.77 119.54, 46.57 120.71, 38.46 118.36 C30.35 116.02, 22.3 109.37, 16.21 102.64 C10.12 95.92, 4.3 87.34, 1.93 77.99 C-0.43 68.65, -0.04 56.57, 2.04 46.57 C4.13 36.56, 8.9 25.45, 14.45 17.98 C20 10.51, 26.15 4.09, 35.34 1.74 C44.54 -0.6, 62.82 2.63, 69.63 3.9 C76.43 5.16, 76.28 8.27, 76.17 9.32 M26.94 8.21 C33.74 2.94, 43.93 0.43, 52.52 0.38 C61.1 0.33, 71.15 2.52, 78.46 7.9 C85.77 13.27, 92.37 23.51, 96.38 32.65 C100.39 41.78, 102.91 52.86, 102.5 62.73 C102.09 72.59, 98.58 83.34, 93.91 91.85 C89.24 100.36, 81.91 108.88, 74.49 113.77 C67.06 118.66, 57.94 121.55, 49.36 121.18 C40.78 120.81, 29.99 117.19, 22.99 111.54 C15.99 105.89, 11.42 95.95, 7.35 87.28 C3.28 78.62, -1.32 69.38, -1.43 59.52 C-1.54 49.66, 1.84 36.74, 6.69 28.13 C11.53 19.52, 24.45 11.35, 27.64 7.85 C30.82 4.35, 25.43 6.54, 25.78 7.13" stroke="#1e1e1e" stroke-width="2" fill="none"></path></g><g transform="translate(207.87001567749007 1075.281864726273) rotate(0 29.39996337890625 37.5)"><text x="29.39996337890625" y="17.52" font-family="Virgil, Segoe UI Emoji" font-size="20px" fill="#1e1e1e" text-anchor="middle" style="white-space: pre;" direction="ltr" dominant-baseline="alphabetic">store</text><text x="29.39996337890625" y="42.519999999999996" font-family="Virgil, Segoe UI Emoji" font-size="20px" fill="#1e1e1e" text-anchor="middle" style="white-space: pre;" direction="ltr" dominant-baseline="alphabetic">perfor</text><text x="29.39996337890625" y="67.52" font-family="Virgil, Segoe UI Emoji" font-size="20px" fill="#1e1e1e" text-anchor="middle" style="white-space: pre;" direction="ltr" dominant-baseline="alphabetic">mance</text></g><g stroke-linecap="round" transform="translate(283.0991735753855 951.4850327986663) rotate(0 71.62762177414402 60)"><path d="M46.95 3.71 C56.52 -0.08, 70.94 0.18, 81.86 1.35 C92.78 2.51, 103.6 5.46, 112.46 10.69 C121.32 15.91, 129.96 24.32, 135.04 32.69 C140.11 41.06, 143.05 51.61, 142.93 60.92 C142.81 70.23, 139.42 80.26, 134.32 88.56 C129.22 96.86, 121.51 105.52, 112.33 110.7 C103.14 115.89, 90.46 118.96, 79.2 119.67 C67.93 120.37, 55.06 118.29, 44.75 114.94 C34.45 111.59, 24.52 106.6, 17.36 99.57 C10.2 92.54, 4.29 81.88, 1.81 72.77 C-0.67 63.67, -0.25 53.88, 2.48 44.93 C5.21 35.98, 9.16 26.42, 18.21 19.08 C27.26 11.75, 48.78 3.95, 56.8 0.91 C64.81 -2.13, 65.94 -0.28, 66.3 0.83 M73.04 -0.86 C84.02 -1.74, 98.6 2.37, 108.22 7.38 C117.85 12.39, 125.22 21.08, 130.79 29.21 C136.36 37.34, 140.67 47.1, 141.64 56.17 C142.62 65.24, 140.67 75.13, 136.64 83.64 C132.6 92.14, 126.04 101.52, 117.44 107.19 C108.84 112.85, 95.97 115.79, 85.04 117.61 C74.12 119.42, 62.39 120.46, 51.89 118.07 C41.4 115.68, 30.27 109.88, 22.09 103.26 C13.91 96.64, 6.57 86.94, 2.81 78.33 C-0.95 69.72, -2.22 60.44, -0.45 51.6 C1.31 42.76, 6.53 32.97, 13.38 25.29 C20.23 17.61, 30.39 9.91, 40.62 5.5 C50.85 1.08, 69.1 -0.46, 74.76 -1.2 C80.43 -1.94, 74.68 -0.29, 74.61 1.06" stroke="#1e1e1e" stroke-width="2" fill="none"></path></g><g transform="translate(314.50846435431004 986.5586259274735) rotate(0 40.06995391845703 25)"><text x="40.06995391845703" y="17.52" font-family="Virgil, Segoe UI Emoji" font-size="20px" fill="#1e1e1e" text-anchor="middle" style="white-space: pre;" direction="ltr" dominant-baseline="alphabetic">serialize</text><text x="40.06995391845703" y="42.519999999999996" font-family="Virgil, Segoe UI Emoji" font-size="20px" fill="#1e1e1e" text-anchor="middle" style="white-space: pre;" direction="ltr" dominant-baseline="alphabetic">model</text></g><g stroke-linecap="round"><g transform="translate(155.44882454663912 887.4796888379785) rotate(0 -30.27151799303533 35.43866777800315)"><path d="M-0.31 -0.89 C-9.04 -0.32, -42.69 -9.13, -53.02 3.4 C-63.35 15.92, -60.83 62.55, -62.27 74.25 M1.73 1.26 C-7.02 2.03, -43.15 -6.87, -53.44 4.96 C-63.72 16.8, -58.6 60.63, -59.98 72.25" stroke="#1e1e1e" stroke-width="2" fill="none"></path></g><g transform="translate(155.44882454663912 887.4796888379785) rotate(0 -30.27151799303533 35.43866777800315)"><path d="M-68.43 48.72 C-67.8 56.31, -64.11 58.58, -59.98 72.25 M-68.43 48.72 C-66.35 57.6, -62.42 65.49, -59.98 72.25" stroke="#1e1e1e" stroke-width="2" fill="none"></path></g><g transform="translate(155.44882454663912 887.4796888379785) rotate(0 -30.27151799303533 35.43866777800315)"><path d="M-51.33 48.8 C-54.97 56.33, -55.55 58.57, -59.98 72.25 M-51.33 48.8 C-55.31 57.65, -57.44 65.51, -59.98 72.25" stroke="#1e1e1e" stroke-width="2" fill="none"></path></g></g><mask></mask><g stroke-linecap="round"><g transform="translate(100.52420884395133 1051.1287799679349) rotate(0 37.90743002009174 30.724303399849077)"><path d="M-0.55 0.63 C0.31 9.84, -8.61 45.56, 4.57 55.53 C17.75 65.5, 66.17 59.92, 78.52 60.46 M1.37 -0.09 C2.64 8.72, -5.97 43.84, 6.77 53.6 C19.51 63.37, 65.76 57.53, 77.81 58.49" stroke="#1e1e1e" stroke-width="2" fill="none"></path></g><g transform="translate(100.52420884395133 1051.1287799679349) rotate(0 37.90743002009174 30.724303399849077)"><path d="M54.49 67.51 C61.4 63.72, 66.86 63.24, 77.81 58.49 M54.49 67.51 C63.6 63.93, 71.12 61.17, 77.81 58.49" stroke="#1e1e1e" stroke-width="2" fill="none"></path></g><g transform="translate(100.52420884395133 1051.1287799679349) rotate(0 37.90743002009174 30.724303399849077)"><path d="M54.15 50.41 C61.18 50.93, 66.73 54.77, 77.81 58.49 M54.15 50.41 C63.42 52.97, 71.06 56.35, 77.81 58.49" stroke="#1e1e1e" stroke-width="2" fill="none"></path></g></g><mask></mask><g stroke-linecap="round"><g transform="translate(293.1111269482251 1116.1508449694497) rotate(0 31.037314967921816 -20.14576365968628)"><path d="M1.02 -0.47 C10.56 -0.98, 48.89 3.28, 58.16 -3.14 C67.44 -9.55, 56.89 -32.94, 56.66 -38.96 M0.1 -1.76 C9.36 -2.6, 47.64 1.72, 56.93 -4.78 C66.22 -11.28, 55.82 -34.64, 55.83 -40.74" stroke="#1e1e1e" stroke-width="2" fill="none"></path></g><g transform="translate(293.1111269482251 1116.1508449694497) rotate(0 31.037314967921816 -20.14576365968628)"><path d="M65.42 -25.48 C61.11 -31.97, 59.56 -37.08, 55.83 -40.74 M65.42 -25.48 C61.52 -30.89, 57.08 -36.9, 55.83 -40.74" stroke="#1e1e1e" stroke-width="2" fill="none"></path></g><g transform="translate(293.1111269482251 1116.1508449694497) rotate(0 31.037314967921816 -20.14576365968628)"><path d="M53.37 -22.89 C53.6 -30.46, 56.6 -36.55, 55.83 -40.74 M53.37 -22.89 C54.16 -29.38, 54.4 -36.41, 55.83 -40.74" stroke="#1e1e1e" stroke-width="2" fill="none"></path></g></g><mask></mask><g stroke-linecap="round"><g transform="translate(366.68572360452663 946.2134900412133) rotate(0 -29.5894589935491 -26.68702368424698)"><path d="M0.76 -1.17 C0.56 -9.29, 8.88 -38.73, -1.89 -47.56 C-12.66 -56.4, -53.28 -53.17, -63.85 -54.2 M-0.3 0.82 C-0.08 -6.61, 10.93 -37.15, 0.3 -46.2 C-10.33 -55.24, -53.18 -52.33, -64.1 -53.45" stroke="#1e1e1e" stroke-width="2" fill="none"></path></g><g transform="translate(366.68572360452663 946.2134900412133) rotate(0 -29.5894589935491 -26.68702368424698)"><path d="M-40.43 -61.5 C-48.09 -61.05, -52.44 -55.8, -64.1 -53.45 M-40.43 -61.5 C-45.53 -60.62, -49.58 -58.49, -64.1 -53.45" stroke="#1e1e1e" stroke-width="2" fill="none"></path></g><g transform="translate(366.68572360452663 946.2134900412133) rotate(0 -29.5894589935491 -26.68702368424698)"><path d="M-40.79 -44.41 C-48.52 -48.13, -52.79 -47.05, -64.1 -53.45 M-40.79 -44.41 C-45.75 -47.09, -49.73 -48.54, -64.1 -53.45" stroke="#1e1e1e" stroke-width="2" fill="none"></path></g></g><mask></mask><g stroke-linecap="round" transform="translate(426.6187481794734 922.9067973188247) rotate(0 46.00473268420626 19.799505205860896)"><path d="M9.9 0 C27.08 -1.55, 43.7 -0.31, 82.11 0 M9.9 0 C32.41 -0.07, 55.51 -0.59, 82.11 0 M82.11 0 C90.56 0.32, 92.25 3.41, 92.01 9.9 M82.11 0 C86.73 -1.03, 93.61 2.19, 92.01 9.9 M92.01 9.9 C93.93 12.68, 93.73 17.77, 92.01 29.7 M92.01 9.9 C92.82 15.7, 92.64 23.14, 92.01 29.7 M92.01 29.7 C93.3 35.56, 90.51 39, 82.11 39.6 M92.01 29.7 C92.34 35.56, 88.96 38.77, 82.11 39.6 M82.11 39.6 C63.14 40.99, 46.8 41.71, 9.9 39.6 M82.11 39.6 C63.8 40.24, 45.89 39.94, 9.9 39.6 M9.9 39.6 C2.18 39.05, -1.66 34.35, 0 29.7 M9.9 39.6 C2.77 39.36, -2.11 36.35, 0 29.7 M0 29.7 C1.49 24.79, 1.07 17.36, 0 9.9 M0 29.7 C0.16 23.96, 0.11 15.87, 0 9.9 M0 9.9 C-0.55 3.2, 4.07 -0.29, 9.9 0 M0 9.9 C-1.08 2.89, 1.52 1.31, 9.9 0" stroke="#1e1e1e" stroke-width="2" fill="none"></path></g><g transform="translate(446.96350771914854 930.2063025246856) rotate(0 25.65997314453125 12.5)"><text x="25.65997314453125" y="17.52" font-family="Virgil, Segoe UI Emoji" font-size="20px" fill="#1e1e1e" text-anchor="middle" style="white-space: pre;" direction="ltr" dominant-baseline="alphabetic">model</text></g><g stroke-linecap="round"><g transform="translate(432.34860675799155 1014.3490777764789) rotate(0 19.644416147732386 -18.32435664067185)"><path d="M-0.32 0.04 C5.45 -0.45, 28.58 4.6, 35.23 -1.88 C41.89 -8.35, 38.62 -32.67, 39.61 -38.81 M1.72 -0.98 C7.29 -0.78, 28.21 5.62, 34.37 -0.46 C40.53 -6.54, 37.99 -31.3, 38.66 -37.48" stroke="#1e1e1e" stroke-width="2" fill="none"></path></g><g transform="translate(432.34860675799155 1014.3490777764789) rotate(0 19.644416147732386 -18.32435664067185)"><path d="M44.96 -19.82 C42.65 -25.8, 40.01 -32.81, 38.66 -37.48 M44.96 -19.82 C42.81 -25.32, 40.62 -29.62, 38.66 -37.48" stroke="#1e1e1e" stroke-width="2" fill="none"></path></g><g transform="translate(432.34860675799155 1014.3490777764789) rotate(0 19.644416147732386 -18.32435664067185)"><path d="M32.14 -19.9 C34.34 -25.82, 36.2 -32.79, 38.66 -37.48 M32.14 -19.9 C33.85 -25.39, 35.53 -29.66, 38.66 -37.48" stroke="#1e1e1e" stroke-width="2" fill="none"></path></g></g><mask></mask><g stroke-linecap="round" transform="translate(862.4621146369764 390.8796935815889) rotate(0 68.76075075867425 42.5)"><path d="M21.25 0 C53.72 1.1, 87.96 -0.34, 116.27 0 M21.25 0 C44.93 -0.61, 69.57 -0.4, 116.27 0 M116.27 0 C130.7 1.67, 138.07 7.28, 137.52 21.25 M116.27 0 C128.39 -1.86, 137.09 5.92, 137.52 21.25 M137.52 21.25 C136.09 36.68, 135.95 53.96, 137.52 63.75 M137.52 21.25 C138.04 33.59, 138.15 44.74, 137.52 63.75 M137.52 63.75 C138.19 76.7, 129.96 86.86, 116.27 85 M137.52 63.75 C137.4 76.44, 131.06 82.86, 116.27 85 M116.27 85 C83.59 85.15, 46.84 85.15, 21.25 85 M116.27 85 C88.68 84.78, 60.27 85.38, 21.25 85 M21.25 85 C6.17 85.56, -0.21 76.21, 0 63.75 M21.25 85 C9.02 83.3, -2.14 78.93, 0 63.75 M0 63.75 C0.69 51.78, -0.27 39.01, 0 21.25 M0 63.75 C0.8 50.63, -0.02 35.7, 0 21.25 M0 21.25 C0.03 6.26, 6.36 0.95, 21.25 0 M0 21.25 C1.17 6.46, 8.71 0.05, 21.25 0" stroke="#1e1e1e" stroke-width="2" fill="none"></path></g><g transform="translate(883.6129105616665 395.8796935815889) rotate(0 47.609954833984375 37.5)"><text x="47.609954833984375" y="17.52" font-family="Virgil, Segoe UI Emoji" font-size="20px" fill="#1e1e1e" text-anchor="middle" style="white-space: pre;" direction="ltr" dominant-baseline="alphabetic">Queue </text><text x="47.609954833984375" y="42.519999999999996" font-family="Virgil, Segoe UI Emoji" font-size="20px" fill="#1e1e1e" text-anchor="middle" style="white-space: pre;" direction="ltr" dominant-baseline="alphabetic">Producer </text><text x="47.609954833984375" y="67.52" font-family="Virgil, Segoe UI Emoji" font-size="20px" fill="#1e1e1e" text-anchor="middle" style="white-space: pre;" direction="ltr" dominant-baseline="alphabetic">call</text></g><g mask="url(#mask--O_qINAlUkO7Q9VRLPrxn)" stroke-linecap="round"><g transform="translate(1004.6396909317541 396.9280727339713) rotate(0 67.4581160430123 45.82518160204134)"><path d="M0.61 0.14 C20.99 4.59, 102.35 10.87, 123.46 26.26 C144.57 41.65, 126.68 81.55, 127.27 92.49 M-0.53 -0.84 C20.15 3.8, 104.61 12.24, 125.82 27.44 C147.04 42.65, 126.51 79.49, 126.78 90.4" stroke="#1e1e1e" stroke-width="2" fill="none"></path></g><g transform="translate(1004.6396909317541 396.9280727339713) rotate(0 67.4581160430123 45.82518160204134)"><path d="M123.88 65.57 C125.16 74.31, 124.96 86.11, 126.78 90.4 M123.88 65.57 C125.62 73.49, 126.35 81.51, 126.78 90.4" stroke="#1e1e1e" stroke-width="2" fill="none"></path></g><g transform="translate(1004.6396909317541 396.9280727339713) rotate(0 67.4581160430123 45.82518160204134)"><path d="M140.52 69.52 C135.21 76.77, 128.41 87.01, 126.78 90.4 M140.52 69.52 C136.58 76.07, 131.63 82.75, 126.78 90.4" stroke="#1e1e1e" stroke-width="2" fill="none"></path></g></g><mask id="mask--O_qINAlUkO7Q9VRLPrxn"><rect x="0" y="0" fill="#fff" width="1231.4025234797673" height="588.9230413595151"></rect><rect x="1085.0195657350423" y="411.35776713041724" fill="#000" width="87.47990417480469" height="25" opacity="1"></rect></mask><g transform="translate(1085.0195657350423 411.3577671304172) rotate(0 -12.921758760275907 31.395487205595458)"><text x="43.739952087402344" y="17.52" font-family="Virgil, Segoe UI Emoji" font-size="20px" fill="#1e1e1e" text-anchor="middle" style="white-space: pre;" direction="ltr" dominant-baseline="alphabetic">Produces</text></g><g stroke-linecap="round" transform="translate(470.55727965278356 582.6767348918586) rotate(0 76.97715167260162 29.537744246463376)"><path d="M14.77 0 C54.14 -0.71, 94.11 1.78, 139.19 0 M14.77 0 C52.77 0.53, 90.56 0.58, 139.19 0 M139.19 0 C150.69 -1.85, 152.62 5.87, 153.95 14.77 M139.19 0 C148.52 0.56, 153.17 5.89, 153.95 14.77 M153.95 14.77 C155.16 24.44, 156.1 36.16, 153.95 44.31 M153.95 14.77 C153.57 22.78, 154.01 33.04, 153.95 44.31 M153.95 44.31 C154.46 54.07, 150.82 59.14, 139.19 59.08 M153.95 44.31 C155.21 53.64, 149.33 57.01, 139.19 59.08 M139.19 59.08 C110.69 58.63, 85.32 59.09, 14.77 59.08 M139.19 59.08 C111.31 60.58, 81.96 60.31, 14.77 59.08 M14.77 59.08 C4.19 61.02, 1.37 52.76, 0 44.31 M14.77 59.08 C2.99 56.84, 0.31 55.74, 0 44.31 M0 44.31 C1.66 35.62, -1.39 24.55, 0 14.77 M0 44.31 C0.72 32.72, 0.29 21.13, 0 14.77 M0 14.77 C1.75 3.3, 4.94 -0.23, 14.77 0 M0 14.77 C-1.76 4.22, 3.79 -0.95, 14.77 0" stroke="#1e1e1e" stroke-width="2" fill="none"></path></g><g transform="translate(516.2244642843693 599.7144791383221) rotate(0 31.309967041015625 12.5)"><text x="31.309967041015625" y="17.52" font-family="Virgil, Segoe UI Emoji" font-size="20px" fill="#1e1e1e" text-anchor="middle" style="white-space: pre;" direction="ltr" dominant-baseline="alphabetic">/users</text></g><g stroke-linecap="round" transform="translate(65.91653770956827 354.00019342403635) rotate(0 68.76075075867436 42.5)"><path d="M21.25 0 C57.53 -0.97, 93.29 1.19, 116.27 0 M21.25 0 C42.68 -0.73, 61.78 0.67, 116.27 0 M116.27 0 C128.56 1.12, 139.22 6.07, 137.52 21.25 M116.27 0 C130.89 -0.13, 137.28 7.65, 137.52 21.25 M137.52 21.25 C136.95 31.73, 136.04 44, 137.52 63.75 M137.52 21.25 C137.28 37.61, 136.67 52.55, 137.52 63.75 M137.52 63.75 C136.3 78.9, 130.97 85.4, 116.27 85 M137.52 63.75 C135.86 77.33, 130.65 87.04, 116.27 85 M116.27 85 C93.7 83.24, 73.33 84.42, 21.25 85 M116.27 85 C90.88 86.01, 65.87 85.34, 21.25 85 M21.25 85 C8.46 83.53, 1.34 78.78, 0 63.75 M21.25 85 C8.3 83.5, -1.08 77.89, 0 63.75 M0 63.75 C0.99 47.81, 1.33 31.17, 0 21.25 M0 63.75 C1.31 50.29, 0.59 37.18, 0 21.25 M0 21.25 C-0.3 5.59, 7.69 0.24, 21.25 0 M0 21.25 C1.04 6.75, 9.06 0.94, 21.25 0" stroke="#1e1e1e" stroke-width="2" fill="none"></path></g><g transform="translate(74.66735499656284 384.00019342403635) rotate(0 60.00993347167969 12.5)"><text x="60.00993347167969" y="17.52" font-family="Virgil, Segoe UI Emoji" font-size="20px" fill="#1e1e1e" text-anchor="middle" style="white-space: pre;" direction="ltr" dominant-baseline="alphabetic">service_loop</text></g><g stroke-linecap="round" transform="translate(154.48796628099717 462.5716219954651) rotate(0 68.76075075867436 42.5)"><path d="M21.25 0 C53.81 -2.16, 88.11 -2.27, 116.27 0 M21.25 0 C47.91 1.01, 74.71 0.19, 116.27 0 M116.27 0 C130.18 -0.77, 137.41 6.83, 137.52 21.25 M116.27 0 C129.05 -0.7, 139.76 9.32, 137.52 21.25 M137.52 21.25 C136.98 35.57, 137.27 48.46, 137.52 63.75 M137.52 21.25 C138.12 36.68, 136.74 52.25, 137.52 63.75 M137.52 63.75 C137.83 76.82, 132.13 86.82, 116.27 85 M137.52 63.75 C138.28 76.11, 129.71 86.99, 116.27 85 M116.27 85 C86.66 85.78, 57.21 84.63, 21.25 85 M116.27 85 C89.82 84.54, 61.44 84.74, 21.25 85 M21.25 85 C5.81 86.12, 0.51 76.19, 0 63.75 M21.25 85 C6.91 85.58, -1.02 77.33, 0 63.75 M0 63.75 C0.08 46.69, 0.11 32.3, 0 21.25 M0 63.75 C0.07 48.74, -0.07 33.09, 0 21.25 M0 21.25 C0.23 6, 7.13 0.35, 21.25 0 M0 21.25 C-0.35 8.09, 6.35 -1.95, 21.25 0" stroke="#1e1e1e" stroke-width="2" fill="none"></path></g><g transform="translate(162.15877410754274 480.0716219954651) rotate(0 61.089942932128906 25)"><text x="61.089942932128906" y="17.52" font-family="Virgil, Segoe UI Emoji" font-size="20px" fill="#1e1e1e" text-anchor="middle" style="white-space: pre;" direction="ltr" dominant-baseline="alphabetic">check_failed</text><text x="61.089942932128906" y="42.519999999999996" font-family="Virgil, Segoe UI Emoji" font-size="20px" fill="#1e1e1e" text-anchor="middle" style="white-space: pre;" direction="ltr" dominant-baseline="alphabetic">_requests</text></g><g stroke-linecap="round" transform="translate(217.20637206234915 625.7073135431369) rotate(0 99.61377354875003 35.79287988089956)"><path d="M17.9 0 C79.42 1.58, 138 -2.7, 181.33 0 C191.81 3.36, 198.92 5.17, 199.23 17.9 C201.36 33.08, 202.79 44.19, 199.23 53.69 C201.46 64.49, 196.38 70.02, 181.33 71.59 C127.86 68.89, 77.64 69.55, 17.9 71.59 C4.06 73.49, -2.67 65.74, 0 53.69 C3.31 45.35, -0.38 34.14, 0 17.9 C-1.84 8.13, 4.49 -0.3, 17.9 0" stroke="none" stroke-width="0" fill="#ffc9c9"></path><path d="M17.9 0 C59.65 -0.71, 98.39 -0.15, 181.33 0 M17.9 0 C71.09 -2.54, 125.7 -1.37, 181.33 0 M181.33 0 C194.04 -1.44, 197.37 6.96, 199.23 17.9 M181.33 0 C193.25 -1.59, 200.07 7.43, 199.23 17.9 M199.23 17.9 C199.15 25.3, 198.28 33.97, 199.23 53.69 M199.23 17.9 C198.09 31.26, 199.94 45.1, 199.23 53.69 M199.23 53.69 C199.28 64.58, 192.4 71.48, 181.33 71.59 M199.23 53.69 C201.36 64.78, 194.72 69.46, 181.33 71.59 M181.33 71.59 C125.85 73.87, 68.66 70.69, 17.9 71.59 M181.33 71.59 C117.76 70.31, 53.63 70.01, 17.9 71.59 M17.9 71.59 C7.71 70.42, -0.83 65.31, 0 53.69 M17.9 71.59 C4.22 72.78, -1.14 66.36, 0 53.69 M0 53.69 C1.38 42.7, -1.1 35.39, 0 17.9 M0 53.69 C-0.17 44.88, -0.06 35.93, 0 17.9 M0 17.9 C0.92 4.41, 7.7 0.8, 17.9 0 M0 17.9 C-1.1 4.08, 5.93 1.16, 17.9 0" stroke="#1e1e1e" stroke-width="2" fill="none"></path></g><g transform="translate(226.75450992994683 632.8634634302737) rotate(0 90.06563568115234 28.636729993762742)"><text x="90.06563568115234" y="20.068620379628932" font-family="Virgil, Segoe UI Emoji" font-size="22.909383995010195px" fill="#1e1e1e" text-anchor="middle" style="white-space: pre;" direction="ltr" dominant-baseline="alphabetic">failed_requests</text><text x="90.06563568115234" y="48.705350373391674" font-family="Virgil, Segoe UI Emoji" font-size="22.909383995010195px" fill="#1e1e1e" text-anchor="middle" style="white-space: pre;" direction="ltr" dominant-baseline="alphabetic">_trainer</text></g><g mask="url(#mask-RnzyMu3cIhFa6vgDWUMbW)" stroke-linecap="round"><g transform="translate(414.8923752072633 698.3935854704715) rotate(0 -5.951816104263003 44.89297913982287)"><path d="M0.25 -0.49 C9.44 5.67, 65.64 21.12, 54.48 36.24 C43.32 51.36, -46.74 81.31, -66.72 90.25 M-1.07 -1.79 C8.05 4.6, 64.87 21.98, 53.75 37.55 C42.62 53.11, -48.08 82.71, -67.84 91.58" stroke="#1e1e1e" stroke-width="2" fill="none"></path></g><g transform="translate(414.8923752072633 698.3935854704715) rotate(0 -5.951816104263003 44.89297913982287)"><path d="M-48.98 75.17 C-54.51 79.9, -59.04 82.1, -67.84 91.58 M-48.98 75.17 C-54.46 80.46, -61.03 85.4, -67.84 91.58" stroke="#1e1e1e" stroke-width="2" fill="none"></path></g><g transform="translate(414.8923752072633 698.3935854704715) rotate(0 -5.951816104263003 44.89297913982287)"><path d="M-42.85 91.13 C-49.78 91.97, -55.81 90.27, -67.84 91.58 M-42.85 91.13 C-50.26 91.58, -58.69 91.69, -67.84 91.58" stroke="#1e1e1e" stroke-width="2" fill="none"></path></g></g><mask id="mask-RnzyMu3cIhFa6vgDWUMbW"><rect x="0" y="0" fill="#fff" width="635.0070176392114" height="888.6152737645979"></rect><rect x="430.86304242680717" y="722.5716219954647" fill="#000" width="76.19992065429688" height="25" opacity="1"></rect></mask><g transform="translate(430.8630424268074 722.5716219954649) rotate(0 -21.922483323806887 20.71494261482954)"><text x="38.09996032714844" y="17.52" font-family="Virgil, Segoe UI Emoji" font-size="20px" fill="#1e1e1e" text-anchor="middle" style="white-space: pre;" direction="ltr" dominant-baseline="alphabetic">Inherits</text></g><g stroke-linecap="round"><g transform="translate(115.32828022079184 440.00019342403635) rotate(0 24.106251295030916 153.62892330064827)"><path d="M-0.33 -0.85 C3.05 29.79, 12.71 132.13, 20.85 183.47 C29 234.8, 43.96 286.4, 48.54 307.18 M1.7 1.32 C4.88 32.18, 12.21 133.78, 19.94 184.91 C27.68 236.04, 43.32 287.36, 48.13 308.11" stroke="#1e1e1e" stroke-width="2" fill="none"></path></g><g transform="translate(115.32828022079184 440.00019342403635) rotate(0 24.106251295030916 153.62892330064827)"><path d="M33.97 287.5 C37.43 294.86, 43.49 303.04, 48.13 308.11 M33.97 287.5 C37.6 293.32, 41.51 296.98, 48.13 308.11" stroke="#1e1e1e" stroke-width="2" fill="none"></path></g><g transform="translate(115.32828022079184 440.00019342403635) rotate(0 24.106251295030916 153.62892330064827)"><path d="M50.52 283.22 C48.2 292.02, 48.48 301.71, 48.13 308.11 M50.52 283.22 C50.24 290.09, 50.22 294.76, 48.13 308.11" stroke="#1e1e1e" stroke-width="2" fill="none"></path></g></g><mask></mask><g stroke-linecap="round"><g transform="translate(261.32617977294194 548.5716219954651) rotate(0 30.20080438014668 34.072248870389615)"><path d="M-0.28 -0.29 C9.73 11.24, 50.32 56.65, 60.68 68.04 M1.78 -1.49 C11.54 10.35, 49.62 57.82, 59.59 69.64" stroke="#1e1e1e" stroke-width="2" fill="none"></path></g><g transform="translate(261.32617977294194 548.5716219954651) rotate(0 30.20080438014668 34.072248870389615)"><path d="M38.08 56.89 C45.1 61.03, 53.42 67.54, 59.59 69.64 M38.08 56.89 C44.06 60.31, 51.65 63.95, 59.59 69.64" stroke="#1e1e1e" stroke-width="2" fill="none"></path></g><g transform="translate(261.32617977294194 548.5716219954651) rotate(0 30.20080438014668 34.072248870389615)"><path d="M51.31 46.05 C53.53 54, 57.15 64.36, 59.59 69.64 M51.31 46.05 C53.3 52.77, 56.81 59.76, 59.59 69.64" stroke="#1e1e1e" stroke-width="2" fill="none"></path></g></g><mask></mask><g stroke-linecap="round"><g transform="translate(616.6193418363068 670.7859077097506) rotate(0 121.69387173169048 121.01283064295524)"><path d="M0.91 -0.76 C41.48 39.31, 203.38 201.04, 243.46 241.23 M-0.07 1.45 C40.44 41.66, 202.45 202.82, 243.1 242.79" stroke="#1e1e1e" stroke-width="2" fill="none"></path></g><g transform="translate(616.6193418363068 670.7859077097506) rotate(0 121.69387173169048 121.01283064295524)"><path d="M220.39 232.34 C226.04 237.18, 234.22 236.94, 243.1 242.79 M220.39 232.34 C225.24 235.17, 231.47 237.38, 243.1 242.79" stroke="#1e1e1e" stroke-width="2" fill="none"></path></g><g transform="translate(616.6193418363068 670.7859077097506) rotate(0 121.69387173169048 121.01283064295524)"><path d="M232.42 220.18 C234.53 228.78, 239.08 232.21, 243.1 242.79 M232.42 220.18 C234.6 225.84, 238.06 230.85, 243.1 242.79" stroke="#1e1e1e" stroke-width="2" fill="none"></path></g></g><mask></mask><g stroke-linecap="round"><g transform="translate(879.051174474374 876.5001934240362) rotate(0 -93.03614852070132 -98.76521484190198)"><path d="M-0.79 0.55 C-31.86 -31.97, -155.64 -163.45, -186.73 -196.23 M1 -0.21 C-30.1 -32.98, -155.61 -165.09, -187.07 -198.08" stroke="#1e1e1e" stroke-width="2" fill="none"></path></g><g transform="translate(879.051174474374 876.5001934240362) rotate(0 -93.03614852070132 -98.76521484190198)"><path d="M-164.68 -186.95 C-169.81 -188.24, -175.99 -192.25, -187.07 -198.08 M-164.68 -186.95 C-172.53 -191.77, -181.32 -194.5, -187.07 -198.08" stroke="#1e1e1e" stroke-width="2" fill="none"></path></g><g transform="translate(879.051174474374 876.5001934240362) rotate(0 -93.03614852070132 -98.76521484190198)"><path d="M-177.07 -175.17 C-178.68 -179.61, -181.47 -186.85, -187.07 -198.08 M-177.07 -175.17 C-180.54 -184.07, -184.98 -190.94, -187.07 -198.08" stroke="#1e1e1e" stroke-width="2" fill="none"></path></g></g><mask></mask><g stroke-linecap="round" transform="translate(681.985851081356 382.6767348918586) rotate(0 71.97715167260117 30)"><path d="M15 0 C48.9 0.77, 83.21 -4.43, 128.95 0 C140.45 3.39, 141.37 1.74, 143.95 15 C147.25 17.65, 142.93 25.18, 143.95 45 C140.41 55.13, 142.09 56.9, 128.95 60 C100.19 58.73, 80.29 60.31, 15 60 C3.65 59.51, 3.03 58.05, 0 45 C0.52 34.05, 2.28 28.85, 0 15 C3.14 3.18, 1.74 0.1, 15 0" stroke="none" stroke-width="0" fill="#b2f2bb"></path><path d="M15 0 C57.26 -2.65, 103.43 -0.4, 128.95 0 M15 0 C39.43 1.05, 64.28 -0.25, 128.95 0 M128.95 0 C138.09 1.4, 144.15 4.57, 143.95 15 M128.95 0 C140.24 0.91, 144.61 3.53, 143.95 15 M143.95 15 C143.27 22.37, 143.66 31.54, 143.95 45 M143.95 15 C144.89 20.54, 145.01 27.55, 143.95 45 M143.95 45 C144.91 55.37, 139.5 60.11, 128.95 60 M143.95 45 C143.1 54.37, 141.21 61.71, 128.95 60 M128.95 60 C104.17 59.3, 77.72 62.52, 15 60 M128.95 60 C85.63 60.14, 43.63 60.46, 15 60 M15 60 C5.97 59.59, 0.42 55.32, 0 45 M15 60 C4.31 58.37, 0.46 53.22, 0 45 M0 45 C0.29 38.04, 1.4 28.13, 0 15 M0 45 C-0.75 34.96, -0.34 25.07, 0 15 M0 15 C-0.17 5.74, 5.09 -0.94, 15 0 M0 15 C1.45 4.35, 5.99 0.56, 15 0" stroke="#1e1e1e" stroke-width="2" fill="none"></path></g><g transform="translate(706.9530463940941 387.6767348918586) rotate(0 47.00995635986328 25)"><text x="47.00995635986328" y="17.52" font-family="Virgil, Segoe UI Emoji" font-size="20px" fill="#1e1e1e" text-anchor="middle" style="white-space: pre;" direction="ltr" dominant-baseline="alphabetic">/enqueue-</text><text x="47.00995635986328" y="42.519999999999996" font-family="Virgil, Segoe UI Emoji" font-size="20px" fill="#1e1e1e" text-anchor="middle" style="white-space: pre;" direction="ltr" dominant-baseline="alphabetic">model</text></g><g stroke-linecap="round"><g transform="translate(628.9630027539565 412.21447913832196) rotate(0 21.025180434008234 -0.7430362764413161)"><path d="M0.07 -0.08 C7.09 -0.34, 35.49 -1.1, 42.61 -1.41 M-0.55 -0.59 C6.33 -0.78, 34.89 -0.53, 42.04 -0.7" stroke="#1e1e1e" stroke-width="2" fill="none"></path></g><g transform="translate(628.9630027539565 412.21447913832196) rotate(0 21.025180434008234 -0.7430362764413161)"><path d="M21.94 6.75 C29.56 3.4, 37.52 0.82, 42.04 -0.7 M21.94 6.75 C26.14 5.17, 30.62 3.8, 42.04 -0.7" stroke="#1e1e1e" stroke-width="2" fill="none"></path></g><g transform="translate(628.9630027539565 412.21447913832196) rotate(0 21.025180434008234 -0.7430362764413161)"><path d="M21.86 -7.92 C29.54 -5.6, 37.53 -2.5, 42.04 -0.7 M21.86 -7.92 C26.12 -6.49, 30.62 -4.86, 42.04 -0.7" stroke="#1e1e1e" stroke-width="2" fill="none"></path></g></g><mask></mask><g stroke-linecap="round"><g transform="translate(820.3915741825281 419.35733628117913) rotate(0 14.155946873919902 7.443943150422683)"><path d="M-0.09 -0.65 C5.05 1.91, 24.71 11.92, 29.9 14.59 M-1.59 1.63 C3.46 4.35, 23.5 13.06, 28.9 15.53" stroke="#1e1e1e" stroke-width="2" fill="none"></path></g><g transform="translate(820.3915741825281 419.35733628117913) rotate(0 14.155946873919902 7.443943150422683)"><path d="M12.01 14.33 C14.9 14.48, 18.03 16.35, 28.9 15.53 M12.01 14.33 C16.29 15.5, 21.47 15.58, 28.9 15.53" stroke="#1e1e1e" stroke-width="2" fill="none"></path></g><g transform="translate(820.3915741825281 419.35733628117913) rotate(0 14.155946873919902 7.443943150422683)"><path d="M16.73 3.76 C18.49 6.28, 20.56 10.54, 28.9 15.53 M16.73 3.76 C19.8 7.72, 23.71 10.64, 28.9 15.53" stroke="#1e1e1e" stroke-width="2" fill="none"></path></g></g><mask></mask></svg>